STARTFONT 2.1
FONTBOUNDINGBOX 18 16 0 -3
STARTPROPERTIES 2
FONT_ASCENT 13
FONT_DESCENT 3
ENDPROPERTIES
CHARS 7165
STARTCHAR 0020
ENCODING 32
SWIDTH 520 0
DWIDTH 9 0
BBX 9 16 0 -3
BITMAP
0000
0000
0000
0000
0000
0000
0000
0000
0000
0000
0000
0000
0000
0000
0000
0000
ENDCHAR
STARTCHAR 00A8
ENCODING 168
SWIDTH 520 0
DWIDTH 18 0
BBX 18 16 0 -3
BITMAP
000000
000000
063000
063000
000000
000000
000000
000000
000000
000000
000000
000000
000000
000000
000000
000000
ENDCHAR
STARTCHAR 00B0
ENCODING 176
SWIDTH 520 0
DWIDTH 18 0
BBX 18 16 0 -3
BITMAP
000000
000000
180000
240000
240000
180000
000000
000000
000000
000000
000000
000000
000000
000000
000000
000000
ENDCHAR
STARTCHAR 00B1
ENCODING 177
SWIDTH 520 0
DWIDTH 18 0
BBX 18 16 0 -3
BITMAP
000000
008000
008000
008000
008000
008000
008000
3ffe00
008000
008000
008000
008000
008000
000000
3ffe00
000000
ENDCHAR
STARTCHAR 00D7
ENCODING 215
SWIDTH 520 0
DWIDTH 18 0
BBX 18 16 0 -3
BITMAP
000000
000000
000000
100400
080800
041000
022000
014000
008000
014000
022000
041000
080800
100400
000000
000000
ENDCHAR
STARTCHAR 00F7
ENCODING 247
SWIDTH 520 0
DWIDTH 18 0
BBX 18 16 0 -3
BITMAP
000000
000000
000000
00c000
00c000
000000
000000
000000
1ffe00
000000
000000
000000
00c000
00c000
000000
000000
ENDCHAR
STARTCHAR 2015
ENCODING 8213
SWIDTH 520 0
DWIDTH 18 0
BBX 18 16 0 -3
BITMAP
000000
000000
000000
000000
000000
000000
000000
3fff00
3fff00
000000
000000
000000
000000
000000
000000
000000
ENDCHAR
STARTCHAR 2016
ENCODING 8214
SWIDTH 520 0
DWIDTH 18 0
BBX 18 16 0 -3
BITMAP
012000
012000
012000
012000
012000
012000
012000
012000
012000
012000
012000
012000
012000
012000
012000
012000
ENDCHAR
STARTCHAR 2018
ENCODING 8216
SWIDTH 520 0
DWIDTH 18 0
BBX 18 16 0 -3
BITMAP
000000
000200
000400
000800
000c00
000c00
000000
000000
000000
000000
000000
000000
000000
000000
000000
000000
ENDCHAR
STARTCHAR 2019
ENCODING 8217
SWIDTH 520 0
DWIDTH 18 0
BBX 18 16 0 -3
BITMAP
000000
0c0000
0c0000
040000
080000
100000
000000
000000
000000
000000
000000
000000
000000
000000
000000
000000
ENDCHAR
STARTCHAR 201C
ENCODING 8220
SWIDTH 520 0
DWIDTH 18 0
BBX 18 16 0 -3
BITMAP
000000
001100
002200
004400
006600
006600
000000
000000
000000
000000
000000
000000
000000
000000
000000
000000
ENDCHAR
STARTCHAR 201D
ENCODING 8221
SWIDTH 520 0
DWIDTH 18 0
BBX 18 16 0 -3
BITMAP
000000
198000
198000
088000
110000
220000
000000
000000
000000
000000
000000
000000
000000
000000
000000
000000
ENDCHAR
STARTCHAR 2026
ENCODING 8230
SWIDTH 520 0
DWIDTH 18 0
BBX 18 16 0 -3
BITMAP
000000
000000
000000
000000
000000
000000
000000
30c300
30c300
000000
000000
000000
000000
000000
000000
000000
ENDCHAR
STARTCHAR 2030
ENCODING 8240
SWIDTH 520 0
DWIDTH 18 0
BBX 18 16 0 -3
BITMAP
000000
300000
481000
482000
484000
488000
490000
320000
04c300
092480
112480
212480
412480
012480
00c300
000000
ENDCHAR
STARTCHAR 2032
ENCODING 8242
SWIDTH 520 0
DWIDTH 18 0
BBX 18 16 0 -3
BITMAP
000000
080000
080000
080000
100000
100000
100000
000000
000000
000000
000000
000000
000000
000000
000000
000000
ENDCHAR
STARTCHAR 2033
ENCODING 8243
SWIDTH 520 0
DWIDTH 18 0
BBX 18 16 0 -3
BITMAP
000000
090000
090000
090000
120000
120000
000000
000000
000000
000000
000000
000000
000000
000000
000000
000000
ENDCHAR
STARTCHAR 2160
ENCODING 8544
SWIDTH 520 0
DWIDTH 18 0
BBX 18 16 0 -3
BITMAP
000000
00e000
004000
004000
004000
004000
004000
004000
004000
004000
004000
004000
004000
004000
00e000
000000
ENDCHAR
STARTCHAR 2161
ENCODING 8545
SWIDTH 520 0
DWIDTH 18 0
BBX 18 16 0 -3
BITMAP
000000
071c00
020800
020800
020800
020800
020800
020800
020800
020800
020800
020800
020800
020800
071c00
000000
ENDCHAR
STARTCHAR 2162
ENCODING 8546
SWIDTH 520 0
DWIDTH 18 0
BBX 18 16 0 -3
BITMAP
000000
38e380
104100
104100
104100
104100
104100
104100
104100
104100
104100
104100
104100
104100
38e380
000000
ENDCHAR
STARTCHAR 2163
ENCODING 8547
SWIDTH 520 0
DWIDTH 18 0
BBX 18 16 0 -3
BITMAP
000000
39c700
108200
108200
108200
104400
104400
104400
104400
102800
102800
102800
101000
101000
381000
000000
ENDCHAR
STARTCHAR 2164
ENCODING 8548
SWIDTH 520 0
DWIDTH 18 0
BBX 18 16 0 -3
BITMAP
000000
0e0e00
040400
040400
020800
020800
020800
011000
011000
011000
00a000
00a000
004000
004000
004000
000000
ENDCHAR
STARTCHAR 2165
ENCODING 8549
SWIDTH 520 0
DWIDTH 18 0
BBX 18 16 0 -3
BITMAP
000000
38e700
104200
104200
104200
088200
088200
088200
088200
050200
050200
050200
020200
020200
020700
000000
ENDCHAR
STARTCHAR 2166
ENCODING 8550
SWIDTH 520 0
DWIDTH 18 0
BBX 18 16 0 -3
BITMAP
000000
71df80
208900
208900
208900
110900
110900
110900
110900
0a0900
0a0900
0a0900
040900
040900
041f80
000000
ENDCHAR
STARTCHAR 2167
ENCODING 8551
SWIDTH 520 0
DWIDTH 18 0
BBX 18 16 0 -3
BITMAP
000000
71df80
209500
209500
209500
111500
111500
111500
111500
0a1500
0a1500
0a1500
041500
041500
043f80
000000
ENDCHAR
STARTCHAR 2168
ENCODING 8552
SWIDTH 520 0
DWIDTH 18 0
BBX 18 16 0 -3
BITMAP
000000
3bc780
108200
108200
104400
104400
102800
102800
101000
102800
104800
104400
108400
110200
3b8700
000000
ENDCHAR
STARTCHAR 2169
ENCODING 8553
SWIDTH 520 0
DWIDTH 18 0
BBX 18 16 0 -3
BITMAP
000000
0e1c00
040800
021000
021000
012000
00a000
00c000
004000
00a000
012000
011000
021000
040800
0e1c00
000000
ENDCHAR
STARTCHAR 216A
ENCODING 8554
SWIDTH 520 0
DWIDTH 18 0
BBX 18 16 0 -3
BITMAP
000000
387700
102200
084200
084200
048200
028200
030200
010200
028200
048200
044200
084200
102200
38f700
000000
ENDCHAR
STARTCHAR 216B
ENCODING 8555
SWIDTH 520 0
DWIDTH 18 0
BBX 18 16 0 -3
BITMAP
000000
71df80
208900
108900
110900
090900
0a0900
040900
040900
0a0900
0a0900
110900
110900
208900
71df80
000000
ENDCHAR
STARTCHAR 2190
ENCODING 8592
SWIDTH 520 0
DWIDTH 18 0
BBX 18 16 0 -3
BITMAP
000000
000000
000000
000000
000000
000000
020000
0c0000
3fff00
0c0000
020000
000000
000000
000000
000000
000000
ENDCHAR
STARTCHAR 2191
ENCODING 8593
SWIDTH 520 0
DWIDTH 18 0
BBX 18 16 0 -3
BITMAP
000000
008000
008000
01c000
01c000
02a000
008000
008000
008000
008000
008000
008000
008000
008000
008000
000000
ENDCHAR
STARTCHAR 2192
ENCODING 8594
SWIDTH 520 0
DWIDTH 18 0
BBX 18 16 0 -3
BITMAP
000000
000000
000000
000000
000000
000000
001000
000c00
3fff00
000c00
001000
000000
000000
000000
000000
000000
ENDCHAR
STARTCHAR 2193
ENCODING 8595
SWIDTH 520 0
DWIDTH 18 0
BBX 18 16 0 -3
BITMAP
000000
008000
008000
008000
008000
008000
008000
008000
008000
008000
02a000
01e000
01c000
008000
008000
000000
ENDCHAR
STARTCHAR 2208
ENCODING 8712
SWIDTH 520 0
DWIDTH 18 0
BBX 18 16 0 -3
BITMAP
000000
000000
000000
03fe00
040000
080000
100000
100000
1ffe00
100000
100000
080000
040000
03fe00
000000
000000
ENDCHAR
STARTCHAR 220F
ENCODING 8719
SWIDTH 520 0
DWIDTH 18 0
BBX 18 16 0 -3
BITMAP
000000
3fff00
080400
080400
080400
080400
080400
080400
080400
080400
080400
080400
080400
080400
1c0e00
000000
ENDCHAR
STARTCHAR 2211
ENCODING 8721
SWIDTH 520 0
DWIDTH 18 0
BBX 18 16 0 -3
BITMAP
000000
1ffc00
100400
080400
040000
020000
010000
008000
008000
010000
020000
040000
080400
100400
1ffc00
000000
ENDCHAR
STARTCHAR 221A
ENCODING 8730
SWIDTH 520 0
DWIDTH 18 0
BBX 18 16 0 -3
BITMAP
000000
000000
000400
000400
000800
000800
000800
001000
001000
021000
052000
00a000
004000
004000
000000
000000
ENDCHAR
STARTCHAR 221D
ENCODING 8733
SWIDTH 520 0
DWIDTH 18 0
BBX 18 16 0 -3
BITMAP
000000
000000
000000
000000
000000
0f1f00
10a000
204000
204000
10a000
0f1f00
000000
000000
000000
000000
000000
ENDCHAR
STARTCHAR 221E
ENCODING 8734
SWIDTH 520 0
DWIDTH 18 0
BBX 18 16 0 -3
BITMAP
000000
000000
000000
000000
000000
0e3800
114400
208200
208200
114400
0e3800
000000
000000
000000
000000
000000
ENDCHAR
STARTCHAR 2220
ENCODING 8736
SWIDTH 520 0
DWIDTH 18 0
BBX 18 16 0 -3
BITMAP
000000
000000
000100
000200
000400
000800
001000
002000
004000
008000
010000
020000
040000
080000
1fff00
000000
ENDCHAR
STARTCHAR 2225
ENCODING 8741
SWIDTH 520 0
DWIDTH 18 0
BBX 18 16 0 -3
BITMAP
000000
004200
004200
008400
008400
010800
010800
021000
021000
042000
042000
084000
084000
108000
108000
000000
ENDCHAR
STARTCHAR 2227
ENCODING 8743
SWIDTH 520 0
DWIDTH 18 0
BBX 18 16 0 -3
BITMAP
000000
004000
004000
00a000
00a000
011000
011000
020800
020800
040400
040400
080200
080200
100100
100100
000000
ENDCHAR
STARTCHAR 2228
ENCODING 8744
SWIDTH 520 0
DWIDTH 18 0
BBX 18 16 0 -3
BITMAP
000000
100100
100100
080200
080200
040400
040400
020800
020800
011000
011000
00a000
00a000
004000
004000
000000
ENDCHAR
STARTCHAR 2229
ENCODING 8745
SWIDTH 520 0
DWIDTH 18 0
BBX 18 16 0 -3
BITMAP
000000
000000
01e000
021000
040800
080400
080400
080400
080400
080400
080400
080400
080400
080400
000000
000000
ENDCHAR
STARTCHAR 222A
ENCODING 8746
SWIDTH 520 0
DWIDTH 18 0
BBX 18 16 0 -3
BITMAP
000000
000000
080400
080400
080400
080400
080400
080400
080400
080400
080400
040800
021000
01e000
000000
000000
ENDCHAR
STARTCHAR 222B
ENCODING 8747
SWIDTH 520 0
DWIDTH 18 0
BBX 18 16 0 -3
BITMAP
000000
003000
004800
004000
004000
004000
004000
004000
008000
008000
008000
008000
008000
048000
030000
000000
ENDCHAR
STARTCHAR 222E
ENCODING 8750
SWIDTH 520 0
DWIDTH 18 0
BBX 18 16 0 -3
BITMAP
003000
004800
004000
004000
004000
01e000
025000
025000
029000
029000
01e000
008000
008000
048000
030000
000000
ENDCHAR
STARTCHAR 2234
ENCODING 8756
SWIDTH 520 0
DWIDTH 18 0
BBX 18 16 0 -3
BITMAP
000000
000000
000000
00c000
00c000
000000
000000
000000
000000
000000
000000
0c0c00
0c0c00
000000
000000
000000
ENDCHAR
STARTCHAR 2235
ENCODING 8757
SWIDTH 520 0
DWIDTH 18 0
BBX 18 16 0 -3
BITMAP
000000
000000
000000
0c0c00
0c0c00
000000
000000
000000
000000
000000
000000
00c000
00c000
000000
000000
000000
ENDCHAR
STARTCHAR 2236
ENCODING 8758
SWIDTH 520 0
DWIDTH 18 0
BBX 18 16 0 -3
BITMAP
000000
000000
000000
00c000
00c000
000000
000000
000000
000000
000000
000000
00c000
00c000
000000
000000
000000
ENDCHAR
STARTCHAR 2237
ENCODING 8759
SWIDTH 520 0
DWIDTH 18 0
BBX 18 16 0 -3
BITMAP
000000
000000
000000
0c0c00
0c0c00
000000
000000
000000
000000
000000
000000
0c0c00
0c0c00
000000
000000
000000
ENDCHAR
STARTCHAR 223D
ENCODING 8765
SWIDTH 520 0
DWIDTH 18 0
BBX 18 16 0 -3
BITMAP
000000
000000
000000
000000
000000
081c00
102200
204100
208100
110200
0e0400
000000
000000
000000
000000
000000
ENDCHAR
STARTCHAR 2248
ENCODING 8776
SWIDTH 520 0
DWIDTH 18 0
BBX 18 16 0 -3
BITMAP
000000
000000
000000
000000
0e0000
118100
206200
001c00
0e0000
118100
206200
001c00
000000
000000
000000
000000
ENDCHAR
STARTCHAR 224C
ENCODING 8780
SWIDTH 520 0
DWIDTH 18 0
BBX 18 16 0 -3
BITMAP
000000
000000
000000
081c00
102200
204100
208100
110200
0e0400
000000
3fff00
000000
000000
3fff00
000000
000000
ENDCHAR
STARTCHAR 2260
ENCODING 8800
SWIDTH 520 0
DWIDTH 18 0
BBX 18 16 0 -3
BITMAP
000000
000000
000800
000800
001000
002000
3fff00
004000
004000
008000
3fff00
010000
020000
040000
000000
000000
ENDCHAR
STARTCHAR 2261
ENCODING 8801
SWIDTH 520 0
DWIDTH 18 0
BBX 18 16 0 -3
BITMAP
000000
000000
000000
000000
000000
3fff00
000000
000000
3fff00
000000
000000
3fff00
000000
000000
000000
000000
ENDCHAR
STARTCHAR 2264
ENCODING 8804
SWIDTH 520 0
DWIDTH 18 0
BBX 18 16 0 -3
BITMAP
000000
000000
000300
001c00
00e000
070000
380000
070000
00e000
001c00
380300
070000
00e000
001c00
000300
000000
ENDCHAR
STARTCHAR 2265
ENCODING 8805
SWIDTH 520 0
DWIDTH 18 0
BBX 18 16 0 -3
BITMAP
000000
000000
300000
0e0000
01c000
003800
000700
003800
01c000
0e0000
300700
003800
01c000
0e0000
300000
000000
ENDCHAR
STARTCHAR 226E
ENCODING 8814
SWIDTH 520 0
DWIDTH 18 0
BBX 18 16 0 -3
BITMAP
000000
008000
008000
008600
009800
00e000
038000
0c8000
308000
0c8000
038000
00e000
009800
008600
008000
000000
ENDCHAR
STARTCHAR 226F
ENCODING 8815
SWIDTH 520 0
DWIDTH 18 0
BBX 18 16 0 -3
BITMAP
000000
004000
004000
184000
064000
01c000
007000
004c00
004300
004c00
007000
01c000
064000
184000
004000
000000
ENDCHAR
STARTCHAR 2299
ENCODING 8857
SWIDTH 520 0
DWIDTH 18 0
BBX 18 16 0 -3
BITMAP
000000
03f000
040800
080400
100200
200100
200100
20c100
20c100
200100
200100
100200
080400
040800
03f000
000000
ENDCHAR
STARTCHAR 22A5
ENCODING 8869
SWIDTH 520 0
DWIDTH 18 0
BBX 18 16 0 -3
BITMAP
000000
008000
008000
008000
008000
008000
008000
008000
008000
008000
008000
008000
008000
008000
3ffe00
000000
ENDCHAR
STARTCHAR 2312
ENCODING 8978
SWIDTH 520 0
DWIDTH 18 0
BBX 18 16 0 -3
BITMAP
000000
000000
000000
01e000
061800
080400
100200
200100
200100
000000
000000
000000
000000
000000
000000
000000
ENDCHAR
STARTCHAR 2500
ENCODING 9472
SWIDTH 520 0
DWIDTH 18 0
BBX 18 16 0 -3
BITMAP
000000
000000
000000
000000
000000
000000
000000
ffffc0
000000
000000
000000
000000
000000
000000
000000
000000
ENDCHAR
STARTCHAR 2501
ENCODING 9473
SWIDTH 520 0
DWIDTH 18 0
BBX 18 16 0 -3
BITMAP
000000
000000
000000
000000
000000
000000
000000
ffffc0
ffffc0
000000
000000
000000
000000
000000
000000
000000
ENDCHAR
STARTCHAR 2502
ENCODING 9474
SWIDTH 520 0
DWIDTH 18 0
BBX 18 16 0 -3
BITMAP
008000
008000
008000
008000
008000
008000
008000
008000
008000
008000
008000
008000
008000
008000
008000
008000
ENDCHAR
STARTCHAR 2503
ENCODING 9475
SWIDTH 520 0
DWIDTH 18 0
BBX 18 16 0 -3
BITMAP
00c000
00c000
00c000
00c000
00c000
00c000
00c000
00c000
00c000
00c000
00c000
00c000
00c000
00c000
00c000
00c000
ENDCHAR
STARTCHAR 2504
ENCODING 9476
SWIDTH 520 0
DWIDTH 18 0
BBX 18 16 0 -3
BITMAP
000000
000000
000000
000000
000000
000000
000000
000000
79e780
000000
000000
000000
000000
000000
000000
000000
ENDCHAR
STARTCHAR 2505
ENCODING 9477
SWIDTH 520 0
DWIDTH 18 0
BBX 18 16 0 -3
BITMAP
000000
000000
000000
000000
000000
000000
000000
79e780
79e780
000000
000000
000000
000000
000000
000000
000000
ENDCHAR
STARTCHAR 2506
ENCODING 9478
SWIDTH 520 0
DWIDTH 18 0
BBX 18 16 0 -3
BITMAP
008000
008000
008000
008000
000000
000000
008000
008000
008000
008000
000000
000000
008000
008000
008000
008000
ENDCHAR
STARTCHAR 2507
ENCODING 9479
SWIDTH 520 0
DWIDTH 18 0
BBX 18 16 0 -3
BITMAP
00c000
00c000
00c000
00c000
000000
000000
00c000
00c000
00c000
00c000
000000
000000
00c000
00c000
00c000
00c000
ENDCHAR
STARTCHAR 2508
ENCODING 9480
SWIDTH 520 0
DWIDTH 18 0
BBX 18 16 0 -3
BITMAP
000000
000000
000000
000000
000000
000000
000000
777b80
000000
000000
000000
000000
000000
000000
000000
000000
ENDCHAR
STARTCHAR 2509
ENCODING 9481
SWIDTH 520 0
DWIDTH 18 0
BBX 18 16 0 -3
BITMAP
000000
000000
000000
000000
000000
000000
000000
777b80
777b80
000000
000000
000000
000000
000000
000000
000000
ENDCHAR
STARTCHAR 250A
ENCODING 9482
SWIDTH 520 0
DWIDTH 18 0
BBX 18 16 0 -3
BITMAP
008000
008000
008000
000000
008000
008000
008000
000000
008000
008000
008000
008000
000000
008000
008000
008000
ENDCHAR
STARTCHAR 250B
ENCODING 9483
SWIDTH 520 0
DWIDTH 18 0
BBX 18 16 0 -3
BITMAP
00c000
00c000
00c000
000000
00c000
00c000
00c000
000000
00c000
00c000
00c000
00c000
000000
00c000
00c000
00c000
ENDCHAR
STARTCHAR 250C
ENCODING 9484
SWIDTH 520 0
DWIDTH 18 0
BBX 18 16 0 -3
BITMAP
000000
000000
000000
000000
000000
000000
000000
00ffc0
008000
008000
008000
008000
008000
008000
008000
008000
ENDCHAR
STARTCHAR 250D
ENCODING 9485
SWIDTH 520 0
DWIDTH 18 0
BBX 18 16 0 -3
BITMAP
000000
000000
000000
000000
000000
000000
000000
00ffc0
00ffc0
008000
008000
008000
008000
008000
008000
008000
ENDCHAR
STARTCHAR 250E
ENCODING 9486
SWIDTH 520 0
DWIDTH 18 0
BBX 18 16 0 -3
BITMAP
000000
000000
000000
000000
000000
000000
000000
00ffc0
00c000
00c000
00c000
00c000
00c000
00c000
00c000
00c000
ENDCHAR
STARTCHAR 250F
ENCODING 9487
SWIDTH 520 0
DWIDTH 18 0
BBX 18 16 0 -3
BITMAP
000000
000000
000000
000000
000000
000000
000000
00ffc0
00ffc0
00c000
00c000
00c000
00c000
00c000
00c000
00c000
ENDCHAR
STARTCHAR 2510
ENCODING 9488
SWIDTH 520 0
DWIDTH 18 0
BBX 18 16 0 -3
BITMAP
000000
000000
000000
000000
000000
000000
000000
ff8000
008000
008000
008000
008000
008000
008000
008000
008000
ENDCHAR
STARTCHAR 2511
ENCODING 9489
SWIDTH 520 0
DWIDTH 18 0
BBX 18 16 0 -3
BITMAP
000000
000000
000000
000000
000000
000000
000000
ff8000
ff8000
008000
008000
008000
008000
008000
008000
008000
ENDCHAR
STARTCHAR 2512
ENCODING 9490
SWIDTH 520 0
DWIDTH 18 0
BBX 18 16 0 -3
BITMAP
000000
000000
000000
000000
000000
000000
000000
ffc000
00c000
00c000
00c000
00c000
00c000
00c000
00c000
00c000
ENDCHAR
STARTCHAR 2513
ENCODING 9491
SWIDTH 520 0
DWIDTH 18 0
BBX 18 16 0 -3
BITMAP
000000
000000
000000
000000
000000
000000
000000
ffc000
ffc000
00c000
00c000
00c000
00c000
00c000
00c000
00c000
ENDCHAR
STARTCHAR 2514
ENCODING 9492
SWIDTH 520 0
DWIDTH 18 0
BBX 18 16 0 -3
BITMAP
008000
008000
008000
008000
008000
008000
008000
00ffc0
000000
000000
000000
000000
000000
000000
000000
000000
ENDCHAR
STARTCHAR 2515
ENCODING 9493
SWIDTH 520 0
DWIDTH 18 0
BBX 18 16 0 -3
BITMAP
008000
008000
008000
008000
008000
008000
008000
00ffc0
00ffc0
000000
000000
000000
000000
000000
000000
000000
ENDCHAR
STARTCHAR 2516
ENCODING 9494
SWIDTH 520 0
DWIDTH 18 0
BBX 18 16 0 -3
BITMAP
00c000
00c000
00c000
00c000
00c000
00c000
00c000
00ffc0
000000
000000
000000
000000
000000
000000
000000
000000
ENDCHAR
STARTCHAR 2517
ENCODING 9495
SWIDTH 520 0
DWIDTH 18 0
BBX 18 16 0 -3
BITMAP
00c000
00c000
00c000
00c000
00c000
00c000
00c000
00ffc0
00ffc0
000000
000000
000000
000000
000000
000000
000000
ENDCHAR
STARTCHAR 2518
ENCODING 9496
SWIDTH 520 0
DWIDTH 18 0
BBX 18 16 0 -3
BITMAP
008000
008000
008000
008000
008000
008000
008000
ff8000
000000
000000
000000
000000
000000
000000
000000
000000
ENDCHAR
STARTCHAR 2519
ENCODING 9497
SWIDTH 520 0
DWIDTH 18 0
BBX 18 16 0 -3
BITMAP
008000
008000
008000
008000
008000
008000
008000
ff8000
ff8000
000000
000000
000000
000000
000000
000000
000000
ENDCHAR
STARTCHAR 251A
ENCODING 9498
SWIDTH 520 0
DWIDTH 18 0
BBX 18 16 0 -3
BITMAP
00c000
00c000
00c000
00c000
00c000
00c000
00c000
ffc000
000000
000000
000000
000000
000000
000000
000000
000000
ENDCHAR
STARTCHAR 251B
ENCODING 9499
SWIDTH 520 0
DWIDTH 18 0
BBX 18 16 0 -3
BITMAP
00c000
00c000
00c000
00c000
00c000
00c000
00c000
ffc000
ffc000
000000
000000
000000
000000
000000
000000
000000
ENDCHAR
STARTCHAR 251C
ENCODING 9500
SWIDTH 520 0
DWIDTH 18 0
BBX 18 16 0 -3
BITMAP
008000
008000
008000
008000
008000
008000
008000
00ffc0
008000
008000
008000
008000
008000
008000
008000
008000
ENDCHAR
STARTCHAR 251D
ENCODING 9501
SWIDTH 520 0
DWIDTH 18 0
BBX 18 16 0 -3
BITMAP
008000
008000
008000
008000
008000
008000
008000
00ffc0
00ffc0
008000
008000
008000
008000
008000
008000
008000
ENDCHAR
STARTCHAR 251E
ENCODING 9502
SWIDTH 520 0
DWIDTH 18 0
BBX 18 16 0 -3
BITMAP
00c000
00c000
00c000
00c000
00c000
00c000
00c000
00ffc0
008000
008000
008000
008000
008000
008000
008000
008000
ENDCHAR
STARTCHAR 251F
ENCODING 9503
SWIDTH 520 0
DWIDTH 18 0
BBX 18 16 0 -3
BITMAP
008000
008000
008000
008000
008000
008000
008000
00ffc0
00c000
00c000
00c000
00c000
00c000
00c000
00c000
00c000
ENDCHAR
STARTCHAR 2520
ENCODING 9504
SWIDTH 520 0
DWIDTH 18 0
BBX 18 16 0 -3
BITMAP
00c000
00c000
00c000
00c000
00c000
00c000
00c000
00ffc0
00c000
00c000
00c000
00c000
00c000
00c000
00c000
00c000
ENDCHAR
STARTCHAR 2521
ENCODING 9505
SWIDTH 520 0
DWIDTH 18 0
BBX 18 16 0 -3
BITMAP
00c000
00c000
00c000
00c000
00c000
00c000
00c000
00ffc0
00ffc0
008000
008000
008000
008000
008000
008000
008000
ENDCHAR
STARTCHAR 2522
ENCODING 9506
SWIDTH 520 0
DWIDTH 18 0
BBX 18 16 0 -3
BITMAP
008000
008000
008000
008000
008000
008000
008000
00ffc0
00ffc0
00c000
00c000
00c000
00c000
00c000
00c000
00c000
ENDCHAR
STARTCHAR 2523
ENCODING 9507
SWIDTH 520 0
DWIDTH 18 0
BBX 18 16 0 -3
BITMAP
00c000
00c000
00c000
00c000
00c000
00c000
00c000
00ffc0
00ffc0
00c000
00c000
00c000
00c000
00c000
00c000
00c000
ENDCHAR
STARTCHAR 2524
ENCODING 9508
SWIDTH 520 0
DWIDTH 18 0
BBX 18 16 0 -3
BITMAP
008000
008000
008000
008000
008000
008000
008000
ff8000
008000
008000
008000
008000
008000
008000
008000
008000
ENDCHAR
STARTCHAR 2525
ENCODING 9509
SWIDTH 520 0
DWIDTH 18 0
BBX 18 16 0 -3
BITMAP
008000
008000
008000
008000
008000
008000
008000
ff8000
ff8000
008000
008000
008000
008000
008000
008000
008000
ENDCHAR
STARTCHAR 2526
ENCODING 9510
SWIDTH 520 0
DWIDTH 18 0
BBX 18 16 0 -3
BITMAP
00c000
00c000
00c000
00c000
00c000
00c000
00c000
ffc000
008000
008000
008000
008000
008000
008000
008000
008000
ENDCHAR
STARTCHAR 2527
ENCODING 9511
SWIDTH 520 0
DWIDTH 18 0
BBX 18 16 0 -3
BITMAP
008000
008000
008000
008000
008000
008000
008000
ffc000
00c000
00c000
00c000
00c000
00c000
00c000
00c000
00c000
ENDCHAR
STARTCHAR 2528
ENCODING 9512
SWIDTH 520 0
DWIDTH 18 0
BBX 18 16 0 -3
BITMAP
00c000
00c000
00c000
00c000
00c000
00c000
00c000
ffc000
00c000
00c000
00c000
00c000
00c000
00c000
00c000
00c000
ENDCHAR
STARTCHAR 2529
ENCODING 9513
SWIDTH 520 0
DWIDTH 18 0
BBX 18 16 0 -3
BITMAP
00c000
00c000
00c000
00c000
00c000
00c000
00c000
ffc000
ffc000
008000
008000
008000
008000
008000
008000
008000
ENDCHAR
STARTCHAR 252A
ENCODING 9514
SWIDTH 520 0
DWIDTH 18 0
BBX 18 16 0 -3
BITMAP
008000
008000
008000
008000
008000
008000
008000
ffc000
ffc000
00c000
00c000
00c000
00c000
00c000
00c000
00c000
ENDCHAR
STARTCHAR 252B
ENCODING 9515
SWIDTH 520 0
DWIDTH 18 0
BBX 18 16 0 -3
BITMAP
00c000
00c000
00c000
00c000
00c000
00c000
00c000
ffc000
ffc000
00c000
00c000
00c000
00c000
00c000
00c000
00c000
ENDCHAR
STARTCHAR 252C
ENCODING 9516
SWIDTH 520 0
DWIDTH 18 0
BBX 18 16 0 -3
BITMAP
000000
000000
000000
000000
000000
000000
000000
ffffc0
008000
008000
008000
008000
008000
008000
008000
008000
ENDCHAR
STARTCHAR 252D
ENCODING 9517
SWIDTH 520 0
DWIDTH 18 0
BBX 18 16 0 -3
BITMAP
000000
000000
000000
000000
000000
000000
000000
ffffc0
ff8000
008000
008000
008000
008000
008000
008000
008000
ENDCHAR
STARTCHAR 252E
ENCODING 9518
SWIDTH 520 0
DWIDTH 18 0
BBX 18 16 0 -3
BITMAP
000000
000000
000000
000000
000000
000000
000000
ffffc0
00ffc0
008000
008000
008000
008000
008000
008000
008000
ENDCHAR
STARTCHAR 252F
ENCODING 9519
SWIDTH 520 0
DWIDTH 18 0
BBX 18 16 0 -3
BITMAP
000000
000000
000000
000000
000000
000000
000000
ffffc0
ffffc0
008000
008000
008000
008000
008000
008000
008000
ENDCHAR
STARTCHAR 2530
ENCODING 9520
SWIDTH 520 0
DWIDTH 18 0
BBX 18 16 0 -3
BITMAP
000000
000000
000000
000000
000000
000000
000000
ffffc0
00c000
00c000
00c000
00c000
00c000
00c000
00c000
00c000
ENDCHAR
STARTCHAR 2531
ENCODING 9521
SWIDTH 520 0
DWIDTH 18 0
BBX 18 16 0 -3
BITMAP
000000
000000
000000
000000
000000
000000
000000
ffffc0
ffc000
00c000
00c000
00c000
00c000
00c000
00c000
00c000
ENDCHAR
STARTCHAR 2532
ENCODING 9522
SWIDTH 520 0
DWIDTH 18 0
BBX 18 16 0 -3
BITMAP
000000
000000
000000
000000
000000
000000
000000
ffffc0
00ffc0
00c000
00c000
00c000
00c000
00c000
00c000
00c000
ENDCHAR
STARTCHAR 2533
ENCODING 9523
SWIDTH 520 0
DWIDTH 18 0
BBX 18 16 0 -3
BITMAP
000000
000000
000000
000000
000000
000000
000000
ffffc0
ffffc0
00c000
00c000
00c000
00c000
00c000
00c000
00c000
ENDCHAR
STARTCHAR 2534
ENCODING 9524
SWIDTH 520 0
DWIDTH 18 0
BBX 18 16 0 -3
BITMAP
008000
008000
008000
008000
008000
008000
008000
ffffc0
000000
000000
000000
000000
000000
000000
000000
000000
ENDCHAR
STARTCHAR 2535
ENCODING 9525
SWIDTH 520 0
DWIDTH 18 0
BBX 18 16 0 -3
BITMAP
008000
008000
008000
008000
008000
008000
008000
ffffc0
ff8000
000000
000000
000000
000000
000000
000000
000000
ENDCHAR
STARTCHAR 2536
ENCODING 9526
SWIDTH 520 0
DWIDTH 18 0
BBX 18 16 0 -3
BITMAP
008000
008000
008000
008000
008000
008000
008000
ffffc0
00ffc0
000000
000000
000000
000000
000000
000000
000000
ENDCHAR
STARTCHAR 2537
ENCODING 9527
SWIDTH 520 0
DWIDTH 18 0
BBX 18 16 0 -3
BITMAP
008000
008000
008000
008000
008000
008000
008000
ffffc0
ffffc0
000000
000000
000000
000000
000000
000000
000000
ENDCHAR
STARTCHAR 2538
ENCODING 9528
SWIDTH 520 0
DWIDTH 18 0
BBX 18 16 0 -3
BITMAP
00c000
00c000
00c000
00c000
00c000
00c000
00c000
ffffc0
000000
000000
000000
000000
000000
000000
000000
000000
ENDCHAR
STARTCHAR 2539
ENCODING 9529
SWIDTH 520 0
DWIDTH 18 0
BBX 18 16 0 -3
BITMAP
00c000
00c000
00c000
00c000
00c000
00c000
00c000
ffffc0
ffc000
000000
000000
000000
000000
000000
000000
000000
ENDCHAR
STARTCHAR 253A
ENCODING 9530
SWIDTH 520 0
DWIDTH 18 0
BBX 18 16 0 -3
BITMAP
00c000
00c000
00c000
00c000
00c000
00c000
00c000
ffffc0
00ffc0
000000
000000
000000
000000
000000
000000
000000
ENDCHAR
STARTCHAR 253B
ENCODING 9531
SWIDTH 520 0
DWIDTH 18 0
BBX 18 16 0 -3
BITMAP
00c000
00c000
00c000
00c000
00c000
00c000
00c000
ffffc0
ffffc0
000000
000000
000000
000000
000000
000000
000000
ENDCHAR
STARTCHAR 253C
ENCODING 9532
SWIDTH 520 0
DWIDTH 18 0
BBX 18 16 0 -3
BITMAP
008000
008000
008000
008000
008000
008000
008000
ffffc0
008000
008000
008000
008000
008000
008000
008000
008000
ENDCHAR
STARTCHAR 253D
ENCODING 9533
SWIDTH 520 0
DWIDTH 18 0
BBX 18 16 0 -3
BITMAP
008000
008000
008000
008000
008000
008000
008000
ffffc0
ff8000
008000
008000
008000
008000
008000
008000
008000
ENDCHAR
STARTCHAR 253E
ENCODING 9534
SWIDTH 520 0
DWIDTH 18 0
BBX 18 16 0 -3
BITMAP
008000
008000
008000
008000
008000
008000
008000
ffffc0
00ffc0
008000
008000
008000
008000
008000
008000
008000
ENDCHAR
STARTCHAR 253F
ENCODING 9535
SWIDTH 520 0
DWIDTH 18 0
BBX 18 16 0 -3
BITMAP
008000
008000
008000
008000
008000
008000
008000
ffffc0
ffffc0
008000
008000
008000
008000
008000
008000
008000
ENDCHAR
STARTCHAR 2540
ENCODING 9536
SWIDTH 520 0
DWIDTH 18 0
BBX 18 16 0 -3
BITMAP
00c000
00c000
00c000
00c000
00c000
00c000
00c000
ffffc0
008000
008000
008000
008000
008000
008000
008000
008000
ENDCHAR
STARTCHAR 2541
ENCODING 9537
SWIDTH 520 0
DWIDTH 18 0
BBX 18 16 0 -3
BITMAP
008000
008000
008000
008000
008000
008000
008000
ffffc0
00c000
00c000
00c000
00c000
00c000
00c000
00c000
00c000
ENDCHAR
STARTCHAR 2542
ENCODING 9538
SWIDTH 520 0
DWIDTH 18 0
BBX 18 16 0 -3
BITMAP
00c000
00c000
00c000
00c000
00c000
00c000
00c000
ffffc0
00c000
00c000
00c000
00c000
00c000
00c000
00c000
00c000
ENDCHAR
STARTCHAR 2543
ENCODING 9539
SWIDTH 520 0
DWIDTH 18 0
BBX 18 16 0 -3
BITMAP
00c000
00c000
00c000
00c000
00c000
00c000
00c000
ffffc0
ff8000
008000
008000
008000
008000
008000
008000
008000
ENDCHAR
STARTCHAR 2544
ENCODING 9540
SWIDTH 520 0
DWIDTH 18 0
BBX 18 16 0 -3
BITMAP
00c000
00c000
00c000
00c000
00c000
00c000
00c000
ffffc0
00ffc0
008000
008000
008000
008000
008000
008000
008000
ENDCHAR
STARTCHAR 2545
ENCODING 9541
SWIDTH 520 0
DWIDTH 18 0
BBX 18 16 0 -3
BITMAP
008000
008000
008000
008000
008000
008000
008000
ffffc0
ffc000
00c000
00c000
00c000
00c000
00c000
00c000
00c000
ENDCHAR
STARTCHAR 2546
ENCODING 9542
SWIDTH 520 0
DWIDTH 18 0
BBX 18 16 0 -3
BITMAP
00c000
00c000
00c000
00c000
00c000
00c000
00c000
ffffc0
00ffc0
00c000
00c000
00c000
00c000
00c000
00c000
00c000
ENDCHAR
STARTCHAR 2547
ENCODING 9543
SWIDTH 520 0
DWIDTH 18 0
BBX 18 16 0 -3
BITMAP
00c000
00c000
00c000
00c000
00c000
00c000
00c000
ffffc0
ffffc0
008000
008000
008000
008000
008000
008000
008000
ENDCHAR
STARTCHAR 2548
ENCODING 9544
SWIDTH 520 0
DWIDTH 18 0
BBX 18 16 0 -3
BITMAP
008000
008000
008000
008000
008000
008000
008000
ffffc0
ffffc0
00c000
00c000
00c000
00c000
00c000
00c000
00c000
ENDCHAR
STARTCHAR 2549
ENCODING 9545
SWIDTH 520 0
DWIDTH 18 0
BBX 18 16 0 -3
BITMAP
00c000
00c000
00c000
00c000
00c000
00c000
00c000
ffffc0
ffc000
00c000
00c000
00c000
00c000
00c000
00c000
00c000
ENDCHAR
STARTCHAR 254A
ENCODING 9546
SWIDTH 520 0
DWIDTH 18 0
BBX 18 16 0 -3
BITMAP
00c000
00c000
00c000
00c000
00c000
00c000
00c000
ffffc0
00ffc0
00c000
00c000
00c000
00c000
00c000
00c000
00c000
ENDCHAR
STARTCHAR 254B
ENCODING 9547
SWIDTH 520 0
DWIDTH 18 0
BBX 18 16 0 -3
BITMAP
00c000
00c000
00c000
00c000
00c000
00c000
00c000
ffffc0
ffffc0
00c000
00c000
00c000
00c000
00c000
00c000
00c000
ENDCHAR
STARTCHAR 25A0
ENCODING 9632
SWIDTH 520 0
DWIDTH 18 0
BBX 18 16 0 -3
BITMAP
000000
000000
1fff00
1fff00
1fff00
1fff00
1fff00
1fff00
1fff00
1fff00
1fff00
1fff00
1fff00
1fff00
1fff00
000000
ENDCHAR
STARTCHAR 25A1
ENCODING 9633
SWIDTH 520 0
DWIDTH 18 0
BBX 18 16 0 -3
BITMAP
000000
000000
1fff00
100100
100100
100100
100100
100100
100100
100100
100100
100100
100100
100100
1fff00
000000
ENDCHAR
STARTCHAR 25B2
ENCODING 9650
SWIDTH 520 0
DWIDTH 18 0
BBX 18 16 0 -3
BITMAP
000000
008000
008000
01c000
01c000
03e000
03e000
07f000
07f000
0ff800
0ff800
1ffc00
1ffc00
3ffe00
3ffe00
000000
ENDCHAR
STARTCHAR 25B3
ENCODING 9651
SWIDTH 520 0
DWIDTH 18 0
BBX 18 16 0 -3
BITMAP
000000
008000
008000
014000
014000
022000
022000
041000
041000
080800
080800
100400
100400
200200
7fff00
000000
ENDCHAR
STARTCHAR 25C6
ENCODING 9670
SWIDTH 520 0
DWIDTH 18 0
BBX 18 16 0 -3
BITMAP
000000
008000
01c000
03e000
07f000
0ff800
1ffc00
3ffe00
7fff00
3ffe00
1ffc00
0ff800
07f000
03e000
01c000
008000
ENDCHAR
STARTCHAR 25C7
ENCODING 9671
SWIDTH 520 0
DWIDTH 18 0
BBX 18 16 0 -3
BITMAP
000000
008000
014000
022000
041000
080800
100400
200200
400100
200200
100400
080800
041000
022000
014000
008000
ENDCHAR
STARTCHAR 25CB
ENCODING 9675
SWIDTH 520 0
DWIDTH 18 0
BBX 18 16 0 -3
BITMAP
000000
01e000
061800
080400
100200
100200
200100
200100
200100
200100
100200
100200
080400
061800
01e000
000000
ENDCHAR
STARTCHAR 25CE
ENCODING 9678
SWIDTH 520 0
DWIDTH 18 0
BBX 18 16 0 -3
BITMAP
000000
03f000
040800
080400
11e200
221100
240900
240900
240900
240900
221100
11e200
080400
040800
03f000
000000
ENDCHAR
STARTCHAR 25CF
ENCODING 9679
SWIDTH 520 0
DWIDTH 18 0
BBX 18 16 0 -3
BITMAP
000000
01e000
07f800
0ffc00
1ffe00
1ffe00
3fff00
3fff00
3fff00
3fff00
1ffe00
1ffe00
0ffc00
07f800
01e000
000000
ENDCHAR
STARTCHAR 2605
ENCODING 9733
SWIDTH 520 0
DWIDTH 18 0
BBX 18 16 0 -3
BITMAP
004000
004000
00c000
00c000
01e000
01e000
7fff80
1ffe00
0ffc00
07f800
03f000
07f800
073800
061800
0c0c00
080400
ENDCHAR
STARTCHAR 2606
ENCODING 9734
SWIDTH 520 0
DWIDTH 18 0
BBX 18 16 0 -3
BITMAP
004000
004000
00c000
00c000
00a000
012000
7f3f80
100200
080400
041800
021000
04c800
052800
061800
0c0c00
080400
ENDCHAR
STARTCHAR 2640
ENCODING 9792
SWIDTH 520 0
DWIDTH 18 0
BBX 18 16 0 -3
BITMAP
000000
01c000
022000
041000
041000
041000
022000
01c000
008000
008000
1ffc00
008000
008000
008000
008000
000000
ENDCHAR
STARTCHAR 2642
ENCODING 9794
SWIDTH 520 0
DWIDTH 18 0
BBX 18 16 0 -3
BITMAP
000000
008000
01c000
02a000
049000
088800
008000
008000
01c000
022000
041000
041000
041000
022000
01c000
000000
ENDCHAR
STARTCHAR 3000
ENCODING 12288
SWIDTH 520 0
DWIDTH 18 0
BBX 18 16 0 -3
BITMAP
000000
000000
000000
000000
000000
000000
000000
000000
000000
000000
000000
000000
000000
000000
000000
000000
ENDCHAR
STARTCHAR 3001
ENCODING 12289
SWIDTH 520 0
DWIDTH 18 0
BBX 18 16 0 -3
BITMAP
000000
000000
000000
000000
000000
000000
000000
000000
000000
000000
200000
180000
0c0000
040000
000000
000000
ENDCHAR
STARTCHAR 3002
ENCODING 12290
SWIDTH 520 0
DWIDTH 18 0
BBX 18 16 0 -3
BITMAP
000000
000000
000000
000000
000000
000000
000000
000000
000000
000000
000000
180000
240000
240000
180000
000000
ENDCHAR
STARTCHAR 3003
ENCODING 12291
SWIDTH 520 0
DWIDTH 18 0
BBX 18 16 0 -3
BITMAP
000000
000000
000000
000000
009000
009000
01b000
012000
012000
024000
024000
000000
000000
000000
000000
000000
ENDCHAR
STARTCHAR 3005
ENCODING 12293
SWIDTH 520 0
DWIDTH 18 0
BBX 18 16 0 -3
BITMAP
000000
010000
010000
010000
023800
03c800
040800
081000
001000
00a000
004000
002000
002000
000000
000000
000000
ENDCHAR
STARTCHAR 3008
ENCODING 12296
SWIDTH 520 0
DWIDTH 18 0
BBX 18 16 0 -3
BITMAP
000000
000100
000100
000200
000200
000400
000400
000800
000800
000400
000400
000200
000200
000100
000100
000000
ENDCHAR
STARTCHAR 3009
ENCODING 12297
SWIDTH 520 0
DWIDTH 18 0
BBX 18 16 0 -3
BITMAP
000000
200000
200000
100000
100000
080000
080000
040000
040000
080000
080000
100000
100000
200000
200000
000000
ENDCHAR
STARTCHAR 300A
ENCODING 12298
SWIDTH 520 0
DWIDTH 18 0
BBX 18 16 0 -3
BITMAP
000000
000500
000500
000a00
000a00
001400
001400
002800
002800
001400
001400
000a00
000a00
000500
000500
000000
ENDCHAR
STARTCHAR 300B
ENCODING 12299
SWIDTH 520 0
DWIDTH 18 0
BBX 18 16 0 -3
BITMAP
000000
280000
280000
140000
140000
0a0000
0a0000
050000
050000
0a0000
0a0000
140000
140000
280000
280000
000000
ENDCHAR
STARTCHAR 300C
ENCODING 12300
SWIDTH 520 0
DWIDTH 18 0
BBX 18 16 0 -3
BITMAP
001f00
001000
001000
001000
001000
001000
001000
001000
001000
001000
001000
001000
001000
001000
001000
001000
ENDCHAR
STARTCHAR 300D
ENCODING 12301
SWIDTH 520 0
DWIDTH 18 0
BBX 18 16 0 -3
BITMAP
020000
020000
020000
020000
020000
020000
020000
020000
020000
020000
020000
020000
020000
020000
020000
3e0000
ENDCHAR
STARTCHAR 300E
ENCODING 12302
SWIDTH 520 0
DWIDTH 18 0
BBX 18 16 0 -3
BITMAP
003f00
002100
002f00
002800
002800
002800
002800
002800
002800
002800
002800
002800
002800
002800
002800
003800
ENDCHAR
STARTCHAR 300F
ENCODING 12303
SWIDTH 520 0
DWIDTH 18 0
BBX 18 16 0 -3
BITMAP
070000
050000
050000
050000
050000
050000
050000
050000
050000
050000
050000
050000
050000
3d0000
210000
3f0000
ENDCHAR
STARTCHAR 3010
ENCODING 12304
SWIDTH 520 0
DWIDTH 18 0
BBX 18 16 0 -3
BITMAP
007f00
007e00
007c00
007800
007800
007000
007000
007000
007000
007000
007000
007800
007800
007c00
007e00
007f00
ENDCHAR
STARTCHAR 3011
ENCODING 12305
SWIDTH 520 0
DWIDTH 18 0
BBX 18 16 0 -3
BITMAP
3f8000
1f8000
0f8000
078000
078000
038000
038000
038000
038000
038000
038000
078000
078000
0f8000
1f8000
3f8000
ENDCHAR
STARTCHAR 3013
ENCODING 12307
SWIDTH 520 0
DWIDTH 18 0
BBX 18 16 0 -3
BITMAP
000000
7fff80
7fff80
7fff80
7fff80
7fff80
000000
000000
000000
000000
7fff80
7fff80
7fff80
7fff80
7fff80
000000
ENDCHAR
STARTCHAR 3014
ENCODING 12308
SWIDTH 520 0
DWIDTH 18 0
BBX 18 16 0 -3
BITMAP
000000
000200
000400
000800
000800
000800
000800
000800
000800
000800
000800
000800
000800
000400
000200
000000
ENDCHAR
STARTCHAR 3015
ENCODING 12309
SWIDTH 520 0
DWIDTH 18 0
BBX 18 16 0 -3
BITMAP
000000
100000
080000
040000
040000
040000
040000
040000
040000
040000
040000
040000
040000
080000
100000
000000
ENDCHAR
STARTCHAR 3016
ENCODING 12310
SWIDTH 520 0
DWIDTH 18 0
BBX 18 16 0 -3
BITMAP
00ff00
008200
008400
008800
008800
009000
009000
009000
009000
009000
009000
008800
008800
008400
008200
00ff00
ENDCHAR
STARTCHAR 3017
ENCODING 12311
SWIDTH 520 0
DWIDTH 18 0
BBX 18 16 0 -3
BITMAP
3fc000
104000
084000
044000
044000
024000
024000
024000
024000
024000
024000
044000
044000
084000
104000
3fc000
ENDCHAR
STARTCHAR 30A3
ENCODING 12451
SWIDTH 520 0
DWIDTH 18 0
BBX 18 16 0 -3
BITMAP
000000
002000
002000
004000
008000
018000
028000
048000
008000
008000
008000
000000
000000
000000
000000
000000
ENDCHAR
STARTCHAR 30A4
ENCODING 12452
SWIDTH 520 0
DWIDTH 18 0
BBX 18 16 0 -3
BITMAP
000000
001000
001000
002000
004000
00c000
014000
024000
044000
004000
004000
004000
004000
000000
000000
000000
ENDCHAR
STARTCHAR 30A5
ENCODING 12453
SWIDTH 520 0
DWIDTH 18 0
BBX 18 16 0 -3
BITMAP
000000
008000
004000
027800
038800
021000
021000
002000
002000
004000
008000
000000
000000
000000
000000
000000
ENDCHAR
STARTCHAR 30A6
ENCODING 12454
SWIDTH 520 0
DWIDTH 18 0
BBX 18 16 0 -3
BITMAP
000000
008000
004000
004000
047800
078800
040800
041000
001000
002000
004000
008000
000000
000000
000000
000000
ENDCHAR
STARTCHAR 30A7
ENCODING 12455
SWIDTH 520 0
DWIDTH 18 0
BBX 18 16 0 -3
BITMAP
000000
000000
003000
03c000
008000
008000
00f800
0f0000
000000
000000
000000
000000
000000
000000
000000
000000
ENDCHAR
STARTCHAR 30A8
ENCODING 12456
SWIDTH 520 0
DWIDTH 18 0
BBX 18 16 0 -3
BITMAP
000000
000000
003000
07c000
008000
008000
008000
00fc00
1f0000
000000
000000
000000
000000
000000
000000
000000
ENDCHAR
STARTCHAR 30A9
ENCODING 12457
SWIDTH 520 0
DWIDTH 18 0
BBX 18 16 0 -3
BITMAP
000000
000000
004000
004000
007800
07c000
00c000
014000
024000
04c000
004000
000000
000000
000000
000000
000000
ENDCHAR
STARTCHAR 30AA
ENCODING 12458
SWIDTH 520 0
DWIDTH 18 0
BBX 18 16 0 -3
BITMAP
000000
004000
004000
004000
007c00
0fc000
004000
00c000
014000
024000
044000
00c000
004000
000000
000000
000000
ENDCHAR
STARTCHAR 30AB
ENCODING 12459
SWIDTH 520 0
DWIDTH 18 0
BBX 18 16 0 -3
BITMAP
000000
004000
004000
004000
007800
07c800
008800
008800
011000
021000
04a000
084000
000000
000000
000000
000000
ENDCHAR
STARTCHAR 30AC
ENCODING 12460
SWIDTH 520 0
DWIDTH 18 0
BBX 18 16 0 -3
BITMAP
000000
000400
005200
004800
004000
00f800
078800
008800
010800
011000
021000
04a000
084000
000000
000000
000000
ENDCHAR
STARTCHAR 30AD
ENCODING 12461
SWIDTH 520 0
DWIDTH 18 0
BBX 18 16 0 -3
BITMAP
000000
010000
010000
00b000
01c000
068000
007800
01c000
0e4000
004000
002000
002000
002000
000000
000000
000000
ENDCHAR
STARTCHAR 30AE
ENCODING 12462
SWIDTH 520 0
DWIDTH 18 0
BBX 18 16 0 -3
BITMAP
010400
011200
010800
01e000
068000
00b800
01c000
0e4000
004000
004000
002000
002000
000000
000000
000000
000000
ENDCHAR
STARTCHAR 30AF
ENCODING 12463
SWIDTH 520 0
DWIDTH 18 0
BBX 18 16 0 -3
BITMAP
000000
010000
011000
01f800
021000
021000
042000
002000
004000
008000
010000
020000
040000
000000
000000
000000
ENDCHAR
STARTCHAR 30B0
ENCODING 12464
SWIDTH 520 0
DWIDTH 18 0
BBX 18 16 0 -3
BITMAP
000000
010400
010a00
01f400
021000
022000
042000
004000
008000
010000
020000
0c0000
000000
000000
000000
000000
ENDCHAR
STARTCHAR 30B1
ENCODING 12465
SWIDTH 520 0
DWIDTH 18 0
BBX 18 16 0 -3
BITMAP
000000
010000
010000
010000
021800
03e000
042000
084000
004000
008000
010000
060000
000000
000000
000000
000000
ENDCHAR
STARTCHAR 30B2
ENCODING 12466
SWIDTH 520 0
DWIDTH 18 0
BBX 18 16 0 -3
BITMAP
000400
020a00
020400
023800
03e000
042000
082000
004000
004000
008000
010000
020000
040000
000000
000000
000000
ENDCHAR
STARTCHAR 30B3
ENCODING 12467
SWIDTH 520 0
DWIDTH 18 0
BBX 18 16 0 -3
BITMAP
000000
000000
000000
047800
038800
001000
001000
002000
002000
07f000
000000
000000
000000
000000
000000
000000
ENDCHAR
STARTCHAR 30B4
ENCODING 12468
SWIDTH 520 0
DWIDTH 18 0
BBX 18 16 0 -3
BITMAP
000000
000200
000900
000400
04f000
031000
001000
001000
001000
00f000
070000
000000
000000
000000
000000
000000
ENDCHAR
STARTCHAR 30B5
ENCODING 12469
SWIDTH 520 0
DWIDTH 18 0
BBX 18 16 0 -3
BITMAP
000000
002000
022000
022000
023e00
1fe000
022000
022000
022000
002000
002000
004000
008000
000000
000000
000000
ENDCHAR
STARTCHAR 30B6
ENCODING 12470
SWIDTH 520 0
DWIDTH 18 0
BBX 18 16 0 -3
BITMAP
000000
002a00
022500
022000
022000
03fe00
1e2000
022000
022000
002000
004000
004000
008000
000000
000000
000000
ENDCHAR
STARTCHAR 30B7
ENCODING 12471
SWIDTH 520 0
DWIDTH 18 0
BBX 18 16 0 -3
BITMAP
000000
010000
008000
004000
040400
020800
011000
002000
004000
048000
030000
000000
000000
000000
000000
000000
ENDCHAR
STARTCHAR 30B8
ENCODING 12472
SWIDTH 520 0
DWIDTH 18 0
BBX 18 16 0 -3
BITMAP
000000
000000
000200
000900
030400
008000
060200
010400
000800
001000
002000
024000
018000
000000
000000
000000
ENDCHAR
STARTCHAR 30B9
ENCODING 12473
SWIDTH 520 0
DWIDTH 18 0
BBX 18 16 0 -3
BITMAP
000000
000000
007000
039000
002000
002000
004000
00b000
010800
020400
040000
000000
000000
000000
000000
000000
ENDCHAR
STARTCHAR 30BA
ENCODING 12474
SWIDTH 520 0
DWIDTH 18 0
BBX 18 16 0 -3
BITMAP
000000
000400
001200
000800
00e000
072000
004000
004000
00c000
012000
021000
0c0800
000000
000000
000000
000000
ENDCHAR
STARTCHAR 30BB
ENCODING 12475
SWIDTH 520 0
DWIDTH 18 0
BBX 18 16 0 -3
BITMAP
000000
010000
008000
008000
00b800
01c800
1e9000
008000
008000
008000
008400
007800
000000
000000
000000
000000
ENDCHAR
STARTCHAR 30BC
ENCODING 12476
SWIDTH 520 0
DWIDTH 18 0
BBX 18 16 0 -3
BITMAP
000000
000400
011200
010800
010000
013800
03c800
1d1000
010000
010000
010000
00fc00
000000
000000
000000
000000
ENDCHAR
STARTCHAR 30BD
ENCODING 12477
SWIDTH 520 0
DWIDTH 18 0
BBX 18 16 0 -3
BITMAP
000000
000800
060c00
010800
001000
001000
002000
004000
008000
010000
060000
000000
000000
000000
000000
000000
ENDCHAR
STARTCHAR 30BE
ENCODING 12478
SWIDTH 520 0
DWIDTH 18 0
BBX 18 16 0 -3
BITMAP
000200
000500
081200
041800
021000
001000
001000
002000
004000
008000
010000
060000
000000
000000
000000
000000
ENDCHAR
STARTCHAR 30BF
ENCODING 12479
SWIDTH 520 0
DWIDTH 18 0
BBX 18 16 0 -3
BITMAP
000000
008000
008000
00f800
010800
011000
031000
04a000
004000
008000
010000
020000
0c0000
000000
000000
000000
ENDCHAR
STARTCHAR 30C0
ENCODING 12480
SWIDTH 520 0
DWIDTH 18 0
BBX 18 16 0 -3
BITMAP
000000
000400
009200
008800
00f000
011000
022000
062000
014000
008000
010000
020000
0c0000
000000
000000
000000
ENDCHAR
STARTCHAR 30C1
ENCODING 12481
SWIDTH 520 0
DWIDTH 18 0
BBX 18 16 0 -3
BITMAP
000000
003000
004000
03c000
004000
007e00
0fc000
004000
004000
008000
008000
010000
020000
000000
000000
000000
ENDCHAR
STARTCHAR 30C2
ENCODING 12482
SWIDTH 520 0
DWIDTH 18 0
BBX 18 16 0 -3
BITMAP
000000
002200
004900
038400
008000
00fc00
0f8000
008000
008000
008000
010000
020000
040000
000000
000000
000000
ENDCHAR
STARTCHAR 30C3
ENCODING 12483
SWIDTH 520 0
DWIDTH 18 0
BBX 18 16 0 -3
BITMAP
000000
010000
049000
021000
002000
002000
004000
008000
030000
000000
000000
000000
000000
000000
000000
000000
ENDCHAR
STARTCHAR 30C4
ENCODING 12484
SWIDTH 520 0
DWIDTH 18 0
BBX 18 16 0 -3
BITMAP
000000
010800
048800
020800
001000
001000
002000
004000
008000
030000
000000
000000
000000
000000
000000
000000
ENDCHAR
STARTCHAR 30C5
ENCODING 12485
SWIDTH 520 0
DWIDTH 18 0
BBX 18 16 0 -3
BITMAP
000200
000500
000200
008800
044800
020800
001000
001000
002000
004000
008000
030000
000000
000000
000000
000000
ENDCHAR
STARTCHAR 30C6
ENCODING 12486
SWIDTH 520 0
DWIDTH 18 0
BBX 18 16 0 -3
BITMAP
000000
003800
03c000
000000
003c00
0fc000
004000
004000
004000
008000
010000
020000
040000
000000
000000
000000
ENDCHAR
STARTCHAR 30C7
ENCODING 12487
SWIDTH 520 0
DWIDTH 18 0
BBX 18 16 0 -3
BITMAP
000000
003100
03c480
000200
000000
007c00
0fc000
004000
004000
008000
008000
010000
060000
000000
000000
000000
ENDCHAR
STARTCHAR 30C8
ENCODING 12488
SWIDTH 520 0
DWIDTH 18 0
BBX 18 16 0 -3
BITMAP
000000
010000
010000
010000
010000
01c000
012000
011000
010000
010000
010000
010000
010000
000000
000000
000000
ENDCHAR
STARTCHAR 30C9
ENCODING 12489
SWIDTH 520 0
DWIDTH 18 0
BBX 18 16 0 -3
BITMAP
000000
000400
009200
008800
008000
008000
00e000
009000
008800
008000
008000
008000
008000
000000
000000
000000
ENDCHAR
STARTCHAR 30CA
ENCODING 12490
SWIDTH 520 0
DWIDTH 18 0
BBX 18 16 0 -3
BITMAP
000000
008000
008000
008000
00fc00
0f8000
008000
008000
008000
008000
008000
010000
020000
040000
000000
000000
ENDCHAR
STARTCHAR 30CB
ENCODING 12491
SWIDTH 520 0
DWIDTH 18 0
BBX 18 16 0 -3
BITMAP
000000
000000
007000
078000
000000
000000
000000
007c00
0f8000
000000
000000
000000
000000
000000
000000
000000
ENDCHAR
STARTCHAR 30CC
ENCODING 12492
SWIDTH 520 0
DWIDTH 18 0
BBX 18 16 0 -3
BITMAP
000000
000000
007000
079000
001000
002000
01a000
004000
00a000
011000
060800
000000
000000
000000
000000
000000
ENDCHAR
STARTCHAR 30CD
ENCODING 12493
SWIDTH 520 0
DWIDTH 18 0
BBX 18 16 0 -3
BITMAP
008000
006000
002000
000000
00e000
072000
004000
00d000
014c00
024400
044000
004000
004000
004000
000000
000000
ENDCHAR
STARTCHAR 30CE
ENCODING 12494
SWIDTH 520 0
DWIDTH 18 0
BBX 18 16 0 -3
BITMAP
000000
002000
002000
002000
002000
004000
004000
008000
010000
020000
0c0000
000000
000000
000000
000000
000000
ENDCHAR
STARTCHAR 30CF
ENCODING 12495
SWIDTH 520 0
DWIDTH 18 0
BBX 18 16 0 -3
BITMAP
000000
000000
000000
021000
020800
020800
040400
040400
080400
100000
000000
000000
000000
000000
000000
000000
ENDCHAR
STARTCHAR 30D0
ENCODING 12496
SWIDTH 520 0
DWIDTH 18 0
BBX 18 16 0 -3
BITMAP
000000
000200
000900
022400
021000
020800
040800
040400
080400
100000
000000
000000
000000
000000
000000
000000
ENDCHAR
STARTCHAR 30D1
ENCODING 12497
SWIDTH 520 0
DWIDTH 18 0
BBX 18 16 0 -3
BITMAP
000000
000600
000900
020900
021600
020800
020800
040400
040400
080400
100000
000000
000000
000000
000000
000000
ENDCHAR
STARTCHAR 30D2
ENCODING 12498
SWIDTH 520 0
DWIDTH 18 0
BBX 18 16 0 -3
BITMAP
000000
020000
020000
021000
026000
038000
020000
020000
020000
01f800
000000
000000
000000
000000
000000
000000
ENDCHAR
STARTCHAR 30D3
ENCODING 12499
SWIDTH 520 0
DWIDTH 18 0
BBX 18 16 0 -3
BITMAP
000000
000800
022400
021000
020000
027000
038000
020000
020000
020000
01f800
000000
000000
000000
000000
000000
ENDCHAR
STARTCHAR 30D4
ENCODING 12500
SWIDTH 520 0
DWIDTH 18 0
BBX 18 16 0 -3
BITMAP
000c00
001200
021200
020c00
021000
026000
038000
020000
020000
020000
01f800
000000
000000
000000
000000
000000
ENDCHAR
STARTCHAR 30D5
ENCODING 12501
SWIDTH 520 0
DWIDTH 18 0
BBX 18 16 0 -3
BITMAP
000000
000000
08f800
070800
001000
001000
002000
004000
008000
010000
060000
000000
000000
000000
000000
000000
ENDCHAR
STARTCHAR 30D6
ENCODING 12502
SWIDTH 520 0
DWIDTH 18 0
BBX 18 16 0 -3
BITMAP
000000
000a00
000500
007000
0f9000
001000
001000
002000
002000
004000
008000
030000
000000
000000
000000
000000
ENDCHAR
STARTCHAR 30D7
ENCODING 12503
SWIDTH 520 0
DWIDTH 18 0
BBX 18 16 0 -3
BITMAP
000600
000900
000900
00f600
0f1000
001000
002000
002000
004000
008000
010000
060000
000000
000000
000000
000000
ENDCHAR
STARTCHAR 30D8
ENCODING 12504
SWIDTH 520 0
DWIDTH 18 0
BBX 18 16 0 -3
BITMAP
000000
000000
030000
248000
184000
003000
000e00
000000
000000
000000
000000
000000
000000
000000
000000
000000
ENDCHAR
STARTCHAR 30D9
ENCODING 12505
SWIDTH 520 0
DWIDTH 18 0
BBX 18 16 0 -3
BITMAP
000000
000400
001200
030800
048000
284000
102000
001800
000400
000000
000000
000000
000000
000000
000000
000000
ENDCHAR
STARTCHAR 30DA
ENCODING 12506
SWIDTH 520 0
DWIDTH 18 0
BBX 18 16 0 -3
BITMAP
000000
000c00
031200
049200
284c00
182000
001000
000c00
000000
000000
000000
000000
000000
000000
000000
000000
ENDCHAR
STARTCHAR 30DB
ENCODING 12507
SWIDTH 520 0
DWIDTH 18 0
BBX 18 16 0 -3
BITMAP
000000
004000
004000
004000
007c00
07c000
005000
024800
044400
084400
00c000
000000
000000
000000
000000
000000
ENDCHAR
STARTCHAR 30DC
ENCODING 12508
SWIDTH 520 0
DWIDTH 18 0
BBX 18 16 0 -3
BITMAP
000000
011400
008a00
008000
08fc00
078000
008000
049000
048800
088400
118000
000000
000000
000000
000000
000000
ENDCHAR
STARTCHAR 30DD
ENCODING 12509
SWIDTH 520 0
DWIDTH 18 0
BBX 18 16 0 -3
BITMAP
000600
010900
008900
008600
08f800
078000
008000
049000
048800
088400
018000
008000
000000
000000
000000
000000
ENDCHAR
STARTCHAR 30DE
ENCODING 12510
SWIDTH 520 0
DWIDTH 18 0
BBX 18 16 0 -3
BITMAP
000000
000000
000000
007c00
0f8800
001000
012000
00c000
004000
002000
002000
000000
000000
000000
000000
000000
ENDCHAR
STARTCHAR 30DF
ENCODING 12511
SWIDTH 520 0
DWIDTH 18 0
BBX 18 16 0 -3
BITMAP
000000
01c000
003000
001000
000000
01c000
003000
001000
030000
00c000
003000
001000
000000
000000
000000
000000
ENDCHAR
STARTCHAR 30E0
ENCODING 12512
SWIDTH 520 0
DWIDTH 18 0
BBX 18 16 0 -3
BITMAP
000000
008000
00c000
008000
008000
010000
011000
020800
027c00
0f8400
040000
000000
000000
000000
000000
000000
ENDCHAR
STARTCHAR 30E1
ENCODING 12513
SWIDTH 520 0
DWIDTH 18 0
BBX 18 16 0 -3
BITMAP
000000
001000
001000
001000
011000
00a000
006000
005000
009000
011000
020000
0c0000
000000
000000
000000
000000
ENDCHAR
STARTCHAR 30E2
ENCODING 12514
SWIDTH 520 0
DWIDTH 18 0
BBX 18 16 0 -3
BITMAP
000000
007800
078000
008000
008000
00fc00
1f8000
008000
008000
008000
007c00
000000
000000
000000
000000
000000
ENDCHAR
STARTCHAR 30E3
ENCODING 12515
SWIDTH 520 0
DWIDTH 18 0
BBX 18 16 0 -3
BITMAP
000000
000000
020000
013800
00d000
07a000
008000
004000
004000
002000
002000
000000
000000
000000
000000
000000
ENDCHAR
STARTCHAR 30E4
ENCODING 12516
SWIDTH 520 0
DWIDTH 18 0
BBX 18 16 0 -3
BITMAP
000000
060000
020000
011c00
016800
039000
0c8000
004000
004000
002000
002000
001000
000000
000000
000000
000000
ENDCHAR
STARTCHAR 30E5
ENCODING 12517
SWIDTH 520 0
DWIDTH 18 0
BBX 18 16 0 -3
BITMAP
000000
000000
007000
039000
002000
002000
003c00
0fc000
000000
000000
000000
000000
000000
000000
000000
000000
ENDCHAR
STARTCHAR 30E6
ENCODING 12518
SWIDTH 520 0
DWIDTH 18 0
BBX 18 16 0 -3
BITMAP
000000
000000
007800
078800
001000
001000
002000
002000
007e00
1f8000
000000
000000
000000
000000
000000
000000
ENDCHAR
STARTCHAR 30E7
ENCODING 12519
SWIDTH 520 0
DWIDTH 18 0
BBX 18 16 0 -3
BITMAP
000000
000000
03f000
001000
001000
03e000
002000
002000
07e000
000000
000000
000000
000000
000000
000000
000000
ENDCHAR
STARTCHAR 30E8
ENCODING 12520
SWIDTH 520 0
DWIDTH 18 0
BBX 18 16 0 -3
BITMAP
000000
000000
007800
0f8800
001000
001000
00f000
071000
001000
00f000
0f0000
000000
000000
000000
000000
000000
ENDCHAR
STARTCHAR 30E9
ENCODING 12521
SWIDTH 520 0
DWIDTH 18 0
BBX 18 16 0 -3
BITMAP
000000
007000
038000
000000
003800
07c800
000800
001000
001000
002000
004000
008000
030000
000000
000000
000000
ENDCHAR
STARTCHAR 30EA
ENCODING 12522
SWIDTH 520 0
DWIDTH 18 0
BBX 18 16 0 -3
BITMAP
000000
002000
042000
022000
022000
022000
022000
022000
022000
002000
002000
004000
008000
010000
000000
000000
ENDCHAR
STARTCHAR 30EB
ENCODING 12523
SWIDTH 520 0
DWIDTH 18 0
BBX 18 16 0 -3
BITMAP
000000
004000
004000
024000
024000
024000
024400
024800
025000
046000
080000
100000
000000
000000
000000
000000
ENDCHAR
STARTCHAR 30EC
ENCODING 12524
SWIDTH 520 0
DWIDTH 18 0
BBX 18 16 0 -3
BITMAP
000000
000000
020000
020000
020000
020400
020800
021000
022000
02c000
030000
000000
000000
000000
000000
000000
ENDCHAR
STARTCHAR 30ED
ENCODING 12525
SWIDTH 520 0
DWIDTH 18 0
BBX 18 16 0 -3
BITMAP
000000
000000
003800
07c800
020800
020800
020800
020800
023800
03c000
000000
000000
000000
000000
000000
000000
ENDCHAR
STARTCHAR 30EE
ENCODING 12526
SWIDTH 520 0
DWIDTH 18 0
BBX 18 16 0 -3
BITMAP
000000
000000
003800
03c800
020800
021000
021000
002000
004000
008000
030000
000000
000000
000000
000000
000000
ENDCHAR
STARTCHAR 30EF
ENCODING 12527
SWIDTH 520 0
DWIDTH 18 0
BBX 18 16 0 -3
BITMAP
000000
083800
07c800
040800
041000
041000
041000
002000
002000
004000
008000
030000
000000
000000
000000
000000
ENDCHAR
STARTCHAR 30F0
ENCODING 12528
SWIDTH 520 0
DWIDTH 18 0
BBX 18 16 0 -3
BITMAP
002000
002000
002000
003800
07e000
012000
013c00
01e000
0e2000
002000
002000
002000
002000
000000
000000
000000
ENDCHAR
STARTCHAR 30F1
ENCODING 12529
SWIDTH 520 0
DWIDTH 18 0
BBX 18 16 0 -3
BITMAP
000000
000000
00f000
071000
002000
00c000
008000
008000
00fe00
1f0000
000000
000000
000000
000000
000000
000000
ENDCHAR
STARTCHAR 30F2
ENCODING 12530
SWIDTH 520 0
DWIDTH 18 0
BBX 18 16 0 -3
BITMAP
000000
007800
078800
000800
001000
00f000
071000
002000
002000
004000
008000
010000
020000
000000
000000
000000
ENDCHAR
STARTCHAR 30F3
ENCODING 12531
SWIDTH 520 0
DWIDTH 18 0
BBX 18 16 0 -3
BITMAP
000000
020000
010000
008200
000400
000800
001000
002000
04c000
030000
000000
000000
000000
000000
000000
000000
ENDCHAR
STARTCHAR 30F4
ENCODING 12532
SWIDTH 520 0
DWIDTH 18 0
BBX 18 16 0 -3
BITMAP
010400
008a00
008400
08f000
0f1000
081000
081000
082000
002000
004000
008000
010000
060000
000000
000000
000000
ENDCHAR
STARTCHAR 30F5
ENCODING 12533
SWIDTH 520 0
DWIDTH 18 0
BBX 18 16 0 -3
BITMAP
000000
004000
004000
004000
07f000
009000
009000
011000
021000
046000
000000
000000
000000
000000
000000
000000
ENDCHAR
STARTCHAR 30F6
ENCODING 12534
SWIDTH 520 0
DWIDTH 18 0
BBX 18 16 0 -3
BITMAP
000000
010000
010000
011c00
01e000
022000
042000
004000
008000
010000
020000
000000
000000
000000
000000
000000
ENDCHAR
STARTCHAR 30FB
ENCODING 12539
SWIDTH 520 0
DWIDTH 8 0
BBX 8 16 0 -3
BITMAP
00
00
00
00
00
00
00
00
60
60
00
00
00
00
00
00
ENDCHAR
STARTCHAR 3105
ENCODING 12549
SWIDTH 520 0
DWIDTH 18 0
BBX 18 16 0 -3
BITMAP
000000
020000
020000
020000
043c00
0fc400
180400
000400
000400
000800
000800
000800
001000
009000
006000
000000
ENDCHAR
STARTCHAR 3106
ENCODING 12550
SWIDTH 520 0
DWIDTH 18 0
BBX 18 16 0 -3
BITMAP
010000
010000
010000
020000
047c00
0f8400
000400
000800
018800
005000
002000
005000
008800
030000
0c0000
000000
ENDCHAR
STARTCHAR 3107
ENCODING 12551
SWIDTH 520 0
DWIDTH 18 0
BBX 18 16 0 -3
BITMAP
000000
000000
000000
000000
007c00
1f8400
080400
080400
080400
080800
080800
080800
080800
000000
000000
000000
ENDCHAR
STARTCHAR 3108
ENCODING 12552
SWIDTH 520 0
DWIDTH 18 0
BBX 18 16 0 -3
BITMAP
000000
000000
007c00
1f8000
080000
080000
080000
080000
080000
080000
080000
080000
080000
07ff00
000000
000000
ENDCHAR
STARTCHAR 3109
ENCODING 12553
SWIDTH 520 0
DWIDTH 18 0
BBX 18 16 0 -3
BITMAP
020000
020000
020000
020000
047e00
0fc200
004200
008200
008400
010400
020400
040400
080800
302800
001000
000000
ENDCHAR
STARTCHAR 310A
ENCODING 12554
SWIDTH 520 0
DWIDTH 18 0
BBX 18 16 0 -3
BITMAP
000000
008000
008000
008000
008000
00ff00
3f8000
008000
010000
010000
022000
021000
04f800
0f0c00
000400
000000
ENDCHAR
STARTCHAR 310B
ENCODING 12555
SWIDTH 520 0
DWIDTH 18 0
BBX 18 16 0 -3
BITMAP
000000
00f000
1f1000
002000
004000
008000
01fc00
000400
000400
000400
000800
000800
009000
005000
002000
000000
ENDCHAR
STARTCHAR 310C
ENCODING 12556
SWIDTH 520 0
DWIDTH 18 0
BBX 18 16 0 -3
BITMAP
002000
002000
042000
042000
044000
084e00
1ff200
008200
008200
010200
010400
020400
040400
082800
101000
000000
ENDCHAR
STARTCHAR 310D
ENCODING 12557
SWIDTH 520 0
DWIDTH 18 0
BBX 18 16 0 -3
BITMAP
000000
010800
010800
020800
021000
041000
042000
084000
084000
042000
041000
021000
020800
010800
010800
000000
ENDCHAR
STARTCHAR 310E
ENCODING 12558
SWIDTH 520 0
DWIDTH 18 0
BBX 18 16 0 -3
BITMAP
000000
000000
007f00
3f8000
008000
008000
013800
03c800
000800
000800
000800
000800
001000
009000
006000
000000
ENDCHAR
STARTCHAR 310F
ENCODING 12559
SWIDTH 520 0
DWIDTH 18 0
BBX 18 16 0 -3
BITMAP
000000
000700
1ff800
040000
040000
040000
040000
040000
040000
040000
080000
080000
080000
100000
200000
000000
ENDCHAR
STARTCHAR 3110
ENCODING 12560
SWIDTH 520 0
DWIDTH 18 0
BBX 18 16 0 -3
BITMAP
000000
001000
001000
021000
021000
021000
021000
021000
043000
04d000
071000
001000
001000
001000
001000
000000
ENDCHAR
STARTCHAR 3111
ENCODING 12561
SWIDTH 520 0
DWIDTH 18 0
BBX 18 16 0 -3
BITMAP
000000
000000
008000
008000
008000
010000
010000
020000
040000
020000
010000
008000
004000
002000
002000
000000
ENDCHAR
STARTCHAR 3112
ENCODING 12562
SWIDTH 520 0
DWIDTH 18 0
BBX 18 16 0 -3
BITMAP
000000
000000
007f00
1fc000
004000
004000
004000
004000
004000
004000
004000
004000
004000
004000
004000
000000
ENDCHAR
STARTCHAR 3113
ENCODING 12563
SWIDTH 520 0
DWIDTH 18 0
BBX 18 16 0 -3
BITMAP
000000
004000
004000
004400
084400
084400
084400
084400
087c00
0fc400
004000
004000
004000
007f00
3f8000
000000
ENDCHAR
STARTCHAR 3114
ENCODING 12564
SWIDTH 520 0
DWIDTH 18 0
BBX 18 16 0 -3
BITMAP
002000
002000
004000
008000
011000
022000
0c4000
00c000
014000
024000
0c4000
004000
004000
004000
004000
000000
ENDCHAR
STARTCHAR 3115
ENCODING 12565
SWIDTH 520 0
DWIDTH 18 0
BBX 18 16 0 -3
BITMAP
000000
003800
07c800
000800
000800
047800
078000
040000
040000
040000
040000
080000
080000
100000
200000
000000
ENDCHAR
STARTCHAR 3116
ENCODING 12566
SWIDTH 520 0
DWIDTH 18 0
BBX 18 16 0 -3
BITMAP
000000
000000
00f800
070800
040800
040800
048800
044800
044800
040800
040800
040800
046800
079800
000800
000000
ENDCHAR
STARTCHAR 3117
ENCODING 12567
SWIDTH 520 0
DWIDTH 18 0
BBX 18 16 0 -3
BITMAP
000000
001c00
0fe400
010400
010400
010400
010800
010800
014800
013000
010000
010000
010000
010000
010000
010000
ENDCHAR
STARTCHAR 3118
ENCODING 12568
SWIDTH 520 0
DWIDTH 18 0
BBX 18 16 0 -3
BITMAP
000000
008000
008000
008000
00ff00
3f0000
010000
023800
07c800
000800
000800
001000
001000
002000
004000
008000
ENDCHAR
STARTCHAR 3119
ENCODING 12569
SWIDTH 520 0
DWIDTH 18 0
BBX 18 16 0 -3
BITMAP
000000
004000
004000
004000
008000
008000
010000
010000
020000
020000
040800
080400
107e00
1f8100
000100
000000
ENDCHAR
STARTCHAR 311A
ENCODING 12570
SWIDTH 520 0
DWIDTH 18 0
BBX 18 16 0 -3
BITMAP
000000
000800
080800
041000
022000
014000
008000
008000
008000
008000
008000
008000
008000
008000
008000
000000
ENDCHAR
STARTCHAR 311B
ENCODING 12571
SWIDTH 520 0
DWIDTH 18 0
BBX 18 16 0 -3
BITMAP
000000
000000
007e00
3fc000
004000
004000
004000
07c000
080000
100000
100000
100000
080000
040c00
03f000
000000
ENDCHAR
STARTCHAR 311C
ENCODING 12572
SWIDTH 520 0
DWIDTH 18 0
BBX 18 16 0 -3
BITMAP
008000
004000
004000
004000
007f00
3fc000
004000
004000
07c000
080000
080000
080000
080000
040600
03f800
000000
ENDCHAR
STARTCHAR 311D
ENCODING 12573
SWIDTH 520 0
DWIDTH 18 0
BBX 18 16 0 -3
BITMAP
000000
041000
041000
041000
041000
041f00
07f000
7c1000
041000
042000
042000
044000
020000
010600
00f800
000000
ENDCHAR
STARTCHAR 311E
ENCODING 12574
SWIDTH 520 0
DWIDTH 18 0
BBX 18 16 0 -3
BITMAP
000000
007f00
3fc000
084000
084000
084000
107e00
1fc200
008200
008400
008400
010400
020800
040800
181000
000000
ENDCHAR
STARTCHAR 311F
ENCODING 12575
SWIDTH 520 0
DWIDTH 18 0
BBX 18 16 0 -3
BITMAP
000000
000000
038000
1c8000
008000
008000
008000
008000
008000
004000
004000
002000
001000
000800
000700
000000
ENDCHAR
STARTCHAR 3120
ENCODING 12576
SWIDTH 520 0
DWIDTH 18 0
BBX 18 16 0 -3
BITMAP
008000
008000
008000
010000
010000
020800
040800
081000
0fe000
004000
008000
010800
020400
0ffe00
000200
000000
ENDCHAR
STARTCHAR 3121
ENCODING 12577
SWIDTH 520 0
DWIDTH 18 0
BBX 18 16 0 -3
BITMAP
000000
000000
00f800
1f0800
000800
001000
061000
012000
00a000
004000
00a000
011000
020800
040000
180000
000000
ENDCHAR
STARTCHAR 3122
ENCODING 12578
SWIDTH 520 0
DWIDTH 18 0
BBX 18 16 0 -3
BITMAP
000000
00f800
1f0800
000800
041000
041000
042000
081e00
0fe200
000200
000400
000400
000800
001000
002000
000000
ENDCHAR
STARTCHAR 3123
ENCODING 12579
SWIDTH 520 0
DWIDTH 18 0
BBX 18 16 0 -3
BITMAP
000000
080000
080000
080000
080000
080000
100000
100000
11fe00
1e0200
000200
000200
000400
000400
000800
000000
ENDCHAR
STARTCHAR 3124
ENCODING 12580
SWIDTH 520 0
DWIDTH 18 0
BBX 18 16 0 -3
BITMAP
000000
008000
008000
008000
009e00
3fe000
00a000
00a000
012000
012000
022000
022000
042000
082000
301f00
000000
ENDCHAR
STARTCHAR 3125
ENCODING 12581
SWIDTH 520 0
DWIDTH 18 0
BBX 18 16 0 -3
BITMAP
000000
008000
008000
008000
010000
010000
020000
020000
040000
040000
080000
080000
100000
3ffe00
000000
000000
ENDCHAR
STARTCHAR 3126
ENCODING 12582
SWIDTH 520 0
DWIDTH 18 0
BBX 18 16 0 -3
BITMAP
000000
002000
022000
022000
022000
022000
022000
022000
022000
022000
042000
042000
082100
101100
200f00
000000
ENDCHAR
STARTCHAR 3127
ENCODING 12583
SWIDTH 520 0
DWIDTH 18 0
BBX 18 16 0 -3
BITMAP
000000
008000
008000
008000
008000
008000
008000
008000
008000
008000
008000
008000
008000
008000
008000
000000
ENDCHAR
STARTCHAR 3128
ENCODING 12584
SWIDTH 520 0
DWIDTH 18 0
BBX 18 16 0 -3
BITMAP
000000
000400
000400
000400
060800
010800
009000
005000
002000
005000
008800
010400
060400
180000
000000
000000
ENDCHAR
STARTCHAR 3129
ENCODING 12585
SWIDTH 520 0
DWIDTH 18 0
BBX 18 16 0 -3
BITMAP
000000
000000
000000
000400
080400
080400
080400
080400
080400
100400
100400
107c00
1f8400
000000
000000
000000
ENDCHAR
STARTCHAR 3220
ENCODING 12832
SWIDTH 520 0
DWIDTH 18 0
BBX 18 16 0 -3
BITMAP
000000
080400
100200
200100
200100
400080
400880
4ffc80
400080
400080
400080
200100
200100
100200
080400
000000
ENDCHAR
STARTCHAR 3221
ENCODING 12833
SWIDTH 520 0
DWIDTH 18 0
BBX 18 16 0 -3
BITMAP
000000
080400
100200
201100
27f900
400080
400080
400080
400080
400080
400880
2ffd00
200100
100200
080400
000000
ENDCHAR
STARTCHAR 3222
ENCODING 12834
SWIDTH 520 0
DWIDTH 18 0
BBX 18 16 0 -3
BITMAP
000000
080400
100200
201100
27f900
400080
400080
402080
43f080
400080
400080
200900
2ffd00
100200
080400
000000
ENDCHAR
STARTCHAR 3223
ENCODING 12835
SWIDTH 520 0
DWIDTH 18 0
BBX 18 16 0 -3
BITMAP
000000
080400
100200
27fd00
252500
452480
452480
452480
452480
461c80
440480
27fd00
240500
100200
080400
000000
ENDCHAR
STARTCHAR 3224
ENCODING 12836
SWIDTH 520 0
DWIDTH 18 0
BBX 18 16 0 -3
BITMAP
000000
080400
100200
27f900
208100
408080
408080
43f080
409080
409080
411080
211100
2ffd00
100200
080400
000000
ENDCHAR
STARTCHAR 3225
ENCODING 12837
SWIDTH 520 0
DWIDTH 18 0
BBX 18 16 0 -3
BITMAP
000000
080400
108200
204100
204100
4ffc80
400080
400080
412080
411080
420880
240500
280500
100200
080400
000000
ENDCHAR
STARTCHAR 3226
ENCODING 12838
SWIDTH 520 0
DWIDTH 18 0
BBX 18 16 0 -3
BITMAP
000000
080400
108200
208100
208100
408c80
40f080
4f8080
408080
408080
408480
208500
207d00
100200
080400
000000
ENDCHAR
STARTCHAR 3227
ENCODING 12839
SWIDTH 520 0
DWIDTH 18 0
BBX 18 16 0 -3
BITMAP
000000
080400
100200
20e100
212100
412080
412080
412080
412080
421080
421080
240900
280500
100200
080400
000000
ENDCHAR
STARTCHAR 3228
ENCODING 12840
SWIDTH 520 0
DWIDTH 18 0
BBX 18 16 0 -3
BITMAP
000000
080400
108200
208100
209100
47f880
409080
409080
409080
411080
411480
221500
241d00
100200
080400
000000
ENDCHAR
STARTCHAR 3229
ENCODING 12841
SWIDTH 520 0
DWIDTH 18 0
BBX 18 16 0 -3
BITMAP
000000
080400
104200
204100
204100
404080
404480
4ffe80
404080
404080
404080
204100
204100
100200
080400
000000
ENDCHAR
STARTCHAR 4E00
ENCODING 19968
SWIDTH 520 0
DWIDTH 18 0
BBX 18 16 0 -3
BITMAP
000000
000000
000000
000000
000000
000000
000000
7fff80
7fff80
000000
000000
000000
000000
000000
000000
000000
ENDCHAR
STARTCHAR 4E01
ENCODING 19969
SWIDTH 520 0
DWIDTH 18 0
BBX 18 16 0 -3
BITMAP
000000
3fff00
3fff00
00c000
00c000
00c000
00c000
00c000
00c000
00c000
00c000
00c000
00c000
00c000
03c000
038000
ENDCHAR
STARTCHAR 4E03
ENCODING 19971
SWIDTH 520 0
DWIDTH 18 0
BBX 18 16 0 -3
BITMAP
000000
018000
018000
018000
018300
019f00
01fc00
7fe000
7f8000
018000
018000
018000
018300
018300
01ff00
00fe00
ENDCHAR
STARTCHAR 4E07
ENCODING 19975
SWIDTH 520 0
DWIDTH 18 0
BBX 18 16 0 -3
BITMAP
000000
7fff80
7fff80
030000
030000
030000
03fc00
07fc00
060c00
060c00
0c0c00
0c0c00
180c00
380c00
703c00
203800
ENDCHAR
STARTCHAR 4E08
ENCODING 19976
SWIDTH 520 0
DWIDTH 18 0
BBX 18 16 0 -3
BITMAP
006000
006000
006000
7fff80
7fff80
006000
066000
066000
066000
036000
01c000
00c000
01f000
07bc00
3e0f80
180300
ENDCHAR
STARTCHAR 4E09
ENCODING 19977
SWIDTH 520 0
DWIDTH 18 0
BBX 18 16 0 -3
BITMAP
000000
000000
1ffe00
1ffe00
000000
000000
000000
0ffc00
0ffc00
000000
000000
000000
000000
7fff80
7fff80
000000
ENDCHAR
STARTCHAR 4E0A
ENCODING 19978
SWIDTH 520 0
DWIDTH 18 0
BBX 18 16 0 -3
BITMAP
018000
018000
018000
018000
018000
01fe00
01fe00
018000
018000
018000
018000
018000
018000
7fff80
7fff80
000000
ENDCHAR
STARTCHAR 4E0B
ENCODING 19979
SWIDTH 520 0
DWIDTH 18 0
BBX 18 16 0 -3
BITMAP
000000
7fff80
7fff80
00c000
00c000
00d000
00f800
00dc00
00ce00
00c700
00c200
00c000
00c000
00c000
00c000
00c000
ENDCHAR
STARTCHAR 4E0C
ENCODING 19980
SWIDTH 520 0
DWIDTH 18 0
BBX 18 16 0 -3
BITMAP
000000
7fff80
7fff80
031800
031800
031800
031800
031800
031800
031800
061800
061800
0c1800
1c1800
381800
101800
ENDCHAR
STARTCHAR 4E0D
ENCODING 19981
SWIDTH 520 0
DWIDTH 18 0
BBX 18 16 0 -3
BITMAP
000000
7fff80
7fff80
006000
00c000
01c000
03c800
07dc00
0ece00
1cc700
78c380
30c100
00c000
00c000
00c000
00c000
ENDCHAR
STARTCHAR 4E0E
ENCODING 19982
SWIDTH 520 0
DWIDTH 18 0
BBX 18 16 0 -3
BITMAP
0c0000
0c0000
0fff00
0fff00
0c0000
0c0000
0ffe00
0ffe00
000600
000600
3ff600
3ff600
000600
000600
001e00
001c00
ENDCHAR
STARTCHAR 4E10
ENCODING 19984
SWIDTH 520 0
DWIDTH 18 0
BBX 18 16 0 -3
BITMAP
000000
7fff80
7fff80
00c000
18c000
18fe00
18fe00
18c000
18c000
1fff00
1fff00
000300
000300
000300
001f00
001e00
ENDCHAR
STARTCHAR 4E11
ENCODING 19985
SWIDTH 520 0
DWIDTH 18 0
BBX 18 16 0 -3
BITMAP
000000
1ffe00
1ffe00
018600
018600
018600
018600
1ffe00
1ffe00
030600
030600
030600
030600
030600
7fff80
7fff80
ENDCHAR
STARTCHAR 4E13
ENCODING 19987
SWIDTH 520 0
DWIDTH 18 0
BBX 18 16 0 -3
BITMAP
018000
018000
3ffe00
3ffe00
030000
030000
7fff80
7fff80
060000
07fc00
07fc00
001800
073000
07e000
00f800
001800
ENDCHAR
STARTCHAR 4E14
ENCODING 19988
SWIDTH 520 0
DWIDTH 18 0
BBX 18 16 0 -3
BITMAP
000000
0ffc00
0ffc00
0c0c00
0c0c00
0ffc00
0ffc00
0c0c00
0c0c00
0ffc00
0ffc00
0c0c00
0c0c00
0c0c00
7fff80
7fff80
ENDCHAR
STARTCHAR 4E15
ENCODING 19989
SWIDTH 520 0
DWIDTH 18 0
BBX 18 16 0 -3
BITMAP
000000
3fff00
3fff00
00c000
01c000
03c800
07dc00
0ece00
1cc700
38c200
10c000
00c000
00c000
000000
7fff80
7fff80
ENDCHAR
STARTCHAR 4E16
ENCODING 19990
SWIDTH 520 0
DWIDTH 18 0
BBX 18 16 0 -3
BITMAP
019800
199800
199800
199800
199800
7fff80
7fff80
199800
199800
199800
19f800
19f800
180000
180000
1fff00
1fff00
ENDCHAR
STARTCHAR 4E18
ENCODING 19992
SWIDTH 520 0
DWIDTH 18 0
BBX 18 16 0 -3
BITMAP
001c00
0ffe00
0fe000
0c0000
0c0000
0c0000
0fff00
0fff00
0c3000
0c3000
0c3000
0c3000
0c3000
7fff80
7fff80
000000
ENDCHAR
STARTCHAR 4E19
ENCODING 19993
SWIDTH 520 0
DWIDTH 18 0
BBX 18 16 0 -3
BITMAP
000000
7fff80
7fff80
00c000
00c000
1ffe00
1ffe00
18c600
18e600
19b600
1bbe00
1f1600
1a0600
180600
180e00
180c00
ENDCHAR
STARTCHAR 4E1A
ENCODING 19994
SWIDTH 520 0
DWIDTH 18 0
BBX 18 16 0 -3
BITMAP
033000
033000
033000
033000
333300
333300
333300
1b3600
1b3600
1b3600
1b3600
033000
033000
033000
7fff80
7fff80
ENDCHAR
STARTCHAR 4E1B
ENCODING 19995
SWIDTH 520 0
DWIDTH 18 0
BBX 18 16 0 -3
BITMAP
000000
061800
061800
061800
061800
061800
061800
0e1800
0f3c00
19b400
186600
30c300
218100
000000
7fff80
7fff80
ENDCHAR
STARTCHAR 4E1C
ENCODING 19996
SWIDTH 520 0
DWIDTH 18 0
BBX 18 16 0 -3
BITMAP
018000
018000
030000
7fff80
7fff80
060000
0c6000
186000
1fff00
1fff00
006000
086400
1c6e00
386700
11e200
01c000
ENDCHAR
STARTCHAR 4E1D
ENCODING 19997
SWIDTH 520 0
DWIDTH 18 0
BBX 18 16 0 -3
BITMAP
0c0c00
0c0c00
181800
181800
333300
7f3300
7e7e00
067c00
0c1800
183000
3f7f00
3f7f00
000000
7fff80
7fff80
000000
ENDCHAR
STARTCHAR 4E1E
ENCODING 19998
SWIDTH 520 0
DWIDTH 18 0
BBX 18 16 0 -3
BITMAP
000000
1ffe00
1ffe00
003800
00e200
3ec700
3eee00
06fc00
0cd800
1cce00
38c780
71c300
218000
000000
7fff80
7fff80
ENDCHAR
STARTCHAR 4E22
ENCODING 20002
SWIDTH 520 0
DWIDTH 18 0
BBX 18 16 0 -3
BITMAP
000e00
1fff00
1ff000
00c000
00c000
1ffe00
1ffe00
00c000
00c000
7fff80
7fff80
030000
060c00
0c7c00
1ffe00
1f8600
ENDCHAR
STARTCHAR 4E24
ENCODING 20004
SWIDTH 520 0
DWIDTH 18 0
BBX 18 16 0 -3
BITMAP
000000
3fff00
3fff00
033000
033000
3fff00
3fff00
333300
33b300
37bb00
3e6f00
3ccf00
34c300
300300
300f00
300e00
ENDCHAR
STARTCHAR 4E25
ENCODING 20005
SWIDTH 520 0
DWIDTH 18 0
BBX 18 16 0 -3
BITMAP
000000
1fff00
1fff00
01b000
0db600
0db600
01b000
1fff80
1fff80
180000
180000
180000
180000
300000
300000
600000
ENDCHAR
STARTCHAR 4E27
ENCODING 20007
SWIDTH 520 0
DWIDTH 18 0
BBX 18 16 0 -3
BITMAP
00c000
00c000
3fff00
3fff00
0ccc00
0ccc00
06d800
7fff80
7fff80
0cc400
0cee00
0c7800
0c3000
0d9c00
0f8f80
0e0300
ENDCHAR
STARTCHAR 4E28
ENCODING 20008
SWIDTH 520 0
DWIDTH 18 0
BBX 18 16 0 -3
BITMAP
00c000
00c000
00c000
00c000
00c000
00c000
00c000
00c000
00c000
00c000
00c000
00c000
00c000
00c000
00c000
00c000
ENDCHAR
STARTCHAR 4E2A
ENCODING 20010
SWIDTH 520 0
DWIDTH 18 0
BBX 18 16 0 -3
BITMAP
00c000
00c000
01e000
03b000
071800
1ece00
7cc780
30c300
00c000
00c000
00c000
00c000
00c000
00c000
00c000
00c000
ENDCHAR
STARTCHAR 4E2B
ENCODING 20011
SWIDTH 520 0
DWIDTH 18 0
BBX 18 16 0 -3
BITMAP
000200
080700
1c0e00
0e1c00
073800
02f000
00e000
00c000
00c000
00c000
00c000
00c000
00c000
00c000
00c000
00c000
ENDCHAR
STARTCHAR 4E2C
ENCODING 20012
SWIDTH 520 0
DWIDTH 18 0
BBX 18 16 0 -3
BITMAP
030000
030000
330000
330000
1b0000
1b0000
030000
070000
0f0000
1f0000
3b0000
730000
230000
030000
030000
030000
ENDCHAR
STARTCHAR 4E2D
ENCODING 20013
SWIDTH 520 0
DWIDTH 18 0
BBX 18 16 0 -3
BITMAP
00c000
00c000
00c000
3fff00
3fff00
30c300
30c300
30c300
3fff00
3fff00
30c300
00c000
00c000
00c000
00c000
00c000
ENDCHAR
STARTCHAR 4E30
ENCODING 20016
SWIDTH 520 0
DWIDTH 18 0
BBX 18 16 0 -3
BITMAP
00c000
00c000
3fff00
3fff00
00c000
00c000
1ffe00
1ffe00
00c000
00c000
7fff80
7fff80
00c000
00c000
00c000
00c000
ENDCHAR
STARTCHAR 4E32
ENCODING 20018
SWIDTH 520 0
DWIDTH 18 0
BBX 18 16 0 -3
BITMAP
00c000
00c000
1ffe00
1ffe00
18c600
1ffe00
1ffe00
00c000
3fff00
3fff00
30c300
3fff00
3fff00
30c300
00c000
00c000
ENDCHAR
STARTCHAR 4E34
ENCODING 20020
SWIDTH 520 0
DWIDTH 18 0
BBX 18 16 0 -3
BITMAP
0c6000
0c6000
6c7f80
6cff80
6dc000
6d9800
6c9800
6c0000
6cff00
6cff00
6cdb00
6cdb00
6cdb00
6cff00
0cff00
0cc300
ENDCHAR
STARTCHAR 4E36
ENCODING 20022
SWIDTH 520 0
DWIDTH 18 0
BBX 18 16 0 -3
BITMAP
010000
038000
01c000
00e000
007000
002000
000000
000000
000000
000000
000000
000000
000000
000000
000000
000000
ENDCHAR
STARTCHAR 4E38
ENCODING 20024
SWIDTH 520 0
DWIDTH 18 0
BBX 18 16 0 -3
BITMAP
018000
018000
018000
018000
3ff800
3ff800
019800
059800
0f1800
079800
03d800
069800
0e1980
1c1980
781f80
300f00
ENDCHAR
STARTCHAR 4E39
ENCODING 20025
SWIDTH 520 0
DWIDTH 18 0
BBX 18 16 0 -3
BITMAP
000000
0ffc00
0ffc00
0c0c00
0ccc00
0ccc00
0ccc00
0c0c00
7fff80
7fff80
0c0c00
0c0c00
180c00
380c00
703c00
203800
ENDCHAR
STARTCHAR 4E3A
ENCODING 20026
SWIDTH 520 0
DWIDTH 18 0
BBX 18 16 0 -3
BITMAP
00c000
0cc000
0ec000
06c000
00c000
3fff00
3fff00
018300
018300
038300
033300
073300
0e0300
1c0700
783e00
303c00
ENDCHAR
STARTCHAR 4E3B
ENCODING 20027
SWIDTH 520 0
DWIDTH 18 0
BBX 18 16 0 -3
BITMAP
00c000
00c000
000000
3fff00
3fff00
00c000
00c000
00c000
1ffe00
1ffe00
00c000
00c000
00c000
00c000
3fff00
3fff00
ENDCHAR
STARTCHAR 4E3D
ENCODING 20029
SWIDTH 520 0
DWIDTH 18 0
BBX 18 16 0 -3
BITMAP
000000
7fff80
7fff80
000000
3f3f00
3f3f00
333300
3b3b00
3b3b00
373700
373700
333300
333300
333300
373700
363600
ENDCHAR
STARTCHAR 4E3E
ENCODING 20030
SWIDTH 520 0
DWIDTH 18 0
BBX 18 16 0 -3
BITMAP
018600
19c600
1ccc00
0c0c00
3fff00
3fff00
061800
0ccc00
78c780
37fb00
07f800
00c000
3fff00
3fff00
00c000
00c000
ENDCHAR
STARTCHAR 4E3F
ENCODING 20031
SWIDTH 520 0
DWIDTH 18 0
BBX 18 16 0 -3
BITMAP
00c000
00c000
00c000
00c000
00c000
00c000
00c000
00c000
00c000
018000
018000
038000
070000
0e0000
1c0000
080000
ENDCHAR
STARTCHAR 4E43
ENCODING 20035
SWIDTH 520 0
DWIDTH 18 0
BBX 18 16 0 -3
BITMAP
000000
1ffc00
1ffc00
030c00
030c00
031800
031f00
031f00
030300
060300
060300
0c0300
1c0300
380700
701e00
201c00
ENDCHAR
STARTCHAR 4E45
ENCODING 20037
SWIDTH 520 0
DWIDTH 18 0
BBX 18 16 0 -3
BITMAP
018000
018000
030000
03f000
07f000
0e3000
1c3000
386000
107000
00f000
01d800
039c00
070e00
1e0700
7c0380
300100
ENDCHAR
STARTCHAR 4E47
ENCODING 20039
SWIDTH 520 0
DWIDTH 18 0
BBX 18 16 0 -3
BITMAP
001c00
00fe00
1fe000
1f8000
018000
018000
01ff80
7fff80
7f8000
018000
018000
018000
018180
018180
01ff80
00ff00
ENDCHAR
STARTCHAR 4E48
ENCODING 20040
SWIDTH 520 0
DWIDTH 18 0
BBX 18 16 0 -3
BITMAP
008000
00c000
01c000
018000
031800
071800
0e3000
1c7000
386000
10c000
018c00
030c00
060600
1ffe00
1fff00
000300
ENDCHAR
STARTCHAR 4E49
ENCODING 20041
SWIDTH 520 0
DWIDTH 18 0
BBX 18 16 0 -3
BITMAP
000000
018000
198600
18c600
0ccc00
0c0c00
0c1800
063800
077000
03e000
01c000
03e000
077800
0e1e00
7c0f80
300300
ENDCHAR
STARTCHAR 4E4B
ENCODING 20043
SWIDTH 520 0
DWIDTH 18 0
BBX 18 16 0 -3
BITMAP
018000
01c000
00c000
000000
3ffe00
3ffe00
001c00
003000
006000
00c000
038000
0f0000
3c0000
770000
23ff80
00ff00
ENDCHAR
STARTCHAR 4E4C
ENCODING 20044
SWIDTH 520 0
DWIDTH 18 0
BBX 18 16 0 -3
BITMAP
030000
030000
0ffc00
0ffc00
0c0c00
0c7c00
0c7800
0c0000
0fff00
0fff00
000300
3ff300
3ff300
000300
000f00
000e00
ENDCHAR
STARTCHAR 4E4D
ENCODING 20045
SWIDTH 520 0
DWIDTH 18 0
BBX 18 16 0 -3
BITMAP
030000
030000
060000
07ff00
0fff00
1d8000
398000
11fe00
01fe00
018000
018000
01ff00
01ff00
018000
018000
018000
ENDCHAR
STARTCHAR 4E4E
ENCODING 20046
SWIDTH 520 0
DWIDTH 18 0
BBX 18 16 0 -3
BITMAP
007e00
3fff00
3fc000
00c600
0cc600
0ece00
06cc00
00c000
7fff80
7fff80
00c000
00c000
00c000
00c000
03c000
038000
ENDCHAR
STARTCHAR 4E4F
ENCODING 20047
SWIDTH 520 0
DWIDTH 18 0
BBX 18 16 0 -3
BITMAP
000e00
3fff00
1ff000
000000
00c000
00c000
1ffe00
1ffe00
001c00
007800
01e000
038000
0e0000
1f8000
39ff80
107f00
ENDCHAR
STARTCHAR 4E50
ENCODING 20048
SWIDTH 520 0
DWIDTH 18 0
BBX 18 16 0 -3
BITMAP
001c00
1ffe00
1fe000
180000
186000
306000
3fff00
3fff00
006000
006000
046400
0e6e00
1c6700
386200
11e000
01c000
ENDCHAR
STARTCHAR 4E52
ENCODING 20050
SWIDTH 520 0
DWIDTH 18 0
BBX 18 16 0 -3
BITMAP
001c00
0ffe00
0fe000
0c0000
0c0000
0ffe00
0ffe00
0c3000
0c3000
0c3000
7fff80
7fff80
030000
0f0000
7c0000
300000
ENDCHAR
STARTCHAR 4E53
ENCODING 20051
SWIDTH 520 0
DWIDTH 18 0
BBX 18 16 0 -3
BITMAP
000e00
0fff00
0ff000
0c0000
0c0000
0ffe00
0ffe00
0c3000
0c3000
0c3000
7fff80
7fff80
003000
003c00
000f00
000300
ENDCHAR
STARTCHAR 4E54
ENCODING 20052
SWIDTH 520 0
DWIDTH 18 0
BBX 18 16 0 -3
BITMAP
003c00
1ffe00
1fc000
00c000
7fff80
7fff80
033000
0e1c00
7c0f80
331b00
031800
031800
061800
0e1800
3c1800
181800
ENDCHAR
STARTCHAR 4E56
ENCODING 20054
SWIDTH 520 0
DWIDTH 18 0
BBX 18 16 0 -3
BITMAP
003c00
1ffe00
1fc000
00c000
7fff80
7fff80
06d800
3edb00
3edf80
06dc00
1ed980
7edf80
66cf00
00c000
00c000
00c000
ENDCHAR
STARTCHAR 4E58
ENCODING 20056
SWIDTH 520 0
DWIDTH 18 0
BBX 18 16 0 -3
BITMAP
1ffe00
1ffe00
00c000
7fff80
7fff80
06d800
3edf00
3ed800
06db00
3edf00
3fee00
03f000
0edc00
7ccf80
30c300
00c000
ENDCHAR
STARTCHAR 4E59
ENCODING 20057
SWIDTH 520 0
DWIDTH 18 0
BBX 18 16 0 -3
BITMAP
000000
3ffc00
3ffc00
003800
006000
00c000
018000
030000
060000
0e0000
0c0000
180300
180300
1fff00
0ffe00
000000
ENDCHAR
STARTCHAR 4E5C
ENCODING 20060
SWIDTH 520 0
DWIDTH 18 0
BBX 18 16 0 -3
BITMAP
060000
060000
060000
060000
063c00
07fc00
7fcc00
7e0c00
060c00
060c00
063c00
063800
060000
060180
07ff80
03ff00
ENDCHAR
STARTCHAR 4E5D
ENCODING 20061
SWIDTH 520 0
DWIDTH 18 0
BBX 18 16 0 -3
BITMAP
018000
018000
018000
018000
3ff800
3ff800
019800
019800
019800
031800
031800
061800
0e1980
1c1980
381f80
300f00
ENDCHAR
STARTCHAR 4E5E
ENCODING 20062
SWIDTH 520 0
DWIDTH 18 0
BBX 18 16 0 -3
BITMAP
060000
060000
0fff00
1fff00
380000
700000
2ffc00
0ffc00
003800
00e000
03c000
070000
0e0300
0c0300
0fff00
07fe00
ENDCHAR
STARTCHAR 4E5F
ENCODING 20063
SWIDTH 520 0
DWIDTH 18 0
BBX 18 16 0 -3
BITMAP
00c000
00c000
00c000
0cce00
0cfe00
0ff600
7fc600
7cc600
0cc600
0cc600
0cde00
0cdc00
0cc180
0c0180
0fff80
07ff00
ENDCHAR
STARTCHAR 4E60
ENCODING 20064
SWIDTH 520 0
DWIDTH 18 0
BBX 18 16 0 -3
BITMAP
000000
1ffe00
1ffe00
000600
020600
070600
038600
010600
000600
00e600
07e600
3f0600
380600
000600
003e00
003c00
ENDCHAR
STARTCHAR 4E61
ENCODING 20065
SWIDTH 520 0
DWIDTH 18 0
BBX 18 16 0 -3
BITMAP
018000
018000
030000
061800
0c3800
1ff000
1fe000
00c600
038600
0ffe00
0ffc00
001800
003000
01e000
3fc000
1e0000
ENDCHAR
STARTCHAR 4E66
ENCODING 20070
SWIDTH 520 0
DWIDTH 18 0
BBX 18 16 0 -3
BITMAP
018c00
018f00
018300
3ffc00
3ffc00
018c00
018c00
018c00
7fff00
7fff00
018300
018300
018300
018f00
018e00
018000
ENDCHAR
STARTCHAR 4E69
ENCODING 20073
SWIDTH 520 0
DWIDTH 18 0
BBX 18 16 0 -3
BITMAP
0c1800
0c1800
0c1800
0fd800
0fd800
0c1800
0c1800
0c1800
3f9800
3f9800
319800
319800
319800
3f9980
3f9f80
318f00
ENDCHAR
STARTCHAR 4E70
ENCODING 20080
SWIDTH 520 0
DWIDTH 18 0
BBX 18 16 0 -3
BITMAP
000000
3fff00
3fff00
0c0300
0ec000
06c000
18c000
1cc000
0cc000
7fff80
7fff80
018000
031800
0e1c00
7c0700
300300
ENDCHAR
STARTCHAR 4E71
ENCODING 20081
SWIDTH 520 0
DWIDTH 18 0
BBX 18 16 0 -3
BITMAP
039800
3fd800
3e1800
061800
061800
7fd800
7fd800
061800
061800
3f9800
3f9800
319800
319980
3f9980
3f9f80
318f00
ENDCHAR
STARTCHAR 4E73
ENCODING 20083
SWIDTH 520 0
DWIDTH 18 0
BBX 18 16 0 -3
BITMAP
00cc00
3fec00
3f0c00
00cc00
36cc00
36cc00
000c00
3fcc00
3fcc00
030c00
03cc00
3fcc00
3e0c00
060d80
0e0f80
0c0700
ENDCHAR
STARTCHAR 4E7E
ENCODING 20094
SWIDTH 520 0
DWIDTH 18 0
BBX 18 16 0 -3
BITMAP
0c1800
7f9800
7f9f80
0c3f80
7f7000
7f6000
633f00
7f3f00
630600
7f0c00
7f1c00
0c1800
7fb180
7fb180
0c3f80
0c1f00
ENDCHAR
STARTCHAR 4E86
ENCODING 20102
SWIDTH 520 0
DWIDTH 18 0
BBX 18 16 0 -3
BITMAP
000000
3fff00
3fff00
001c00
007000
00e000
00c000
00c000
00c000
00c000
00c000
00c000
00c000
00c000
03c000
038000
ENDCHAR
STARTCHAR 4E88
ENCODING 20104
SWIDTH 520 0
DWIDTH 18 0
BBX 18 16 0 -3
BITMAP
000000
1ffc00
1ffc00
033000
03e000
00c000
7fff00
7fff00
00c300
00c300
00c000
00c000
00c000
00c000
03c000
038000
ENDCHAR
STARTCHAR 4E89
ENCODING 20105
SWIDTH 520 0
DWIDTH 18 0
BBX 18 16 0 -3
BITMAP
060000
060000
0ff000
1ff000
386000
17fe00
00c600
7fff80
7fff80
00c600
1ffe00
1ffe00
00c600
00c000
03c000
038000
ENDCHAR
STARTCHAR 4E8B
ENCODING 20107
SWIDTH 520 0
DWIDTH 18 0
BBX 18 16 0 -3
BITMAP
00c000
7fff80
7fff80
00c000
1ffe00
18c600
1ffe00
00c000
1fff00
00c300
7fff80
00c300
1fff00
00c300
01c000
018000
ENDCHAR
STARTCHAR 4E8C
ENCODING 20108
SWIDTH 520 0
DWIDTH 18 0
BBX 18 16 0 -3
BITMAP
000000
000000
1ffe00
1ffe00
000000
000000
000000
000000
000000
000000
000000
000000
7fff80
7fff80
000000
000000
ENDCHAR
STARTCHAR 4E8D
ENCODING 20109
SWIDTH 520 0
DWIDTH 18 0
BBX 18 16 0 -3
BITMAP
000000
1ffe00
1ffe00
000000
000000
000000
7fff80
7fff80
00c000
00c000
00c000
00c000
00c000
00c000
01c000
018000
ENDCHAR
STARTCHAR 4E8E
ENCODING 20110
SWIDTH 520 0
DWIDTH 18 0
BBX 18 16 0 -3
BITMAP
000000
1ffe00
1ffe00
00c000
00c000
00c000
00c000
7fff80
7fff80
00c000
00c000
00c000
00c000
00c000
03c000
038000
ENDCHAR
STARTCHAR 4E8F
ENCODING 20111
SWIDTH 520 0
DWIDTH 18 0
BBX 18 16 0 -3
BITMAP
000000
1ffe00
1ffe00
000000
000000
7fff80
7fff80
060000
060000
07fc00
07fc00
000c00
000c00
000c00
007c00
007800
ENDCHAR
STARTCHAR 4E91
ENCODING 20113
SWIDTH 520 0
DWIDTH 18 0
BBX 18 16 0 -3
BITMAP
000000
0ffc00
0ffc00
000000
000000
000000
3fff00
3fff00
018000
018000
031800
031800
060c00
1ffc00
1ffe00
000600
ENDCHAR
STARTCHAR 4E92
ENCODING 20114
SWIDTH 520 0
DWIDTH 18 0
BBX 18 16 0 -3
BITMAP
000000
3fff00
3fff00
030000
030000
03fc00
07fc00
060c00
060c00
07fc00
07f800
001800
001800
7fff80
7fff80
000000
ENDCHAR
STARTCHAR 4E93
ENCODING 20115
SWIDTH 520 0
DWIDTH 18 0
BBX 18 16 0 -3
BITMAP
000000
1ffe00
1ffe00
000000
000000
3fff00
3fff00
031800
031800
031800
031800
071800
061800
0e1800
3c1800
181800
ENDCHAR
STARTCHAR 4E94
ENCODING 20116
SWIDTH 520 0
DWIDTH 18 0
BBX 18 16 0 -3
BITMAP
000000
3fff00
3fff00
018000
018000
018000
1ffc00
1ffc00
030c00
030c00
030c00
030c00
030c00
7fff80
7fff80
000000
ENDCHAR
STARTCHAR 4E95
ENCODING 20117
SWIDTH 520 0
DWIDTH 18 0
BBX 18 16 0 -3
BITMAP
031800
031800
031800
3fff00
3fff00
031800
031800
031800
7fff80
7fff80
061800
061800
0e1800
1c1800
381800
101800
ENDCHAR
STARTCHAR 4E98
ENCODING 20120
SWIDTH 520 0
DWIDTH 18 0
BBX 18 16 0 -3
BITMAP
000000
3fff00
3fff00
000000
1ffe00
1ffe00
180600
1ffe00
1ffe00
180600
1ffe00
1ffe00
000000
000000
7fff80
7fff80
ENDCHAR
STARTCHAR 4E9A
ENCODING 20122
SWIDTH 520 0
DWIDTH 18 0
BBX 18 16 0 -3
BITMAP
000000
3fff00
3fff00
033000
033000
333300
333300
333600
1b3600
1b3c00
1b3c00
033000
033000
033000
7fff80
7fff80
ENDCHAR
STARTCHAR 4E9B
ENCODING 20123
SWIDTH 520 0
DWIDTH 18 0
BBX 18 16 0 -3
BITMAP
063000
063000
363300
37bf80
37bc00
363000
363000
37b180
7fbf80
7c1f00
000000
0ffc00
0ffc00
000000
3fff00
3fff00
ENDCHAR
STARTCHAR 4E9F
ENCODING 20127
SWIDTH 520 0
DWIDTH 18 0
BBX 18 16 0 -3
BITMAP
000000
1ffe00
1ffe00
003000
00e000
3edf00
3edf00
36db00
36de00
3ecf00
3edb80
30f900
01d000
018000
7fff80
7fff80
ENDCHAR
STARTCHAR 4EA0
ENCODING 20128
SWIDTH 520 0
DWIDTH 18 0
BBX 18 16 0 -3
BITMAP
00c000
00c000
00c000
000000
7fff80
7fff80
000000
000000
000000
000000
000000
000000
000000
000000
000000
000000
ENDCHAR
STARTCHAR 4EA1
ENCODING 20129
SWIDTH 520 0
DWIDTH 18 0
BBX 18 16 0 -3
BITMAP
00c000
00c000
00c000
000000
7fff80
7fff80
0c0000
0c0000
0c0000
0c0000
0c0000
0c0000
0c0000
0ffe00
0ffe00
000000
ENDCHAR
STARTCHAR 4EA2
ENCODING 20130
SWIDTH 520 0
DWIDTH 18 0
BBX 18 16 0 -3
BITMAP
00c000
00c000
000000
7fff80
7fff80
000000
07f800
07f800
061800
061800
061800
0e1800
0c1980
1c1980
381f80
100f00
ENDCHAR
STARTCHAR 4EA4
ENCODING 20132
SWIDTH 520 0
DWIDTH 18 0
BBX 18 16 0 -3
BITMAP
00c000
00c000
3fff00
3fff00
020800
071c00
0e0e00
1c0400
0b1800
031800
01b000
01b000
00e000
07f800
7f1f80
380700
ENDCHAR
STARTCHAR 4EA5
ENCODING 20133
SWIDTH 520 0
DWIDTH 18 0
BBX 18 16 0 -3
BITMAP
00c000
00c000
7fff80
7fff80
030000
063000
1ff000
1fe000
00c400
038e00
3f1c00
1c3800
00f000
07d800
3f0e00
180600
ENDCHAR
STARTCHAR 4EA6
ENCODING 20134
SWIDTH 520 0
DWIDTH 18 0
BBX 18 16 0 -3
BITMAP
00c000
00c000
000000
3fff80
3fff80
033000
033000
1b3600
1b3600
333300
333300
373300
063000
0e3000
3c7000
186000
ENDCHAR
STARTCHAR 4EA7
ENCODING 20135
SWIDTH 520 0
DWIDTH 18 0
BBX 18 16 0 -3
BITMAP
00c000
00c000
3fff80
3fff80
061800
031800
033000
1fff80
1fff80
180000
180000
180000
180000
300000
300000
600000
ENDCHAR
STARTCHAR 4EA8
ENCODING 20136
SWIDTH 520 0
DWIDTH 18 0
BBX 18 16 0 -3
BITMAP
00c000
7fff80
7fff80
000000
1ffc00
180c00
1ffc00
000000
3ffe00
3ffe00
007000
00c000
00c000
00c000
01c000
018000
ENDCHAR
STARTCHAR 4EA9
ENCODING 20137
SWIDTH 520 0
DWIDTH 18 0
BBX 18 16 0 -3
BITMAP
00c000
00c000
7fff80
7fff80
000000
1ffe00
1ffe00
18c600
18c600
1ffe00
1ffe00
18c600
18c600
1ffe00
1ffe00
180600
ENDCHAR
STARTCHAR 4EAB
ENCODING 20139
SWIDTH 520 0
DWIDTH 18 0
BBX 18 16 0 -3
BITMAP
00c000
7fff80
7fff80
000000
0ffc00
0c0c00
0ffc00
000000
1ffe00
1ffe00
003000
7fff80
7fff80
00c000
01c000
018000
ENDCHAR
STARTCHAR 4EAC
ENCODING 20140
SWIDTH 520 0
DWIDTH 18 0
BBX 18 16 0 -3
BITMAP
00c000
00c000
7fff80
7fff80
000000
0ffc00
0ffc00
0c0c00
0ffc00
0ffc00
00c000
08c400
1cce00
38c700
11c200
018000
ENDCHAR
STARTCHAR 4EAD
ENCODING 20141
SWIDTH 520 0
DWIDTH 18 0
BBX 18 16 0 -3
BITMAP
00c000
3fff00
3fff00
000000
0ffc00
0c0c00
0ffc00
000000
7fff80
7fff80
600180
0ffc00
0ffc00
00c000
03c000
038000
ENDCHAR
STARTCHAR 4EAE
ENCODING 20142
SWIDTH 520 0
DWIDTH 18 0
BBX 18 16 0 -3
BITMAP
00c000
3fff00
3fff00
000000
0ffc00
0c0c00
0ffc00
000000
3fff00
3fff00
300300
03f000
03f000
073300
1e3f00
1c1e00
ENDCHAR
STARTCHAR 4EB2
ENCODING 20146
SWIDTH 520 0
DWIDTH 18 0
BBX 18 16 0 -3
BITMAP
00c000
1fff00
1fff00
060c00
031800
3fff80
3fff80
00c000
00c000
1fff00
1fff00
00c000
08c400
1cce00
39c700
118200
ENDCHAR
STARTCHAR 4EB3
ENCODING 20147
SWIDTH 520 0
DWIDTH 18 0
BBX 18 16 0 -3
BITMAP
00c000
3fff00
000000
0ffc00
0c0c00
0ffc00
000000
7fff80
7fff80
600180
0ffc00
00c000
3fff80
00c300
00ff00
007e00
ENDCHAR
STARTCHAR 4EB5
ENCODING 20149
SWIDTH 520 0
DWIDTH 18 0
BBX 18 16 0 -3
BITMAP
00c000
7fff80
7fff80
0c3000
3f7e00
3f7e00
0c3600
7f6600
0cf680
1cd780
1b6300
076c00
0e3800
7e9c00
378f80
070300
ENDCHAR
STARTCHAR 4EBA
ENCODING 20154
SWIDTH 520 0
DWIDTH 18 0
BBX 18 16 0 -3
BITMAP
00c000
00c000
00c000
00c000
00c000
00c000
00c000
01c000
01e000
036000
033000
063800
0e1c00
1c0e00
780780
300300
ENDCHAR
STARTCHAR 4EBB
ENCODING 20155
SWIDTH 520 0
DWIDTH 18 0
BBX 18 16 0 -3
BITMAP
030000
030000
030000
060000
060000
0e0000
1e0000
3e0000
760000
260000
060000
060000
060000
060000
060000
060000
ENDCHAR
STARTCHAR 4EBF
ENCODING 20159
SWIDTH 520 0
DWIDTH 18 0
BBX 18 16 0 -3
BITMAP
0c0000
0c0000
0dfe00
19fe00
180c00
381800
383000
783000
786000
186000
18c000
18c000
198180
198180
19ff80
18ff00
ENDCHAR
STARTCHAR 4EC0
ENCODING 20160
SWIDTH 520 0
DWIDTH 18 0
BBX 18 16 0 -3
BITMAP
0c1800
0c1800
0c1800
181800
181800
3bff80
7bff80
781800
181800
181800
181800
181800
181800
181800
181800
181800
ENDCHAR
STARTCHAR 4EC1
ENCODING 20161
SWIDTH 520 0
DWIDTH 18 0
BBX 18 16 0 -3
BITMAP
0c0000
0c0000
0dff00
19ff00
180000
380000
780000
780000
180000
180000
180000
180000
1bff80
1bff80
180000
180000
ENDCHAR
STARTCHAR 4EC2
ENCODING 20162
SWIDTH 520 0
DWIDTH 18 0
BBX 18 16 0 -3
BITMAP
0c3000
0c3000
0c3000
183000
19ff00
39ff00
783300
583300
183300
183300
186300
186300
18c300
19c300
1b8f00
190e00
ENDCHAR
STARTCHAR 4EC3
ENCODING 20163
SWIDTH 520 0
DWIDTH 18 0
BBX 18 16 0 -3
BITMAP
0c0000
0dff80
0dff80
181800
181800
381800
781800
581800
181800
181800
181800
181800
181800
181800
187800
187000
ENDCHAR
STARTCHAR 4EC4
ENCODING 20164
SWIDTH 520 0
DWIDTH 18 0
BBX 18 16 0 -3
BITMAP
000000
1fff80
1fff80
186000
186000
186000
186000
186000
186000
18f000
18d800
319c00
338e00
770700
6e0380
240100
ENDCHAR
STARTCHAR 4EC5
ENCODING 20165
SWIDTH 520 0
DWIDTH 18 0
BBX 18 16 0 -3
BITMAP
0c0000
0c0000
0dff00
19ff00
18c300
38c300
78c600
58c600
186c00
186c00
183800
183800
187c00
18ee00
1bc780
198300
ENDCHAR
STARTCHAR 4EC6
ENCODING 20166
SWIDTH 520 0
DWIDTH 18 0
BBX 18 16 0 -3
BITMAP
063000
063000
0c3000
0c3000
1c3400
1c3e00
3c3600
7c3300
2c3380
0c3100
0c3000
0c3000
0c3000
0c3000
0c3000
0c3000
ENDCHAR
STARTCHAR 4EC7
ENCODING 20167
SWIDTH 520 0
DWIDTH 18 0
BBX 18 16 0 -3
BITMAP
0c6000
0c6000
0c6000
186000
1bfc00
3bfc00
786c00
786c00
186c00
186c00
18cc00
18cc00
18cc00
198d80
1b8f80
190700
ENDCHAR
STARTCHAR 4EC9
ENCODING 20169
SWIDTH 520 0
DWIDTH 18 0
BBX 18 16 0 -3
BITMAP
0c0000
0c0000
0dfc00
19fc00
198c00
398c00
798c00
598c00
198c00
198c00
198c00
198c00
1b0d80
1b0d80
1f0f80
1a0700
ENDCHAR
STARTCHAR 4ECA
ENCODING 20170
SWIDTH 520 0
DWIDTH 18 0
BBX 18 16 0 -3
BITMAP
00c000
01c000
036000
073000
0e1800
1cce00
78c780
30c300
000000
1ffc00
1ffc00
000c00
001800
003000
006000
006000
ENDCHAR
STARTCHAR 4ECB
ENCODING 20171
SWIDTH 520 0
DWIDTH 18 0
BBX 18 16 0 -3
BITMAP
018000
03c000
036000
063000
0e1800
1c0e00
380780
761b00
261800
061800
061800
061800
0e1800
1c1800
381800
101800
ENDCHAR
STARTCHAR 4ECD
ENCODING 20173
SWIDTH 520 0
DWIDTH 18 0
BBX 18 16 0 -3
BITMAP
0c0000
0dfe00
0dfe00
186600
186600
386c00
786f00
586f00
186300
186300
18c300
18c300
198300
198700
1b1e00
1a1c00
ENDCHAR
STARTCHAR 4ECE
ENCODING 20174
SWIDTH 520 0
DWIDTH 18 0
BBX 18 16 0 -3
BITMAP
000000
0c1800
0c1800
0c1800
0c1800
0c1800
0c1800
0c1800
0e1800
0f3800
19bc00
186c00
306600
60c300
418180
030080
ENDCHAR
STARTCHAR 4ED1
ENCODING 20177
SWIDTH 520 0
DWIDTH 18 0
BBX 18 16 0 -3
BITMAP
00c000
01c000
03e000
077000
0e3800
1c1e00
780780
360300
061800
067c00
07e000
078000
060000
060600
07fe00
03fc00
ENDCHAR
STARTCHAR 4ED3
ENCODING 20179
SWIDTH 520 0
DWIDTH 18 0
BBX 18 16 0 -3
BITMAP
00c000
00c000
01e000
033000
061c00
1c0f00
7ffb80
37f900
061800
061800
067800
067000
060600
060600
07fe00
03fc00
ENDCHAR
STARTCHAR 4ED4
ENCODING 20180
SWIDTH 520 0
DWIDTH 18 0
BBX 18 16 0 -3
BITMAP
0c0000
0dff00
0dff00
180600
180c00
181800
381800
7bff80
7bff80
181800
181800
181800
181800
181800
187800
187000
ENDCHAR
STARTCHAR 4ED5
ENCODING 20181
SWIDTH 520 0
DWIDTH 18 0
BBX 18 16 0 -3
BITMAP
0c3000
0c3000
0c3000
183000
183000
3bff80
7bff80
583000
183000
183000
183000
183000
183000
19ff00
19ff00
180000
ENDCHAR
STARTCHAR 4ED6
ENCODING 20182
SWIDTH 520 0
DWIDTH 18 0
BBX 18 16 0 -3
BITMAP
0c3000
0c3000
0c3000
19b000
19bf00
39ff00
7bf300
7bb300
19b300
19b700
19b600
19b000
19b180
198180
19ff80
18ff00
ENDCHAR
STARTCHAR 4ED7
ENCODING 20183
SWIDTH 520 0
DWIDTH 18 0
BBX 18 16 0 -3
BITMAP
060c00
060c00
0c0c00
0c0c00
1dff80
1dff80
3c0c00
7ccc00
2cd800
0cd800
0c7800
0c3000
0c7800
0cee00
0fc780
0d8300
ENDCHAR
STARTCHAR 4ED8
ENCODING 20184
SWIDTH 520 0
DWIDTH 18 0
BBX 18 16 0 -3
BITMAP
0c0600
0c0600
0c0600
180600
1bff80
3bff80
380600
780600
58c600
18e600
186600
180600
180600
180600
181e00
181c00
ENDCHAR
STARTCHAR 4ED9
ENCODING 20185
SWIDTH 520 0
DWIDTH 18 0
BBX 18 16 0 -3
BITMAP
0c3000
0c3000
0c3000
183000
1b3300
3b3300
7b3300
7b3300
1b3300
1b3300
1b3300
1b3300
1b3f00
1bff00
1be300
180000
ENDCHAR
STARTCHAR 4EDD
ENCODING 20189
SWIDTH 520 0
DWIDTH 18 0
BBX 18 16 0 -3
BITMAP
00c000
01c000
03e000
073000
0e1800
1c0e00
780780
300300
0ffc00
0ffc00
00c000
00c000
00c000
00c000
3fff00
3fff00
ENDCHAR
STARTCHAR 4EDE
ENCODING 20190
SWIDTH 520 0
DWIDTH 18 0
BBX 18 16 0 -3
BITMAP
0c0000
0dff80
0dff80
181980
181980
38d980
78d980
59d980
199980
19b180
183180
187180
186180
18e380
19cf00
188e00
ENDCHAR
STARTCHAR 4EDF
ENCODING 20191
SWIDTH 520 0
DWIDTH 18 0
BBX 18 16 0 -3
BITMAP
0c0e00
0dff00
0df800
181800
181800
381800
7bff80
7bff80
181800
181800
181800
181800
181800
181800
181800
181800
ENDCHAR
STARTCHAR 4EE1
ENCODING 20193
SWIDTH 520 0
DWIDTH 18 0
BBX 18 16 0 -3
BITMAP
0c6000
0c6000
0cff80
19ff80
1b8000
3b0000
78fe00
58fe00
180c00
181800
183000
186000
18c180
18c180
18ff80
187f00
ENDCHAR
STARTCHAR 4EE3
ENCODING 20195
SWIDTH 520 0
DWIDTH 18 0
BBX 18 16 0 -3
BITMAP
0c6000
0c6c00
0c6e00
186600
186000
387f00
3bff00
7be000
786000
186000
183000
183000
181900
181d80
180f80
180700
ENDCHAR
STARTCHAR 4EE4
ENCODING 20196
SWIDTH 520 0
DWIDTH 18 0
BBX 18 16 0 -3
BITMAP
00c000
01c000
036000
063000
1c1c00
798f80
31c300
00c000
1ffe00
1ffe00
000c00
021800
073000
03e000
00f000
003000
ENDCHAR
STARTCHAR 4EE5
ENCODING 20197
SWIDTH 520 0
DWIDTH 18 0
BBX 18 16 0 -3
BITMAP
000000
318600
318600
30c600
30c600
300600
300600
300c00
330c00
370c00
3e1800
3c3c00
387600
30e700
07c200
030000
ENDCHAR
STARTCHAR 4EE8
ENCODING 20200
SWIDTH 520 0
DWIDTH 18 0
BBX 18 16 0 -3
BITMAP
0c0000
0c0000
0dff00
19ff00
180000
380000
780000
59ff00
19ff00
180000
180000
180000
180000
1bff80
1bff80
180000
ENDCHAR
STARTCHAR 4EEA
ENCODING 20202
SWIDTH 520 0
DWIDTH 18 0
BBX 18 16 0 -3
BITMAP
0c6000
0c6000
183600
19b600
398600
398c00
798c00
78cc00
18d800
187800
187000
183800
187c00
19ce00
1f8780
1b0300
ENDCHAR
STARTCHAR 4EEB
ENCODING 20203
SWIDTH 520 0
DWIDTH 18 0
BBX 18 16 0 -3
BITMAP
0c1000
0c3800
0c3000
187000
186400
38ee00
79cc00
589800
181800
183000
183300
186300
18cf00
19ff80
19f180
180000
ENDCHAR
STARTCHAR 4EEC
ENCODING 20204
SWIDTH 520 0
DWIDTH 18 0
BBX 18 16 0 -3
BITMAP
0c0000
0cdf80
0cdf80
180180
198180
398180
798180
598180
198180
198180
198180
198180
198180
198180
198780
198700
ENDCHAR
STARTCHAR 4EF0
ENCODING 20208
SWIDTH 520 0
DWIDTH 18 0
BBX 18 16 0 -3
BITMAP
0c8000
0ddf80
0f9f80
1b1980
1b1980
3b1980
7b1980
5b1980
1b1980
1b1980
1b5980
1bd980
1b9b80
1b1b00
181800
181800
ENDCHAR
STARTCHAR 4EF2
ENCODING 20210
SWIDTH 520 0
DWIDTH 18 0
BBX 18 16 0 -3
BITMAP
0c1800
0c1800
0c1800
19ff80
19ff80
399980
799980
599980
199980
19ff80
19ff80
199980
181800
181800
181800
181800
ENDCHAR
STARTCHAR 4EF3
ENCODING 20211
SWIDTH 520 0
DWIDTH 18 0
BBX 18 16 0 -3
BITMAP
0d8c00
0d8c00
0d8c00
198c00
198c00
398d80
79ef80
59ee00
198c00
198c00
198c00
198c00
198c00
19ed80
19ef80
198700
ENDCHAR
STARTCHAR 4EF5
ENCODING 20213
SWIDTH 520 0
DWIDTH 18 0
BBX 18 16 0 -3
BITMAP
0c6000
0c6000
0cc000
18ff00
19ff00
3b9800
791800
581800
1bff80
1bff80
181800
181800
181800
181800
181800
181800
ENDCHAR
STARTCHAR 4EF6
ENCODING 20214
SWIDTH 520 0
DWIDTH 18 0
BBX 18 16 0 -3
BITMAP
0c1800
0c1800
0d9800
199800
19ff00
3bff00
7b1800
5b1800
181800
1bff80
1bff80
181800
181800
181800
181800
181800
ENDCHAR
STARTCHAR 4EF7
ENCODING 20215
SWIDTH 520 0
DWIDTH 18 0
BBX 18 16 0 -3
BITMAP
0c3000
0c3000
0c7800
18ec00
19c600
3b8700
7f0380
7acd00
18cc00
18cc00
18cc00
18cc00
19cc00
198c00
1b8c00
190c00
ENDCHAR
STARTCHAR 4EFB
ENCODING 20219
SWIDTH 520 0
DWIDTH 18 0
BBX 18 16 0 -3
BITMAP
0c0000
0c0e00
0dff00
19f800
181800
381800
781800
7bff80
1bff80
181800
181800
181800
181800
181800
1bff00
1bff00
ENDCHAR
STARTCHAR 4EFD
ENCODING 20221
SWIDTH 520 0
DWIDTH 18 0
BBX 18 16 0 -3
BITMAP
0c0000
0ccc00
0ccc00
18cc00
198600
398600
7b0300
5bff80
1afd00
186c00
186c00
18cc00
18cc00
198c00
1b9c00
191800
ENDCHAR
STARTCHAR 4EFF
ENCODING 20223
SWIDTH 520 0
DWIDTH 18 0
BBX 18 16 0 -3
BITMAP
0c3000
0c3800
181800
1bff80
3bff80
78c000
58c000
18fe00
18fe00
18c600
18c600
19c600
198600
1b8600
1b1e00
191c00
ENDCHAR
STARTCHAR 4F01
ENCODING 20225
SWIDTH 520 0
DWIDTH 18 0
BBX 18 16 0 -3
BITMAP
00c000
01c000
036000
063000
1c1c00
786f80
306300
006000
0c7e00
0c7e00
0c6000
0c6000
0c6000
7fff80
7fff80
000000
ENDCHAR
STARTCHAR 4F09
ENCODING 20233
SWIDTH 520 0
DWIDTH 18 0
BBX 18 16 0 -3
BITMAP
0c3000
0c3000
0c3000
1bff00
1bff00
380000
78fc00
58fc00
18cc00
18cc00
18cc00
18cc00
198c00
198d80
1b8f80
190700
ENDCHAR
STARTCHAR 4F0A
ENCODING 20234
SWIDTH 520 0
DWIDTH 18 0
BBX 18 16 0 -3
BITMAP
0c0000
0dff00
0dff00
183300
183300
3bff80
7bff80
783300
183300
19ff00
19ff00
186000
18e000
19c000
1b8000
190000
ENDCHAR
STARTCHAR 4F0D
ENCODING 20237
SWIDTH 520 0
DWIDTH 18 0
BBX 18 16 0 -3
BITMAP
0c0000
0dff00
0dff00
186000
186000
386000
79fe00
59fe00
18c600
18c600
18c600
18c600
18c600
1bff80
1bff80
180000
ENDCHAR
STARTCHAR 4F0E
ENCODING 20238
SWIDTH 520 0
DWIDTH 18 0
BBX 18 16 0 -3
BITMAP
0c3000
0c3000
0dff00
19ff00
183000
383000
79fe00
59fe00
18c600
18c600
186c00
187c00
183800
18fe00
1bc780
1b0300
ENDCHAR
STARTCHAR 4F0F
ENCODING 20239
SWIDTH 520 0
DWIDTH 18 0
BBX 18 16 0 -3
BITMAP
0c3000
0c3600
0c3700
183300
183000
3bff80
7bff80
783000
183800
187800
186c00
18ec00
18c600
19c700
1b8380
190100
ENDCHAR
STARTCHAR 4F10
ENCODING 20240
SWIDTH 520 0
DWIDTH 18 0
BBX 18 16 0 -3
BITMAP
0c6000
0c6c00
0c6c00
186000
187f00
3bff00
7be000
786300
186300
183600
183c00
181800
187900
1bed80
198780
180300
ENDCHAR
STARTCHAR 4F11
ENCODING 20241
SWIDTH 520 0
DWIDTH 18 0
BBX 18 16 0 -3
BITMAP
0c3000
0c3000
0c3000
183000
1bff00
3bff00
783000
587800
18f800
18fc00
19b600
1bb700
1f3380
1a3100
183000
183000
ENDCHAR
STARTCHAR 4F17
ENCODING 20247
SWIDTH 520 0
DWIDTH 18 0
BBX 18 16 0 -3
BITMAP
018000
01c000
036000
073000
1e1c00
7c0f00
300600
061800
061800
061800
071800
0dbc00
1db600
386700
70e380
204100
ENDCHAR
STARTCHAR 4F18
ENCODING 20248
SWIDTH 520 0
DWIDTH 18 0
BBX 18 16 0 -3
BITMAP
0c6000
0c6600
0c6600
186000
1bff80
3bff80
786c00
586c00
186c00
186c00
18cc00
18cc00
19cd80
198d80
1b8f80
190700
ENDCHAR
STARTCHAR 4F19
ENCODING 20249
SWIDTH 520 0
DWIDTH 18 0
BBX 18 16 0 -3
BITMAP
0c3000
0c3000
0c3000
19b300
19b300
39b300
7b3600
5b3600
183000
187800
186c00
18ec00
18c600
19c700
1b8380
190100
ENDCHAR
STARTCHAR 4F1A
ENCODING 20250
SWIDTH 520 0
DWIDTH 18 0
BBX 18 16 0 -3
BITMAP
018000
01c000
036000
063800
0c1c00
3fff80
77fb00
200000
000000
3fff00
3fff00
030000
061800
0c7c00
1ffe00
1f8600
ENDCHAR
STARTCHAR 4F1B
ENCODING 20251
SWIDTH 520 0
DWIDTH 18 0
BBX 18 16 0 -3
BITMAP
0c0000
0dff00
0dff00
198000
19a600
39f600
79b600
599c00
198c00
199e00
19b600
19f300
19a300
198000
19ff80
19ff80
ENDCHAR
STARTCHAR 4F1E
ENCODING 20254
SWIDTH 520 0
DWIDTH 18 0
BBX 18 16 0 -3
BITMAP
00c000
01e000
03b000
071800
0e0e00
7cc780
38c300
0ccc00
0ccc00
06d800
06d800
7fff80
7fff80
00c000
00c000
00c000
ENDCHAR
STARTCHAR 4F1F
ENCODING 20255
SWIDTH 520 0
DWIDTH 18 0
BBX 18 16 0 -3
BITMAP
0c3000
0c3000
0fff80
1bff80
183000
39ff00
79ff00
583000
183000
1bff80
1bff80
183180
183180
183780
183700
183000
ENDCHAR
STARTCHAR 4F20
ENCODING 20256
SWIDTH 520 0
DWIDTH 18 0
BBX 18 16 0 -3
BITMAP
0c6000
0c6000
0dff00
19ff00
186000
386000
7bff80
5bff80
18c000
18fe00
18fe00
180600
186c00
187800
181e00
180600
ENDCHAR
STARTCHAR 4F22
ENCODING 20258
SWIDTH 520 0
DWIDTH 18 0
BBX 18 16 0 -3
BITMAP
0c0000
0dff00
0dff00
180600
198600
398600
79ff80
59ff80
183600
183600
186600
18e600
19c600
1b8600
191e00
181c00
ENDCHAR
STARTCHAR 4F24
ENCODING 20260
SWIDTH 520 0
DWIDTH 18 0
BBX 18 16 0 -3
BITMAP
0c6000
0c6000
0cff80
19ff80
1b8000
393000
783000
59ff00
19ff00
186300
186300
18e300
18c300
19c300
1b8f00
190e00
ENDCHAR
STARTCHAR 4F25
ENCODING 20261
SWIDTH 520 0
DWIDTH 18 0
BBX 18 16 0 -3
BITMAP
0cc000
0cc200
0cc700
18ce00
18dc00
38c800
7bff80
5bff80
18cc00
18cc00
18c600
18c600
18c300
18d380
18f100
18e000
ENDCHAR
STARTCHAR 4F26
ENCODING 20262
SWIDTH 520 0
DWIDTH 18 0
BBX 18 16 0 -3
BITMAP
0c3000
0c3000
0c7800
18ec00
19ce00
3b8780
7f6300
7a6400
186e00
187c00
187800
186000
186000
186300
187f00
183e00
ENDCHAR
STARTCHAR 4F27
ENCODING 20263
SWIDTH 520 0
DWIDTH 18 0
BBX 18 16 0 -3
BITMAP
0c3000
0c3000
0c7800
186c00
18c600
398300
7bff80
5bff00
1ac600
18c600
18ce00
18cc00
18c000
18c180
18ff80
187f00
ENDCHAR
STARTCHAR 4F2A
ENCODING 20266
SWIDTH 520 0
DWIDTH 18 0
BBX 18 16 0 -3
BITMAP
0c3000
0db000
0db000
183000
1bff00
3bff00
786300
586300
186300
18db00
18db00
19db00
198300
1b8300
1f0f00
1a0e00
ENDCHAR
STARTCHAR 4F2B
ENCODING 20267
SWIDTH 520 0
DWIDTH 18 0
BBX 18 16 0 -3
BITMAP
0c3000
0c3000
0c3000
180000
1bff80
3bff80
7b0180
5b0180
180000
180000
180000
180000
180000
1bff80
1bff80
180000
ENDCHAR
STARTCHAR 4F2F
ENCODING 20271
SWIDTH 520 0
DWIDTH 18 0
BBX 18 16 0 -3
BITMAP
0c3000
0c3000
0c6000
19ff00
19ff00
398300
398300
798300
79ff00
19ff00
198300
198300
198300
19ff00
19ff00
198300
ENDCHAR
STARTCHAR 4F30
ENCODING 20272
SWIDTH 520 0
DWIDTH 18 0
BBX 18 16 0 -3
BITMAP
0c3000
0c3000
0c3000
183000
1bff80
3bff80
783000
583000
19fe00
19fe00
198600
198600
198600
19fe00
19fe00
198600
ENDCHAR
STARTCHAR 4F32
ENCODING 20274
SWIDTH 520 0
DWIDTH 18 0
BBX 18 16 0 -3
BITMAP
0c0000
0dff00
0dff00
198300
19ff00
39ff00
798000
59b000
19b300
19bf00
19bc00
19b000
19b000
1b3180
1b3f80
191f00
ENDCHAR
STARTCHAR 4F34
ENCODING 20276
SWIDTH 520 0
DWIDTH 18 0
BBX 18 16 0 -3
BITMAP
0c1800
0c1800
0d9b00
19db00
18db00
381800
79ff00
59ff00
181800
181800
1bff80
1bff80
181800
181800
181800
181800
ENDCHAR
STARTCHAR 4F36
ENCODING 20278
SWIDTH 520 0
DWIDTH 18 0
BBX 18 16 0 -3
BITMAP
0c3000
0c7000
0c7800
18dc00
19ce00
39b700
7b3380
5a0100
19fe00
19fe00
180600
180c00
18d800
18f000
183c00
180c00
ENDCHAR
STARTCHAR 4F38
ENCODING 20280
SWIDTH 520 0
DWIDTH 18 0
BBX 18 16 0 -3
BITMAP
0c3000
0c3000
0fff00
1bff00
1b3300
3b3300
7bff00
7bff00
1b3300
1bff00
1bff00
1b3300
183000
183000
183000
183000
ENDCHAR
STARTCHAR 4F3A
ENCODING 20282
SWIDTH 520 0
DWIDTH 18 0
BBX 18 16 0 -3
BITMAP
0c0000
0dff80
0dff80
180180
19fd80
39fd80
780180
79f980
19f980
199980
19f980
19f980
199980
180180
180780
180700
ENDCHAR
STARTCHAR 4F3C
ENCODING 20284
SWIDTH 520 0
DWIDTH 18 0
BBX 18 16 0 -3
BITMAP
186600
186600
183600
1b3600
333600
330600
730600
730600
332600
336600
33cc00
338e00
331b00
303b80
30f180
306100
ENDCHAR
STARTCHAR 4F3D
ENCODING 20285
SWIDTH 520 0
DWIDTH 18 0
BBX 18 16 0 -3
BITMAP
0d0000
0d0000
0d0000
1bef80
1bef80
396d80
796d80
596d80
196d80
196d80
196d80
196d80
1b6f80
1a6f80
1aed80
1acd80
ENDCHAR
STARTCHAR 4F43
ENCODING 20291
SWIDTH 520 0
DWIDTH 18 0
BBX 18 16 0 -3
BITMAP
180000
1bff80
1bff80
1b1980
3b1980
3b1980
7b1980
5bff80
1bff80
1b1980
1b1980
1b1980
1b1980
1bff80
1bff80
1b0180
ENDCHAR
STARTCHAR 4F46
ENCODING 20294
SWIDTH 520 0
DWIDTH 18 0
BBX 18 16 0 -3
BITMAP
0c0000
0dfe00
0dfe00
198600
198600
39fe00
79fe00
598600
198600
198600
19fe00
19fe00
180000
1bff80
1bff80
180000
ENDCHAR
STARTCHAR 4F4D
ENCODING 20301
SWIDTH 520 0
DWIDTH 18 0
BBX 18 16 0 -3
BITMAP
0c3000
0c3000
0c3000
1bff80
1bff80
380000
398600
798600
798600
18cc00
18cc00
18cc00
180c00
1bff80
1bff80
180000
ENDCHAR
STARTCHAR 4F4E
ENCODING 20302
SWIDTH 520 0
DWIDTH 18 0
BBX 18 16 0 -3
BITMAP
0c0000
0c0f00
0dff00
19f800
199800
399800
79ff80
59ff80
198c00
198c00
198c00
19ac00
19e680
19de80
199b80
180180
ENDCHAR
STARTCHAR 4F4F
ENCODING 20303
SWIDTH 520 0
DWIDTH 18 0
BBX 18 16 0 -3
BITMAP
0c3000
0c3000
0c0000
1bff00
1bff00
383000
783000
783000
19fe00
19fe00
183000
183000
183000
183000
1bff80
1bff80
ENDCHAR
STARTCHAR 4F50
ENCODING 20304
SWIDTH 520 0
DWIDTH 18 0
BBX 18 16 0 -3
BITMAP
0c6000
0c6000
0c6000
1bff80
1bff80
38c000
78c000
78ff00
19ff00
1b9800
1f1800
1a1800
181800
19ff80
19ff80
180000
ENDCHAR
STARTCHAR 4F51
ENCODING 20305
SWIDTH 520 0
DWIDTH 18 0
BBX 18 16 0 -3
BITMAP
0c3000
0c3000
0c3000
1bff80
1bff80
386000
386000
78c000
79ff00
1bff00
1fc300
1ac300
18c300
18ff00
18ff00
18c300
ENDCHAR
STARTCHAR 4F53
ENCODING 20307
SWIDTH 520 0
DWIDTH 18 0
BBX 18 16 0 -3
BITMAP
0c3000
0c3000
0c3000
1bff80
1bff80
387000
787800
78fc00
19b400
19b600
1b3300
1fff80
1afd00
183000
183000
183000
ENDCHAR
STARTCHAR 4F55
ENCODING 20309
SWIDTH 520 0
DWIDTH 18 0
BBX 18 16 0 -3
BITMAP
0c0000
0fff80
1bff80
180600
380600
7bf600
5bf600
1b3600
1b3600
1b3600
1bf600
1bf600
1b3600
180600
180e00
180c00
ENDCHAR
STARTCHAR 4F57
ENCODING 20311
SWIDTH 520 0
DWIDTH 18 0
BBX 18 16 0 -3
BITMAP
0c3000
0c3000
0fff80
1bff80
1b0180
3b0180
78c000
58c400
18ce00
18fc00
18f000
18c000
18c000
18c180
18ff80
187f00
ENDCHAR
STARTCHAR 4F58
ENCODING 20312
SWIDTH 520 0
DWIDTH 18 0
BBX 18 16 0 -3
BITMAP
018000
03c000
076000
0e3800
1c1e00
780780
37fb00
07f800
000000
3fff00
3fff00
04c800
0edc00
1cce00
39c700
118200
ENDCHAR
STARTCHAR 4F59
ENCODING 20313
SWIDTH 520 0
DWIDTH 18 0
BBX 18 16 0 -3
BITMAP
00c000
01e000
03b000
071800
0e0e00
1c0780
7ffb00
37f800
00c000
1ffe00
1ffe00
00c000
08c400
1cce00
39c700
118200
ENDCHAR
STARTCHAR 4F5A
ENCODING 20314
SWIDTH 520 0
DWIDTH 18 0
BBX 18 16 0 -3
BITMAP
0c1800
0d9800
0d9800
19ff00
1bff00
3b1800
7b1800
581800
1bff80
1bff80
181800
183c00
187600
18e700
1bc380
198100
ENDCHAR
STARTCHAR 4F5B
ENCODING 20315
SWIDTH 520 0
DWIDTH 18 0
BBX 18 16 0 -3
BITMAP
0c6c00
0c6c00
1bff80
1bff80
386d80
386d80
7bff80
5bff80
1b6c00
1bff80
1bff80
186d80
186d80
18cf80
198f00
1b0c00
ENDCHAR
STARTCHAR 4F5C
ENCODING 20316
SWIDTH 520 0
DWIDTH 18 0
BBX 18 16 0 -3
BITMAP
0c6000
0c6000
0cc000
18ff80
19ff80
3bb000
793000
783f00
183f00
183000
183000
183f80
183f80
183000
183000
183000
ENDCHAR
STARTCHAR 4F5D
ENCODING 20317
SWIDTH 520 0
DWIDTH 18 0
BBX 18 16 0 -3
BITMAP
0c6000
0c6000
0cff80
18ff80
19c180
3b8180
7bf980
59f980
199980
199980
19f980
19f980
199980
198180
180780
180700
ENDCHAR
STARTCHAR 4F5E
ENCODING 20318
SWIDTH 520 0
DWIDTH 18 0
BBX 18 16 0 -3
BITMAP
0c0000
0cfe00
0cfe00
180000
1bff80
3bff80
780000
586000
1bff80
1bff80
18cc00
18cc00
18f800
183e00
1be700
19c200
ENDCHAR
STARTCHAR 4F5F
ENCODING 20319
SWIDTH 520 0
DWIDTH 18 0
BBX 18 16 0 -3
BITMAP
0c6000
0c6000
0cff00
18ff00
19c600
3b6c00
793800
587c00
1be780
198300
183000
183c00
180c00
18f000
18fe00
180e00
ENDCHAR
STARTCHAR 4F60
ENCODING 20320
SWIDTH 520 0
DWIDTH 18 0
BBX 18 16 0 -3
BITMAP
0c6000
0c6000
0cc000
18ff80
19ff80
3b8180
791980
581800
181800
199b00
199b00
199b00
1b1980
1b1980
187800
187000
ENDCHAR
STARTCHAR 4F63
ENCODING 20323
SWIDTH 520 0
DWIDTH 18 0
BBX 18 16 0 -3
BITMAP
0c0000
0dff80
19ff80
199980
399980
79ff80
79ff80
199980
199980
19ff80
19ff80
199980
199980
1b1980
1b1b80
190300
ENDCHAR
STARTCHAR 4F64
ENCODING 20324
SWIDTH 520 0
DWIDTH 18 0
BBX 18 16 0 -3
BITMAP
0c0000
0dff00
0dff00
18c000
18c000
38fe00
79fe00
598600
19b600
19b600
19b600
198c00
198c00
19ed80
19ef80
198700
ENDCHAR
STARTCHAR 4F65
ENCODING 20325
SWIDTH 520 0
DWIDTH 18 0
BBX 18 16 0 -3
BITMAP
018000
01c000
036000
063800
0c1c00
3fff80
77fb00
200000
00cc00
18cc00
18cc00
0cd800
0cd800
0c1800
3fff00
3fff00
ENDCHAR
STARTCHAR 4F67
ENCODING 20327
SWIDTH 520 0
DWIDTH 18 0
BBX 18 16 0 -3
BITMAP
0c3000
0c3000
0c3f00
183f00
183000
383000
7bff80
5bff80
183000
183000
183800
183e00
183700
183200
183000
183000
ENDCHAR
STARTCHAR 4F69
ENCODING 20329
SWIDTH 520 0
DWIDTH 18 0
BBX 18 16 0 -3
BITMAP
180000
1fff00
1fff00
360300
36fb00
76fb00
762300
36fb00
36fb00
36ab00
36ab00
36ab00
36bb00
3cbb00
3c2380
342180
ENDCHAR
STARTCHAR 4F6C
ENCODING 20332
SWIDTH 520 0
DWIDTH 18 0
BBX 18 16 0 -3
BITMAP
0c6000
0c6000
0dfb00
19fb00
186600
386c00
7bff80
7bff80
183000
18e600
1fff00
1b7800
186000
186180
187f80
183f00
ENDCHAR
STARTCHAR 4F6F
ENCODING 20335
SWIDTH 520 0
DWIDTH 18 0
BBX 18 16 0 -3
BITMAP
0cc600
0cc600
0c0c00
1bff00
1bff00
383000
783000
5bff00
1bff00
183000
183000
1bff80
1bff80
183000
183000
183000
ENDCHAR
STARTCHAR 4F70
ENCODING 20336
SWIDTH 520 0
DWIDTH 18 0
BBX 18 16 0 -3
BITMAP
0c0000
0dff80
0dff80
183000
183000
39ff00
79ff00
598300
198300
19ff00
19ff00
198300
198300
19ff00
19ff00
198300
ENDCHAR
STARTCHAR 4F73
ENCODING 20339
SWIDTH 520 0
DWIDTH 18 0
BBX 18 16 0 -3
BITMAP
0c3000
0c3000
0dff00
19ff00
183000
383000
7bff80
5bff80
183000
183000
19ff00
19ff00
183000
183000
1bff80
1bff80
ENDCHAR
STARTCHAR 4F74
ENCODING 20340
SWIDTH 520 0
DWIDTH 18 0
BBX 18 16 0 -3
BITMAP
0c0000
0dff80
0dff80
18c600
18fe00
38fe00
78c600
58c600
18fe00
18fe00
18c780
1bff80
1bfe00
180600
180600
180600
ENDCHAR
STARTCHAR 4F76
ENCODING 20342
SWIDTH 520 0
DWIDTH 18 0
BBX 18 16 0 -3
BITMAP
0c1800
0c1800
0fff80
1bff80
181800
381800
79ff00
59ff00
180000
19ff00
19ff00
198300
198300
19ff00
19ff00
198300
ENDCHAR
STARTCHAR 4F7B
ENCODING 20347
SWIDTH 520 0
DWIDTH 18 0
BBX 18 16 0 -3
BITMAP
0c6c00
0c6c00
0c6d80
1b6d80
1b6f00
39ef00
79ec00
586c00
18ef00
1bef80
1b6d80
18cc00
18cc00
19cd80
1b8f80
190700
ENDCHAR
STARTCHAR 4F7C
ENCODING 20348
SWIDTH 520 0
DWIDTH 18 0
BBX 18 16 0 -3
BITMAP
0c1800
0c1800
0dff80
19ff80
180000
38c600
79c700
5b8380
1b0d80
18cc00
18cc00
186c00
183800
187c00
1bef80
198300
ENDCHAR
STARTCHAR 4F7E
ENCODING 20350
SWIDTH 520 0
DWIDTH 18 0
BBX 18 16 0 -3
BITMAP
0c6c00
0c6c00
0cc600
19c700
1b8380
3fff00
7afe00
58c600
18fe00
18fe00
18c600
18fe00
18fe00
18c600
18ce00
18cc00
ENDCHAR
STARTCHAR 4F7F
ENCODING 20351
SWIDTH 520 0
DWIDTH 18 0
BBX 18 16 0 -3
BITMAP
183000
183000
1bff80
33ff80
303000
73ff00
73ff00
733300
33ff00
33ff00
303000
31b000
31e000
307800
37df80
338700
ENDCHAR
STARTCHAR 4F83
ENCODING 20355
SWIDTH 520 0
DWIDTH 18 0
BBX 18 16 0 -3
BITMAP
0c0000
0dfe00
0dfe00
198600
198600
39fe00
79fe00
580000
19b600
19b600
19b600
19b600
1b3600
1b3680
1b3780
1a0380
ENDCHAR
STARTCHAR 4F84
ENCODING 20356
SWIDTH 520 0
DWIDTH 18 0
BBX 18 16 0 -3
BITMAP
0c0000
0dff00
0dff00
186000
18c600
398600
79ff00
79ff00
183000
183000
19ff00
19ff00
183000
183000
1bff80
1bff80
ENDCHAR
STARTCHAR 4F88
ENCODING 20360
SWIDTH 520 0
DWIDTH 18 0
BBX 18 16 0 -3
BITMAP
0c6000
0c7e00
0cfe00
19c600
19ac00
383800
787000
5be000
19bf00
187f00
19c300
19b300
181e00
183c00
1bf000
1bc000
ENDCHAR
STARTCHAR 4F89
ENCODING 20361
SWIDTH 520 0
DWIDTH 18 0
BBX 18 16 0 -3
BITMAP
0c3000
0c3000
0fff80
1bff80
18cc00
3b8780
7b7d80
580000
1bff80
1bff80
186000
187f00
187f00
180300
181f00
181e00
ENDCHAR
STARTCHAR 4F8B
ENCODING 20363
SWIDTH 520 0
DWIDTH 18 0
BBX 18 16 0 -3
BITMAP
180180
1be180
1be180
318d80
318d80
31ed80
73ed80
736d80
36ed80
32ed80
306d80
30cd80
31c180
338180
370380
320300
ENDCHAR
STARTCHAR 4F8D
ENCODING 20365
SWIDTH 520 0
DWIDTH 18 0
BBX 18 16 0 -3
BITMAP
0c3000
0c3000
0dff00
19ff00
183000
383000
7bff80
5bff80
180600
1bff80
1bff80
18c600
18c600
180600
181e00
181c00
ENDCHAR
STARTCHAR 4F8F
ENCODING 20367
SWIDTH 520 0
DWIDTH 18 0
BBX 18 16 0 -3
BITMAP
0c1800
0d9800
0dff00
1bff00
1b1800
381800
7bff80
5bff80
183800
187c00
18de00
19db00
1b9b80
1f1900
1a1800
181800
ENDCHAR
STARTCHAR 4F91
ENCODING 20369
SWIDTH 520 0
DWIDTH 18 0
BBX 18 16 0 -3
BITMAP
0c6000
0c6000
0fff80
1bff80
18c000
38ff00
79ff00
5bc300
1fff00
1aff00
18c300
18ff00
18ff00
18c300
18c700
18c600
ENDCHAR
STARTCHAR 4F94
ENCODING 20372
SWIDTH 520 0
DWIDTH 18 0
BBX 18 16 0 -3
BITMAP
0c6000
0c6000
0cc600
19ff00
19ff00
380000
799800
59ff00
1bff00
1b1800
181800
1bff80
1bff80
181800
181800
181800
ENDCHAR
STARTCHAR 4F97
ENCODING 20375
SWIDTH 520 0
DWIDTH 18 0
BBX 18 16 0 -3
BITMAP
0c0000
0fff80
1bff80
1b0180
3b7d80
7b7d80
7b0180
1b7d80
1b7d80
1b6d80
1b6d80
1b7d80
1b7d80
1b0180
1b0780
1b0700
ENDCHAR
STARTCHAR 4F9B
ENCODING 20379
SWIDTH 520 0
DWIDTH 18 0
BBX 18 16 0 -3
BITMAP
0ccc00
0ccc00
0ccc00
18cc00
1bff80
3bff80
78cc00
58cc00
18cc00
1bff80
1bff80
180000
188200
19c700
1b8380
190100
ENDCHAR
STARTCHAR 4F9D
ENCODING 20381
SWIDTH 520 0
DWIDTH 18 0
BBX 18 16 0 -3
BITMAP
0c3000
0c3000
0fff80
1bff80
186000
386000
78d900
58db80
19df00
19ce00
1bcc00
1ec600
18c700
18d380
18f100
18e000
ENDCHAR
STARTCHAR 4FA0
ENCODING 20384
SWIDTH 520 0
DWIDTH 18 0
BBX 18 16 0 -3
BITMAP
0c3000
0c3000
1bff00
1bff00
183000
39b600
79b600
783000
1bff80
1bff80
183800
186c00
18ee00
19c700
1b8380
190100
ENDCHAR
STARTCHAR 4FA3
ENCODING 20387
SWIDTH 520 0
DWIDTH 18 0
BBX 18 16 0 -3
BITMAP
0c0000
0cfe00
0cfe00
18c600
18c600
38fe00
78fe00
580000
19ff00
19ff00
198300
198300
198300
19ff00
19ff00
198300
ENDCHAR
STARTCHAR 4FA5
ENCODING 20389
SWIDTH 520 0
DWIDTH 18 0
BBX 18 16 0 -3
BITMAP
186000
187f00
1bff00
33e600
306e00
703980
73ff80
31c700
300000
33ff80
33ff80
30cc00
30cc00
31cd80
378f80
330700
ENDCHAR
STARTCHAR 4FA6
ENCODING 20390
SWIDTH 520 0
DWIDTH 18 0
BBX 18 16 0 -3
BITMAP
0c3000
0c3000
0c3f80
183f80
183000
39ff00
79ff00
598300
19b300
19b300
19b300
19b300
186400
18ee00
1bc700
198200
ENDCHAR
STARTCHAR 4FA7
ENCODING 20391
SWIDTH 520 0
DWIDTH 18 0
BBX 18 16 0 -3
BITMAP
180180
1ff180
1ff580
363580
36b580
76b580
76b580
36b580
36b580
36b580
36b580
318180
316180
337180
363380
320300
ENDCHAR
STARTCHAR 4FA8
ENCODING 20392
SWIDTH 520 0
DWIDTH 18 0
BBX 18 16 0 -3
BITMAP
0c0e00
0dff00
0df000
183000
1bff80
3bff80
786c00
5bc600
1b8380
18cd80
18cc00
18cc00
18cc00
198c00
1b8c00
190c00
ENDCHAR
STARTCHAR 4FA9
ENCODING 20393
SWIDTH 520 0
DWIDTH 18 0
BBX 18 16 0 -3
BITMAP
0c3000
0c3000
0c7800
18ec00
19c600
3b8380
7ffd80
7afc00
180000
1bff00
1bff00
186000
18c600
199e00
19ff00
19e300
ENDCHAR
STARTCHAR 4FAA
ENCODING 20394
SWIDTH 520 0
DWIDTH 18 0
BBX 18 16 0 -3
BITMAP
0c3000
0c3000
0fff80
1bff80
18cc00
387800
78fc00
5bcf80
1b0300
18cc00
18cc00
18cc00
18cc00
198c00
1b8c00
190c00
ENDCHAR
STARTCHAR 4FAC
ENCODING 20396
SWIDTH 520 0
DWIDTH 18 0
BBX 18 16 0 -3
BITMAP
0c3000
0c3000
0fff00
1bff00
1b6300
3b6300
786000
58da00
18db00
19de00
1bcc00
1fce00
1ac700
18e380
18e100
18c000
ENDCHAR
STARTCHAR 4FAE
ENCODING 20398
SWIDTH 520 0
DWIDTH 18 0
BBX 18 16 0 -3
BITMAP
0cc000
0cff80
0dff80
1b8000
1bfe00
39fe00
79b600
59b600
1fff80
1fff80
19b600
19b600
19ff00
19ff00
180600
180e00
ENDCHAR
STARTCHAR 4FAF
ENCODING 20399
SWIDTH 520 0
DWIDTH 18 0
BBX 18 16 0 -3
BITMAP
180000
19fc00
19fc00
180c00
33ff80
33ff80
718000
71ff00
33ff00
333000
33ff80
33ff80
306c00
30e700
33c380
318100
ENDCHAR
STARTCHAR 4FB5
ENCODING 20405
SWIDTH 520 0
DWIDTH 18 0
BBX 18 16 0 -3
BITMAP
0dff00
0c0300
19ff00
180300
39ff00
780000
7bff80
1bff80
1b0180
18fe00
18fe00
186600
186c00
183800
1bff80
19c700
ENDCHAR
STARTCHAR 4FBF
ENCODING 20415
SWIDTH 520 0
DWIDTH 18 0
BBX 18 16 0 -3
BITMAP
0dff80
0dff80
0c3000
1bff00
1bff00
3b3300
7bff00
5b3300
1bff00
1bff00
183000
19b000
19e000
18f800
1f9f80
1b0700
ENDCHAR
STARTCHAR 4FC3
ENCODING 20419
SWIDTH 520 0
DWIDTH 18 0
BBX 18 16 0 -3
BITMAP
0c0000
0dff00
0dff00
198300
198300
39ff00
79ff00
781800
199800
199f00
199f00
199800
19d800
1b7800
1b3f80
190f80
ENDCHAR
STARTCHAR 4FC4
ENCODING 20420
SWIDTH 520 0
DWIDTH 18 0
BBX 18 16 0 -3
BITMAP
0c0c00
0c6c00
0ded80
19cd80
18cc00
3bff80
7bff80
78cc00
18ed80
1bed80
1bc700
18ce00
18de80
18fb80
19d180
198080
ENDCHAR
STARTCHAR 4FC5
ENCODING 20421
SWIDTH 520 0
DWIDTH 18 0
BBX 18 16 0 -3
BITMAP
0c3600
0c3600
0c3000
1bff80
1bff80
383000
7b3200
5bb700
19be00
187c00
18f600
19b600
1f3300
1a3380
187100
186000
ENDCHAR
STARTCHAR 4FCA
ENCODING 20426
SWIDTH 520 0
DWIDTH 18 0
BBX 18 16 0 -3
BITMAP
0c6000
0c6000
0cc600
19ff00
19ff00
38c600
7bc780
7b6180
187e00
18fe00
19c600
1bec00
193800
187c00
1bef80
198700
ENDCHAR
STARTCHAR 4FCE
ENCODING 20430
SWIDTH 520 0
DWIDTH 18 0
BBX 18 16 0 -3
BITMAP
180000
187f00
1c7f00
3e6300
376300
627f00
607f00
186300
186300
187f00
1c7f00
3e6300
376300
726300
61ff80
21ff80
ENDCHAR
STARTCHAR 4FCF
ENCODING 20431
SWIDTH 520 0
DWIDTH 18 0
BBX 18 16 0 -3
BITMAP
0c1800
0d9b00
19df00
18de00
381800
79ff00
59ff00
198300
19ff00
19ff00
198300
19ff00
19ff00
198300
198700
198600
ENDCHAR
STARTCHAR 4FD0
ENCODING 20432
SWIDTH 520 0
DWIDTH 18 0
BBX 18 16 0 -3
BITMAP
180180
18c180
1fe180
378d80
318d80
37ed80
77ed80
718d80
33cd80
33ed80
37ad80
358d80
318180
318180
318380
318300
ENDCHAR
STARTCHAR 4FD1
ENCODING 20433
SWIDTH 520 0
DWIDTH 18 0
BBX 18 16 0 -3
BITMAP
0c0000
0dff00
0dff00
186600
183800
3bff00
7bff00
5b3300
1bff00
1bff00
1b3300
1bff00
1bff00
1b3300
1b3700
1b3600
ENDCHAR
STARTCHAR 4FD7
ENCODING 20439
SWIDTH 520 0
DWIDTH 18 0
BBX 18 16 0 -3
BITMAP
0c4200
0ce700
0dc380
1bb100
193000
387800
78ec00
59c600
1b8380
1fff80
1afe00
18c600
18c600
18fe00
18fe00
18c600
ENDCHAR
STARTCHAR 4FD8
ENCODING 20440
SWIDTH 520 0
DWIDTH 18 0
BBX 18 16 0 -3
BITMAP
0c0e00
0dff00
0df000
180300
19b700
39b600
79fe00
79fe00
180c00
181800
1bff80
1bff80
181800
181800
187800
187000
ENDCHAR
STARTCHAR 4FDA
ENCODING 20442
SWIDTH 520 0
DWIDTH 18 0
BBX 18 16 0 -3
BITMAP
0c0000
0dff00
0dff00
19b300
19ff00
39ff00
79b300
59b300
19ff00
19ff00
183000
19ff00
19ff00
183000
1bff80
1bff80
ENDCHAR
STARTCHAR 4FDC
ENCODING 20444
SWIDTH 520 0
DWIDTH 18 0
BBX 18 16 0 -3
BITMAP
0c3000
0dff00
0dff00
19b300
19ff00
39b300
79ff00
59ff00
180000
1bff80
1bff80
18c000
18ff00
180300
180f00
180e00
ENDCHAR
STARTCHAR 4FDD
ENCODING 20445
SWIDTH 520 0
DWIDTH 18 0
BBX 18 16 0 -3
BITMAP
0dff00
0dff00
0d8300
198300
19ff00
39ff00
781800
781800
1bff80
1bff80
18dc00
19de00
1b9b00
1f1b80
1a1900
181800
ENDCHAR
STARTCHAR 4FDE
ENCODING 20446
SWIDTH 520 0
DWIDTH 18 0
BBX 18 16 0 -3
BITMAP
00c000
01e000
033000
061c00
1fff80
7bf300
300000
1fb600
1fb600
19b600
1fb600
19b600
1fb600
198600
1b8e00
1b0c00
ENDCHAR
STARTCHAR 4FDF
ENCODING 20447
SWIDTH 520 0
DWIDTH 18 0
BBX 18 16 0 -3
BITMAP
0c6000
0c6000
0cc600
19ff00
19ff00
38c000
78fe00
59fe00
19b000
183000
1bff80
1bff80
186c00
18e700
1bc380
198100
ENDCHAR
STARTCHAR 4FE1
ENCODING 20449
SWIDTH 520 0
DWIDTH 18 0
BBX 18 16 0 -3
BITMAP
0c3000
0c3000
0fff80
1bff80
180000
39ff00
780000
79ff00
19ff00
180000
19ff00
19ff00
198300
19ff00
19ff00
198300
ENDCHAR
STARTCHAR 4FE3
ENCODING 20451
SWIDTH 520 0
DWIDTH 18 0
BBX 18 16 0 -3
BITMAP
0c0000
0dff00
0dff00
198300
19ff00
39ff00
780000
59ff00
19ff00
183000
1bff80
1bff80
186c00
19c700
1f8380
1b0100
ENDCHAR
STARTCHAR 4FE6
ENCODING 20454
SWIDTH 520 0
DWIDTH 18 0
BBX 18 16 0 -3
BITMAP
0c3000
0c3000
0fff80
1bff80
183000
3bff00
786000
5bff80
1bff80
18c600
19ff80
19ff80
1b6600
1f6600
1a0e00
180c00
ENDCHAR
STARTCHAR 4FE8
ENCODING 20456
SWIDTH 520 0
DWIDTH 18 0
BBX 18 16 0 -3
BITMAP
0dff80
0dff80
0c6c00
196d80
196d80
386c00
79ff80
59ff80
198000
198000
198000
198000
1b0000
1b0000
1b0000
190000
ENDCHAR
STARTCHAR 4FE9
ENCODING 20457
SWIDTH 520 0
DWIDTH 18 0
BBX 18 16 0 -3
BITMAP
180000
1bff80
1bff80
186c00
33ff80
33ff80
736d80
736d80
337d80
337d80
33cf80
33db80
339980
330180
330380
330300
ENDCHAR
STARTCHAR 4FEA
ENCODING 20458
SWIDTH 520 0
DWIDTH 18 0
BBX 18 16 0 -3
BITMAP
1bff80
1bff80
180000
33df80
33df80
725980
735d80
335d80
33df80
32db80
32db80
325980
325980
325980
32db80
32db00
ENDCHAR
STARTCHAR 4FED
ENCODING 20461
SWIDTH 520 0
DWIDTH 18 0
BBX 18 16 0 -3
BITMAP
0c3000
0c3000
0c7800
18ec00
19c700
3b8380
7ffd00
5afc00
180600
19b600
19b600
19b600
198c00
1bff80
1bff80
180000
ENDCHAR
STARTCHAR 4FEE
ENCODING 20462
SWIDTH 520 0
DWIDTH 18 0
BBX 18 16 0 -3
BITMAP
186000
187e00
187e00
18e600
36fe00
361c00
77f780
77e380
361800
36f000
360e00
363800
36e700
301f00
31f800
30e000
ENDCHAR
STARTCHAR 4FEF
ENCODING 20463
SWIDTH 520 0
DWIDTH 18 0
BBX 18 16 0 -3
BITMAP
183000
183000
1bff80
1bff80
330000
336300
736f80
73ef80
33e300
336b00
336b00
336b00
366300
366300
366700
326600
ENDCHAR
STARTCHAR 4FF1
ENCODING 20465
SWIDTH 520 0
DWIDTH 18 0
BBX 18 16 0 -3
BITMAP
0c0000
0dff00
0dff00
198300
19ff00
398300
79ff00
798300
19ff00
19ff00
198300
1bff80
1bff80
18c600
1bc780
1b0180
ENDCHAR
STARTCHAR 4FF3
ENCODING 20467
SWIDTH 520 0
DWIDTH 18 0
BBX 18 16 0 -3
BITMAP
0c6c00
0c6c00
0c6c00
1bef80
1bef80
386c00
786c00
59ef00
19ef00
186c00
186c00
1bef80
1bef80
186c00
186c00
186c00
ENDCHAR
STARTCHAR 4FF8
ENCODING 20472
SWIDTH 520 0
DWIDTH 18 0
BBX 18 16 0 -3
BITMAP
0c6000
0fff00
0fff00
186000
1bff00
386000
7bff80
5bff80
198c00
1f3780
1efd80
183000
1bff00
1bff00
183000
183000
ENDCHAR
STARTCHAR 4FFA
ENCODING 20474
SWIDTH 520 0
DWIDTH 18 0
BBX 18 16 0 -3
BITMAP
0c6000
0c6000
0fff80
1bff80
18cc00
39b600
7bff80
5bff80
19b600
19fe00
19b600
19fe00
19fe00
183180
183f80
181f00
ENDCHAR
STARTCHAR 4FFE
ENCODING 20478
SWIDTH 520 0
DWIDTH 18 0
BBX 18 16 0 -3
BITMAP
0c6000
0c6000
0fff00
1bff00
1b3300
3bff00
7bff00
5b3300
1bff00
1bff00
186c00
1fff80
1fff80
180c00
180c00
180c00
ENDCHAR
STARTCHAR 500C
ENCODING 20492
SWIDTH 520 0
DWIDTH 18 0
BBX 18 16 0 -3
BITMAP
0c1800
0c1800
0fff80
1bff80
1b0180
38fe00
78fe00
58c600
18fe00
18fe00
18c000
18ff00
18c300
18ff00
18ff00
18c300
ENDCHAR
STARTCHAR 500D
ENCODING 20493
SWIDTH 520 0
DWIDTH 18 0
BBX 18 16 0 -3
BITMAP
0c3000
0c3000
0dff00
19ff00
18c600
386c00
7bff80
5bff80
180000
19ff00
19ff00
198300
198300
19ff00
19ff00
198300
ENDCHAR
STARTCHAR 500F
ENCODING 20495
SWIDTH 520 0
DWIDTH 18 0
BBX 18 16 0 -3
BITMAP
0c6000
0c7f00
0c7f00
18e300
1af600
3a1c00
7aff80
5ae380
1a1800
1a1b00
1aff80
1aff80
181c00
187700
19e380
18c100
ENDCHAR
STARTCHAR 5012
ENCODING 20498
SWIDTH 520 0
DWIDTH 18 0
BBX 18 16 0 -3
BITMAP
180180
1bf180
1bf180
318580
333580
73f580
73f580
30c580
30c580
33f580
33f580
30c580
30f180
33f180
338780
300700
ENDCHAR
STARTCHAR 5014
ENCODING 20500
SWIDTH 520 0
DWIDTH 18 0
BBX 18 16 0 -3
BITMAP
180000
1bff00
1bff00
330300
33ff00
33ff00
731800
735b00
335b00
337f00
337f00
331800
36db00
36db00
36ff00
32ff00
ENDCHAR
STARTCHAR 5018
ENCODING 20504
SWIDTH 520 0
DWIDTH 18 0
BBX 18 16 0 -3
BITMAP
0c3000
0db300
0db700
19b600
183000
3bff80
7bff80
5b0180
1b7d80
1b7d80
1b6d80
1b6d80
1b7d80
1b7d80
1b0380
1b0300
ENDCHAR
STARTCHAR 5019
ENCODING 20505
SWIDTH 520 0
DWIDTH 18 0
BBX 18 16 0 -3
BITMAP
180000
187e00
187e00
360600
36ff80
36ff80
766000
76ff00
36ff00
361800
36ff80
36ff80
303600
307700
33e380
31c100
ENDCHAR
STARTCHAR 501A
ENCODING 20506
SWIDTH 520 0
DWIDTH 18 0
BBX 18 16 0 -3
BITMAP
0c3000
0dff00
0dff00
183000
19ec00
38c600
7bff80
7bff80
180300
1bf300
1bf300
1b3300
1bf300
1bf300
180700
180600
ENDCHAR
STARTCHAR 501C
ENCODING 20508
SWIDTH 520 0
DWIDTH 18 0
BBX 18 16 0 -3
BITMAP
0c0000
0dff80
0dff80
199980
19bd80
399980
79bd80
59bd80
198180
19bd80
19bd80
19a580
19bd80
1b3d80
1b0380
1b0300
ENDCHAR
STARTCHAR 501F
ENCODING 20511
SWIDTH 520 0
DWIDTH 18 0
BBX 18 16 0 -3
BITMAP
0ccc00
0ccc00
0dff00
19ff00
18cc00
3bff80
7bff80
780000
19ff00
19ff00
198300
19ff00
198300
19ff00
19ff00
198300
ENDCHAR
STARTCHAR 5021
ENCODING 20513
SWIDTH 520 0
DWIDTH 18 0
BBX 18 16 0 -3
BITMAP
0dff00
0dff00
0d8300
19ff00
198300
39ff00
79ff00
580000
1bff80
1bff80
1b0180
1bff80
1b0180
1bff80
1bff80
1b0180
ENDCHAR
STARTCHAR 5025
ENCODING 20517
SWIDTH 520 0
DWIDTH 18 0
BBX 18 16 0 -3
BITMAP
0c3000
0c3000
0fff80
1bff80
1b0180
384400
78ee00
5bc700
198200
180000
19ff00
19ff00
183000
183000
1bff80
1bff80
ENDCHAR
STARTCHAR 5026
ENCODING 20518
SWIDTH 520 0
DWIDTH 18 0
BBX 18 16 0 -3
BITMAP
19b600
19b600
183000
19ff00
31ff00
306000
73ff80
73ff80
30c600
31ff80
37fd80
36cc00
30dc00
30c300
30ff00
307e00
ENDCHAR
STARTCHAR 5028
ENCODING 20520
SWIDTH 520 0
DWIDTH 18 0
BBX 18 16 0 -3
BITMAP
0c0000
0dff00
0dff00
198300
19ff00
39ff00
799800
59ff80
19ff80
199800
19ff00
197f00
1b6300
1b7f00
1b7f00
1a6300
ENDCHAR
STARTCHAR 5029
ENCODING 20521
SWIDTH 520 0
DWIDTH 18 0
BBX 18 16 0 -3
BITMAP
0c3000
0dff00
0dff00
183000
19ff00
383000
7bff80
580000
19ff00
198300
19ff00
198300
19ff00
198300
198700
198600
ENDCHAR
STARTCHAR 502A
ENCODING 20522
SWIDTH 520 0
DWIDTH 18 0
BBX 18 16 0 -3
BITMAP
0c6000
0def00
0dcf00
198300
19ef00
39ef00
798300
598300
19ff00
19ff00
186c00
186c00
18cc00
19cd80
1b8f80
1b0700
ENDCHAR
STARTCHAR 502C
ENCODING 20524
SWIDTH 520 0
DWIDTH 18 0
BBX 18 16 0 -3
BITMAP
0c6000
0c7f00
0c7f00
186000
1bff00
3bff00
7b0300
5bff00
1b0300
1bff00
1bff00
183000
1fff80
1fff80
183000
183000
ENDCHAR
STARTCHAR 502D
ENCODING 20525
SWIDTH 520 0
DWIDTH 18 0
BBX 18 16 0 -3
BITMAP
0dfe00
0dff00
0c3000
1bff80
1bff80
38f600
7bb380
5b3100
186000
1bff80
1bff80
18c600
18fc00
183e00
1be780
19c300
ENDCHAR
STARTCHAR 502E
ENCODING 20526
SWIDTH 520 0
DWIDTH 18 0
BBX 18 16 0 -3
BITMAP
0dff00
0dff00
0db300
19ff00
19b300
39ff00
79ff00
583000
1bff80
1bff80
187800
18fc00
19b700
1fb380
1b3100
183000
ENDCHAR
STARTCHAR 503A
ENCODING 20538
SWIDTH 520 0
DWIDTH 18 0
BBX 18 16 0 -3
BITMAP
0c3000
0dff00
0dff00
183000
19ff00
383000
7bff80
580000
19ff00
19ff00
198300
19b300
19b300
187600
1be780
1bc180
ENDCHAR
STARTCHAR 503C
ENCODING 20540
SWIDTH 520 0
DWIDTH 18 0
BBX 18 16 0 -3
BITMAP
0c3000
0fff80
1bff80
183000
39fe00
39fe00
798600
79fe00
19fe00
198600
19fe00
198600
19fe00
198600
1bff80
1bff80
ENDCHAR
STARTCHAR 503E
ENCODING 20542
SWIDTH 520 0
DWIDTH 18 0
BBX 18 16 0 -3
BITMAP
180000
187f80
367f80
360c00
367f80
777f80
776180
366d80
366d80
366d80
366d80
376d80
371c00
363b00
30f380
306180
ENDCHAR
STARTCHAR 5043
ENCODING 20547
SWIDTH 520 0
DWIDTH 18 0
BBX 18 16 0 -3
BITMAP
0fff80
0fff80
0f0000
1b7f00
1b6300
3b7f00
7b6300
5b7f00
1b1800
1bff80
1b3300
1b3e00
1b1f00
1b7300
1bff80
1bff80
ENDCHAR
STARTCHAR 5047
ENCODING 20551
SWIDTH 520 0
DWIDTH 18 0
BBX 18 16 0 -3
BITMAP
180000
1bef80
1bef80
1b6180
3b6f80
3bef80
7be000
5b1f80
1bff80
1bed80
1b0d80
1bef00
1be600
1b0f00
1b3b80
1b1100
ENDCHAR
STARTCHAR 5048
ENCODING 20552
SWIDTH 520 0
DWIDTH 18 0
BBX 18 16 0 -3
BITMAP
0dff00
0dff00
0d8300
19ff00
198300
39ff00
79ff00
58c000
19ff80
1bff80
1b3980
19ed80
198180
19f980
19ff80
180700
ENDCHAR
STARTCHAR 504C
ENCODING 20556
SWIDTH 520 0
DWIDTH 18 0
BBX 18 16 0 -3
BITMAP
0ccc00
0ccc00
0fff80
1bff80
18cc00
383000
7bff80
5bff80
186000
18ff00
19ff00
1bc300
1fc300
1aff00
18ff00
18c300
ENDCHAR
STARTCHAR 504E
ENCODING 20558
SWIDTH 520 0
DWIDTH 18 0
BBX 18 16 0 -3
BITMAP
0dff00
0dff00
0d9300
19ff00
199300
39ff00
79ff00
580000
1bff80
1bff80
199900
199b00
198e00
198c00
19c780
19c300
ENDCHAR
STARTCHAR 504F
ENCODING 20559
SWIDTH 520 0
DWIDTH 18 0
BBX 18 16 0 -3
BITMAP
0c3000
0dff00
0dff00
198300
19ff00
39ff00
798000
79ff80
19ff80
1bad80
1fff80
1fff80
19ad80
19ad80
19af80
198300
ENDCHAR
STARTCHAR 5055
ENCODING 20565
SWIDTH 520 0
DWIDTH 18 0
BBX 18 16 0 -3
BITMAP
0d8c00
0d8d80
0def80
19ee00
198d80
39ef80
79e700
586000
19ff00
19ff00
198300
19ff00
198300
19ff00
19ff00
198300
ENDCHAR
STARTCHAR 505A
ENCODING 20570
SWIDTH 520 0
DWIDTH 18 0
BBX 18 16 0 -3
BITMAP
0d8c00
0d8c00
198c00
198f80
3bdf80
3bdb00
79b300
79bb00
1bdb00
1b5b00
1b4e00
1bc600
1bce00
1b1f00
183b80
181100
ENDCHAR
STARTCHAR 505C
ENCODING 20572
SWIDTH 520 0
DWIDTH 18 0
BBX 18 16 0 -3
BITMAP
183000
1bff80
1bff80
300000
31fe00
718600
71fe00
700000
37ff80
37ff80
360180
31fe00
303000
303000
307000
306000
ENDCHAR
STARTCHAR 5065
ENCODING 20581
SWIDTH 520 0
DWIDTH 18 0
BBX 18 16 0 -3
BITMAP
301800
373f00
373f00
331b00
337f80
767f80
779b00
77bf00
319800
35bf00
359800
377f80
337f80
379800
3eff80
347f80
ENDCHAR
STARTCHAR 506C
ENCODING 20588
SWIDTH 520 0
DWIDTH 18 0
BBX 18 16 0 -3
BITMAP
0cc000
0cc000
0dff00
1bff00
1b6b00
3acb00
78fb00
5bb300
1b6f00
18c600
181800
18d980
1ad980
1ac600
1afe00
187c00
ENDCHAR
STARTCHAR 5076
ENCODING 20598
SWIDTH 520 0
DWIDTH 18 0
BBX 18 16 0 -3
BITMAP
180000
1bff00
1bff00
333300
33ff00
733300
73ff00
33ff00
303000
37ff80
37ff80
363580
36fd80
36fd80
360380
360300
ENDCHAR
STARTCHAR 5077
ENCODING 20599
SWIDTH 520 0
DWIDTH 18 0
BBX 18 16 0 -3
BITMAP
0c3000
0c7800
1ccc00
198600
3ffb80
3b7980
780000
7beb00
1b6b00
1beb00
1b6b00
1beb00
1beb00
1b6300
1b6700
1b6600
ENDCHAR
STARTCHAR 507B
ENCODING 20603
SWIDTH 520 0
DWIDTH 18 0
BBX 18 16 0 -3
BITMAP
0c3000
0db600
0db600
1bff80
1bff80
38fc00
7bb780
5b3380
186000
1bff80
1bff80
18c600
18fc00
183e00
1be780
19c300
ENDCHAR
STARTCHAR 507E
ENCODING 20606
SWIDTH 520 0
DWIDTH 18 0
BBX 18 16 0 -3
BITMAP
0c3000
0dff00
0dff00
183000
18c600
3bff80
7bff80
58c600
19ff00
19ff00
198300
19b300
19b300
186c00
1bcf80
1b8180
ENDCHAR
STARTCHAR 507F
ENCODING 20607
SWIDTH 520 0
DWIDTH 18 0
BBX 18 16 0 -3
BITMAP
0c3000
0db600
19b600
183000
3bff80
3bff80
7b0180
58fe00
18fe00
180000
1bff80
1bff80
18c000
198600
1bff00
1bff00
ENDCHAR
STARTCHAR 5080
ENCODING 20608
SWIDTH 520 0
DWIDTH 18 0
BBX 18 16 0 -3
BITMAP
0c6000
0c6000
1bff00
1bff00
3b3300
3bff00
7bff00
7b3300
1bff00
1bff00
187a00
187d00
18df00
19d980
1f9f80
1b0f00
ENDCHAR
STARTCHAR 5085
ENCODING 20613
SWIDTH 520 0
DWIDTH 18 0
BBX 18 16 0 -3
BITMAP
0c3600
0fff80
1bff80
183000
3bff00
3b3300
7bff00
7b3300
1bff00
1b3300
180600
1fff80
1fff80
18c600
186e00
180c00
ENDCHAR
STARTCHAR 5088
ENCODING 20616
SWIDTH 520 0
DWIDTH 18 0
BBX 18 16 0 -3
BITMAP
0c0000
0fff80
1bff80
186c00
3bff80
3bff80
7b6d80
5bff80
1bff80
181800
1bff80
1bff80
18de00
1b9b80
1b1980
181800
ENDCHAR
STARTCHAR 508D
ENCODING 20621
SWIDTH 520 0
DWIDTH 18 0
BBX 18 16 0 -3
BITMAP
0c3000
0dff80
19ff80
186600
3bff80
3bff80
7b0180
583000
1bff80
1bff80
186000
187e00
187e00
18c600
198e00
1b0c00
ENDCHAR
STARTCHAR 50A3
ENCODING 20643
SWIDTH 520 0
DWIDTH 18 0
BBX 18 16 0 -3
BITMAP
0c3000
0fff00
0fff00
183000
19fe00
386000
7bff80
7bff80
198c00
1f3780
1e3380
19b600
18fc00
1bb700
1b7300
186000
ENDCHAR
STARTCHAR 50A5
ENCODING 20645
SWIDTH 520 0
DWIDTH 18 0
BBX 18 16 0 -3
BITMAP
0c3000
0db600
0db600
1bff80
1bff80
3b0180
7bff80
58fe00
18c600
18fe00
18fe00
186c00
186c00
18cd80
1bcf80
198700
ENDCHAR
STARTCHAR 50A7
ENCODING 20647
SWIDTH 520 0
DWIDTH 18 0
BBX 18 16 0 -3
BITMAP
0c3000
0c3000
0fff80
1bff80
1b0d80
38fe00
78f000
58c000
18ff00
18ff00
18cc00
1bff80
1bff80
18cc00
1bcf00
1b0300
ENDCHAR
STARTCHAR 50A8
ENCODING 20648
SWIDTH 520 0
DWIDTH 18 0
BBX 18 16 0 -3
BITMAP
181800
1b1800
1b7d80
337d80
301b00
777f80
777f80
330c00
333f00
337f00
337300
333f00
33b300
33bf00
333f00
303300
ENDCHAR
STARTCHAR 50A9
ENCODING 20649
SWIDTH 520 0
DWIDTH 18 0
BBX 18 16 0 -3
BITMAP
183000
183600
183600
37bf80
37bf80
31f600
75ff80
75bf80
373600
333600
333f80
37bf80
3db600
3c3f80
303f80
303000
ENDCHAR
STARTCHAR 50AC
ENCODING 20652
SWIDTH 520 0
DWIDTH 18 0
BBX 18 16 0 -3
BITMAP
0c1800
0d9980
0d9980
19ff80
19ff80
38d800
79ff80
5bff80
1f9800
1dff00
199800
19ff00
199800
19ff80
19ff80
198000
ENDCHAR
STARTCHAR 50B2
ENCODING 20658
SWIDTH 520 0
DWIDTH 18 0
BBX 18 16 0 -3
BITMAP
198c00
198c00
1fec00
37ef80
318f80
73db00
719b00
37fb00
37fb00
331b00
33ca00
33ce00
36c600
3dcf00
35bb80
301100
ENDCHAR
STARTCHAR 50BA
ENCODING 20666
SWIDTH 520 0
DWIDTH 18 0
BBX 18 16 0 -3
BITMAP
0d8c00
0def80
0fef80
1b6d80
1eef00
3ec600
7bc700
59bb80
1f0100
1fff00
19ff00
183000
193200
1bb700
1f7380
1a6100
ENDCHAR
STARTCHAR 50BB
ENCODING 20667
SWIDTH 520 0
DWIDTH 18 0
BBX 18 16 0 -3
BITMAP
186000
1bff00
1bff00
336b00
333300
736b00
73ff00
318600
378780
366180
30fe00
33fe00
336600
303c00
33ff80
33e380
ENDCHAR
STARTCHAR 50CF
ENCODING 20687
SWIDTH 520 0
DWIDTH 18 0
BBX 18 16 0 -3
BITMAP
0cc000
0cfc00
19fc00
1b9800
3bff00
7b3300
7bff00
18c000
1be600
1b7600
18dc00
1bbe00
187b00
1bdb00
1bb800
183000
ENDCHAR
STARTCHAR 50D6
ENCODING 20694
SWIDTH 520 0
DWIDTH 18 0
BBX 18 16 0 -3
BITMAP
0c1800
0dff80
0c1800
19ff00
180000
39ff00
798300
59ff00
186600
1bff80
1bff80
180000
19ff00
198300
19ff00
19ff00
ENDCHAR
STARTCHAR 50DA
ENCODING 20698
SWIDTH 520 0
DWIDTH 18 0
BBX 18 16 0 -3
BITMAP
183000
183000
1bff80
1bff80
32db00
318e00
77ff80
778780
31fe00
318600
31fe00
31fe00
31b600
33b700
337300
306000
ENDCHAR
STARTCHAR 50E6
ENCODING 20710
SWIDTH 520 0
DWIDTH 18 0
BBX 18 16 0 -3
BITMAP
198c00
198d80
1fed80
37ed80
300c00
77ff80
77ff80
366a00
37ea00
37ea00
318a00
35aa00
35aa00
359a80
339380
331380
ENDCHAR
STARTCHAR 50E7
ENCODING 20711
SWIDTH 520 0
DWIDTH 18 0
BBX 18 16 0 -3
BITMAP
0c6600
0c6600
0fff80
1bff80
1b1980
3b5b80
7bff80
5bff80
180000
19ff00
19ff00
198300
19ff00
198300
19ff00
19ff00
ENDCHAR
STARTCHAR 50EC
ENCODING 20716
SWIDTH 520 0
DWIDTH 18 0
BBX 18 16 0 -3
BITMAP
0cd800
0cd800
0dff80
19ff80
1b9800
3bff00
7fff00
599800
19ff00
199800
19ff80
19ff80
180000
1b6d80
1b6d80
1b0180
ENDCHAR
STARTCHAR 50ED
ENCODING 20717
SWIDTH 520 0
DWIDTH 18 0
BBX 18 16 0 -3
BITMAP
1bdf80
1bdf80
1d9600
37df80
37df80
718600
738e80
36db80
36cb80
31ff00
31ff00
318300
31ff00
318300
31ff00
31ff00
ENDCHAR
STARTCHAR 50EE
ENCODING 20718
SWIDTH 520 0
DWIDTH 18 0
BBX 18 16 0 -3
BITMAP
0c3000
0dff00
0dff00
18cc00
1bff80
380000
7bff00
5b3300
1bff00
1b3300
1bff00
183000
1bff00
183000
1fff80
1fff80
ENDCHAR
STARTCHAR 50F3
ENCODING 20723
SWIDTH 520 0
DWIDTH 18 0
BBX 18 16 0 -3
BITMAP
1bff00
1bff00
184800
1bff00
33ff00
334b00
73ff00
73ff00
303000
31b600
33ff80
33ff80
307c00
31f600
37b380
333180
ENDCHAR
STARTCHAR 50F5
ENCODING 20725
SWIDTH 520 0
DWIDTH 18 0
BBX 18 16 0 -3
BITMAP
1bff80
1bff80
180000
33ff00
333300
73ff00
733300
37ff80
300000
33ff00
333300
33ff00
333300
33ff00
300000
37ff80
ENDCHAR
STARTCHAR 50FB
ENCODING 20731
SWIDTH 520 0
DWIDTH 18 0
BBX 18 16 0 -3
BITMAP
180600
1be600
1bef00
336f00
336000
33ed00
73ed00
731f80
37ff80
37e600
376600
337f80
33ff80
33e600
336600
300600
ENDCHAR
STARTCHAR 5106
ENCODING 20742
SWIDTH 520 0
DWIDTH 18 0
BBX 18 16 0 -3
BITMAP
0d6600
0d6600
0ff600
1bf780
196f80
3bfd80
7bfd80
5e3580
1fb580
1bb580
1ab580
1bb780
1bb300
183700
187d80
186d80
ENDCHAR
STARTCHAR 5107
ENCODING 20743
SWIDTH 520 0
DWIDTH 18 0
BBX 18 16 0 -3
BITMAP
0dff00
0dff00
0dab00
19ab00
19ff00
380000
7bff80
580000
19ff00
198300
19ff00
18da00
19df00
1fcc00
1ee780
18e300
ENDCHAR
STARTCHAR 510B
ENCODING 20747
SWIDTH 520 0
DWIDTH 18 0
BBX 18 16 0 -3
BITMAP
0cc000
0dfc00
0d8c00
1bff80
1bff80
3b2200
7b4d00
5bff80
1b0000
1b7f00
1b0000
1b7f00
1b0000
1e7f00
1e6300
1a7f00
ENDCHAR
STARTCHAR 5112
ENCODING 20754
SWIDTH 520 0
DWIDTH 18 0
BBX 18 16 0 -3
BITMAP
1bff00
1bff00
183000
37ff80
37ff80
763180
71b600
300000
33ff00
33ff00
303000
33ff00
33ff00
335b00
335f00
330600
ENDCHAR
STARTCHAR 5121
ENCODING 20769
SWIDTH 520 0
DWIDTH 18 0
BBX 18 16 0 -3
BITMAP
1bff00
1bff00
1b3300
33ff00
333300
73ff00
73ff00
700000
37df80
37df80
355580
37df80
355580
37df80
37df80
345180
ENDCHAR
STARTCHAR 513F
ENCODING 20799
SWIDTH 520 0
DWIDTH 18 0
BBX 18 16 0 -3
BITMAP
000000
063000
063000
063000
063000
063000
063000
063000
063000
063000
0e3000
0c3000
1c3180
383f80
701f00
200000
ENDCHAR
STARTCHAR 5140
ENCODING 20800
SWIDTH 520 0
DWIDTH 18 0
BBX 18 16 0 -3
BITMAP
000000
7fff80
7fff80
063000
063000
063000
063000
063000
063000
063000
063000
0e3000
0c3180
1c3f80
381f00
100000
ENDCHAR
STARTCHAR 5141
ENCODING 20801
SWIDTH 520 0
DWIDTH 18 0
BBX 18 16 0 -3
BITMAP
018000
018000
030000
030c00
060c00
0cfc00
1ffe00
1f3600
033000
033000
033000
073000
063000
0e3180
3c3f80
181f00
ENDCHAR
STARTCHAR 5143
ENCODING 20803
SWIDTH 520 0
DWIDTH 18 0
BBX 18 16 0 -3
BITMAP
000000
1ffe00
1ffe00
000000
000000
000000
3fff00
3fff00
033000
033000
033000
063000
0e3180
1c3180
383f80
101f00
ENDCHAR
STARTCHAR 5144
ENCODING 20804
SWIDTH 520 0
DWIDTH 18 0
BBX 18 16 0 -3
BITMAP
000000
1ffe00
1ffe00
180600
180600
180600
1ffe00
1ffe00
033000
033000
063000
063000
0e3180
1c3180
783f80
301f00
ENDCHAR
STARTCHAR 5145
ENCODING 20805
SWIDTH 520 0
DWIDTH 18 0
BBX 18 16 0 -3
BITMAP
00c000
00c000
3fff00
3fff00
030000
061800
0c0c00
1ffe00
1ffe00
033000
033000
033000
063180
0e3180
3c3f80
181f00
ENDCHAR
STARTCHAR 5146
ENCODING 20806
SWIDTH 520 0
DWIDTH 18 0
BBX 18 16 0 -3
BITMAP
033000
033000
233200
733700
3b3e00
133400
033000
073000
0f3c00
3b3f00
733300
273000
063180
0e3180
3c3f80
181f00
ENDCHAR
STARTCHAR 5148
ENCODING 20808
SWIDTH 520 0
DWIDTH 18 0
BBX 18 16 0 -3
BITMAP
00c000
0cc000
0cc000
0ffe00
1ffe00
18c000
00c000
7fff80
7fff80
033000
033000
063000
0e3180
1c3180
783f80
301f00
ENDCHAR
STARTCHAR 5149
ENCODING 20809
SWIDTH 520 0
DWIDTH 18 0
BBX 18 16 0 -3
BITMAP
00c000
00c000
0cc600
0cc600
06cc00
06cc00
7fff80
7fff80
033000
033000
033000
073000
0e3180
1c3180
783f80
301f00
ENDCHAR
STARTCHAR 514B
ENCODING 20811
SWIDTH 520 0
DWIDTH 18 0
BBX 18 16 0 -3
BITMAP
00c000
00c000
7fff80
7fff80
00c000
1ffe00
1ffe00
180600
180600
1ffe00
1ffe00
033000
073000
0e3180
3c3f80
181f00
ENDCHAR
STARTCHAR 514D
ENCODING 20813
SWIDTH 520 0
DWIDTH 18 0
BBX 18 16 0 -3
BITMAP
030000
030000
07f800
0ff800
3c3000
3ffe00
1ffe00
18c600
18c600
1ffe00
1ffe00
01b000
033000
0e3180
3c3f80
181f00
ENDCHAR
STARTCHAR 5151
ENCODING 20817
SWIDTH 520 0
DWIDTH 18 0
BBX 18 16 0 -3
BITMAP
061800
061800
033000
1ffe00
1ffe00
180600
180600
180600
1ffe00
1ffe00
033000
033000
073000
0e3180
7c3f80
381f00
ENDCHAR
STARTCHAR 5154
ENCODING 20820
SWIDTH 520 0
DWIDTH 18 0
BBX 18 16 0 -3
BITMAP
060000
060000
0ff800
1ff800
383000
7ffe00
7ffe00
18c600
1ffe00
1ffe00
19e000
036c00
076c00
0e6180
7c7f80
303f00
ENDCHAR
STARTCHAR 5155
ENCODING 20821
SWIDTH 520 0
DWIDTH 18 0
BBX 18 16 0 -3
BITMAP
000000
1fbf00
1fbf00
19b300
19f300
19f300
180300
1fff00
1fff00
033000
033000
073000
063000
0e3180
7c3f80
381f00
ENDCHAR
STARTCHAR 5156
ENCODING 20822
SWIDTH 520 0
DWIDTH 18 0
BBX 18 16 0 -3
BITMAP
00c000
00c000
3fff00
3fff00
061800
0e1c00
398700
338300
061800
0ffc00
0ffc00
033000
033000
063180
3c3f80
381f00
ENDCHAR
STARTCHAR 515A
ENCODING 20826
SWIDTH 520 0
DWIDTH 18 0
BBX 18 16 0 -3
BITMAP
18c600
1cce00
0ccc00
7fff80
7fff80
600180
6ffd80
0ffc00
0c0c00
0ffc00
0ffc00
033000
073180
0e3180
7c3f80
381f00
ENDCHAR
STARTCHAR 515C
ENCODING 20828
SWIDTH 520 0
DWIDTH 18 0
BBX 18 16 0 -3
BITMAP
00c000
3bf700
3bf700
333300
33f300
33f300
333300
3bf700
3bf700
000000
033000
033000
073180
0e3180
7c3f80
301f00
ENDCHAR
STARTCHAR 5162
ENCODING 20834
SWIDTH 520 0
DWIDTH 18 0
BBX 18 16 0 -3
BITMAP
0c0c00
0c0c00
7f7f80
7f7f80
0c0c00
7f7f00
7f7f00
636300
7f7f00
7f7f00
363600
363600
373600
376680
66e780
604380
ENDCHAR
STARTCHAR 5165
ENCODING 20837
SWIDTH 520 0
DWIDTH 18 0
BBX 18 16 0 -3
BITMAP
020000
070000
038000
01c000
00c000
00e000
00e000
01b000
01b000
031800
071c00
0e0e00
1c0700
380380
100100
000000
ENDCHAR
STARTCHAR 5168
ENCODING 20840
SWIDTH 520 0
DWIDTH 18 0
BBX 18 16 0 -3
BITMAP
00c000
00c000
01e000
033000
0e1c00
3c0f80
77fb00
27f800
00c000
00c000
0ffc00
0ffc00
00c000
00c000
3fff00
3fff00
ENDCHAR
STARTCHAR 516B
ENCODING 20843
SWIDTH 520 0
DWIDTH 18 0
BBX 18 16 0 -3
BITMAP
000000
063000
063000
063000
063000
063000
061800
061800
0c1800
0c1800
1c0c00
180e00
380700
700380
200100
000000
ENDCHAR
STARTCHAR 516C
ENCODING 20844
SWIDTH 520 0
DWIDTH 18 0
BBX 18 16 0 -3
BITMAP
000000
033000
033000
061800
0e1c00
1c0e00
38c700
70c380
218100
018000
031800
061800
0c0c00
1ffc00
1ffe00
000600
ENDCHAR
STARTCHAR 516D
ENCODING 20845
SWIDTH 520 0
DWIDTH 18 0
BBX 18 16 0 -3
BITMAP
018000
018000
00c000
00c000
000000
7fff80
7fff80
000000
021000
073800
061c00
0e0c00
1c0e00
380700
100200
000000
ENDCHAR
STARTCHAR 516E
ENCODING 20846
SWIDTH 520 0
DWIDTH 18 0
BBX 18 16 0 -3
BITMAP
063000
063000
0c1800
0c0c00
180600
3fff00
77fb80
230100
030000
03fc00
03fc00
000c00
000c00
001c00
00f800
00f000
ENDCHAR
STARTCHAR 5170
ENCODING 20848
SWIDTH 520 0
DWIDTH 18 0
BBX 18 16 0 -3
BITMAP
000000
061800
071800
033000
3fff00
3fff00
000000
000000
000000
1ffe00
1ffe00
000000
000000
000000
7fff80
7fff80
ENDCHAR
STARTCHAR 5171
ENCODING 20849
SWIDTH 520 0
DWIDTH 18 0
BBX 18 16 0 -3
BITMAP
031800
031800
031800
031800
3fff00
3fff00
031800
031800
031800
7fff80
7fff80
020800
071c00
0e0e00
3c0700
180200
ENDCHAR
STARTCHAR 5173
ENCODING 20851
SWIDTH 520 0
DWIDTH 18 0
BBX 18 16 0 -3
BITMAP
061800
061800
033000
1fff00
1fff00
00c000
00c000
00c000
3fff80
3fff80
00e000
01b000
031800
0e0e00
7c0780
300300
ENDCHAR
STARTCHAR 5174
ENCODING 20852
SWIDTH 520 0
DWIDTH 18 0
BBX 18 16 0 -3
BITMAP
000000
018600
318600
38cc00
1ccc00
0cd800
001800
7fff80
7fff80
000000
041000
0e3800
1c1c00
380e00
700700
200200
ENDCHAR
STARTCHAR 5175
ENCODING 20853
SWIDTH 520 0
DWIDTH 18 0
BBX 18 16 0 -3
BITMAP
000c00
0ffe00
0ff000
0c0000
0c0000
0ffe00
0ffe00
0c3000
0c3000
0c3000
7fff80
7fff80
061800
0e1c00
380700
300300
ENDCHAR
STARTCHAR 5176
ENCODING 20854
SWIDTH 520 0
DWIDTH 18 0
BBX 18 16 0 -3
BITMAP
061800
061800
3fff00
3fff00
061800
07f800
07f800
061800
07f800
07f800
061800
7fff80
7fff80
061800
1c0e00
180600
ENDCHAR
STARTCHAR 5177
ENCODING 20855
SWIDTH 520 0
DWIDTH 18 0
BBX 18 16 0 -3
BITMAP
0ffc00
0ffc00
0c0c00
0ffc00
0ffc00
0c0c00
0ffc00
0c0c00
0ffc00
0c0c00
7fff80
7fff80
000000
061800
3e1f00
380700
ENDCHAR
STARTCHAR 5178
ENCODING 20856
SWIDTH 520 0
DWIDTH 18 0
BBX 18 16 0 -3
BITMAP
033000
033000
1ffe00
1ffe00
1b3600
1b3600
1ffe00
1ffe00
1b3600
1b3600
7fff80
7fff80
031800
0f1c00
3c0700
300300
ENDCHAR
STARTCHAR 5179
ENCODING 20857
SWIDTH 520 0
DWIDTH 18 0
BBX 18 16 0 -3
BITMAP
061800
073800
033000
7fff80
7fff80
0c1800
0c1800
183000
336600
3f7e00
3e7c00
0c0c00
1b1b00
333300
3f7f00
3f7f00
ENDCHAR
STARTCHAR 517B
ENCODING 20859
SWIDTH 520 0
DWIDTH 18 0
BBX 18 16 0 -3
BITMAP
061800
3fff00
3fff00
00c000
1ffe00
1ffe00
018000
7fff00
7fff00
061800
7c0e00
7b3780
033180
063000
1e3000
1c3000
ENDCHAR
STARTCHAR 517C
ENCODING 20860
SWIDTH 520 0
DWIDTH 18 0
BBX 18 16 0 -3
BITMAP
061800
3fff00
3fff00
033000
1ffe00
1ffe00
033600
7fff80
7fff80
033600
1ffe00
1ffe00
073c00
0f3600
3b3300
333100
ENDCHAR
STARTCHAR 517D
ENCODING 20861
SWIDTH 520 0
DWIDTH 18 0
BBX 18 16 0 -3
BITMAP
061800
033000
1ffe00
1ffe00
18c600
1ffe00
18c600
1ffe00
000000
7fff80
7fff80
000000
1ffe00
180600
1ffe00
1ffe00
ENDCHAR
STARTCHAR 5180
ENCODING 20864
SWIDTH 520 0
DWIDTH 18 0
BBX 18 16 0 -3
BITMAP
033300
3f3e00
033180
3f3f80
031f00
1ffe00
18c600
1ffe00
18c600
1ffe00
033000
1ffe00
033000
3fff80
071c00
3c0700
ENDCHAR
STARTCHAR 5181
ENCODING 20865
SWIDTH 520 0
DWIDTH 18 0
BBX 18 16 0 -3
BITMAP
66ff00
66ff00
0cc300
7eff00
7eff00
5ad600
7eff00
7ed600
5ad600
7eff80
7eff80
19b680
7fb700
7fbe00
19bb80
18b180
ENDCHAR
STARTCHAR 5182
ENCODING 20866
SWIDTH 520 0
DWIDTH 18 0
BBX 18 16 0 -3
BITMAP
000000
3fff00
3fff00
300300
300300
300300
300300
300300
300300
300300
300300
300300
300300
300300
300700
300600
ENDCHAR
STARTCHAR 5185
ENCODING 20869
SWIDTH 520 0
DWIDTH 18 0
BBX 18 16 0 -3
BITMAP
00c000
00c000
00c000
3fff00
3fff00
30c300
30c300
31e300
31b300
333b00
371300
320300
300300
300300
300f00
300e00
ENDCHAR
STARTCHAR 5188
ENCODING 20872
SWIDTH 520 0
DWIDTH 18 0
BBX 18 16 0 -3
BITMAP
000000
3fff00
3fff00
300300
321300
373b00
33b300
31e300
30c300
31e300
33b300
373b00
321300
300300
300f00
300e00
ENDCHAR
STARTCHAR 5189
ENCODING 20873
SWIDTH 520 0
DWIDTH 18 0
BBX 18 16 0 -3
BITMAP
00c000
00c000
1ffe00
1ffe00
18c600
18c600
1ffe00
1ffe00
18c600
18c600
7fff80
7fff80
180600
180600
180e00
180c00
ENDCHAR
STARTCHAR 518C
ENCODING 20876
SWIDTH 520 0
DWIDTH 18 0
BBX 18 16 0 -3
BITMAP
000000
1f3f00
1f3f00
1b3300
1b3300
1b3300
1b3300
7fff80
7fff80
1b3300
1b3300
1b3300
1b3300
1b3300
376700
264600
ENDCHAR
STARTCHAR 518D
ENCODING 20877
SWIDTH 520 0
DWIDTH 18 0
BBX 18 16 0 -3
BITMAP
000000
3fff00
3fff00
00c000
1ffe00
1ffe00
18c600
1ffe00
1ffe00
18c600
7fff80
7fff80
180600
180600
181e00
181c00
ENDCHAR
STARTCHAR 5192
ENCODING 20882
SWIDTH 520 0
DWIDTH 18 0
BBX 18 16 0 -3
BITMAP
3fff00
3fff00
300300
37fb00
300300
37fb00
000000
1ffe00
1ffe00
180600
1ffe00
180600
1ffe00
180600
1ffe00
1ffe00
ENDCHAR
STARTCHAR 5195
ENCODING 20885
SWIDTH 520 0
DWIDTH 18 0
BBX 18 16 0 -3
BITMAP
1ffe00
1ffe00
180600
1bf600
180600
03f000
0c0000
1ff000
383000
3ffe00
18c600
1ffe00
1ffe00
033180
3e3f80
1c1f00
ENDCHAR
STARTCHAR 5196
ENCODING 20886
SWIDTH 520 0
DWIDTH 18 0
BBX 18 16 0 -3
BITMAP
000000
3fff00
3fff00
300300
300300
000000
000000
000000
000000
000000
000000
000000
000000
000000
000000
000000
ENDCHAR
STARTCHAR 5197
ENCODING 20887
SWIDTH 520 0
DWIDTH 18 0
BBX 18 16 0 -3
BITMAP
000000
3fff00
3fff00
300300
300300
07f000
07f000
063000
063000
063000
063000
063000
0e3300
1c3300
383f00
101e00
ENDCHAR
STARTCHAR 5199
ENCODING 20889
SWIDTH 520 0
DWIDTH 18 0
BBX 18 16 0 -3
BITMAP
000000
3fff00
3fff00
300300
060000
07fc00
07fc00
060000
07fe00
07fe00
000600
3ff600
3ff600
000600
001e00
001c00
ENDCHAR
STARTCHAR 519B
ENCODING 20891
SWIDTH 520 0
DWIDTH 18 0
BBX 18 16 0 -3
BITMAP
7fff00
7fff00
600300
618300
1ffc00
1ffc00
060000
0cc000
1ffc00
1ffc00
00c000
7fff00
7fff00
00c000
00c000
00c000
ENDCHAR
STARTCHAR 519C
ENCODING 20892
SWIDTH 520 0
DWIDTH 18 0
BBX 18 16 0 -3
BITMAP
00c000
00c000
3fff00
3fff00
318300
318300
036400
076e00
0e7c00
1e3800
7e3000
361800
060e00
06c780
07c300
070000
ENDCHAR
STARTCHAR 51A0
ENCODING 20896
SWIDTH 520 0
DWIDTH 18 0
BBX 18 16 0 -3
BITMAP
000000
7fff80
7fff80
600180
1f0600
1f7f80
007f80
7f8600
7fb600
1b3600
1b0600
1b1e00
1b1c00
330180
73ff80
21ff00
ENDCHAR
STARTCHAR 51A2
ENCODING 20898
SWIDTH 520 0
DWIDTH 18 0
BBX 18 16 0 -3
BITMAP
7fff00
7fff00
600300
6ffb00
0ff800
030000
0f8400
3cce00
33fc00
0f7800
7eec00
33e600
0f6700
7c6380
31e100
01c000
ENDCHAR
STARTCHAR 51A4
ENCODING 20900
SWIDTH 520 0
DWIDTH 18 0
BBX 18 16 0 -3
BITMAP
000000
3fff00
3fff00
330300
07f000
0ff000
7c3000
3ffe00
18c600
1ffe00
1ffe00
01b600
03b600
073180
3e3f80
1c1f00
ENDCHAR
STARTCHAR 51A5
ENCODING 20901
SWIDTH 520 0
DWIDTH 18 0
BBX 18 16 0 -3
BITMAP
3fff80
3fff80
300180
3fff80
0ffe00
0c0600
0ffe00
0c0600
0ffe00
0ffe00
00c000
7fff80
7fff80
061800
3e1f00
380700
ENDCHAR
STARTCHAR 51AB
ENCODING 20907
SWIDTH 520 0
DWIDTH 18 0
BBX 18 16 0 -3
BITMAP
000000
000000
100000
380000
1c0000
080000
000000
000000
080000
0c0000
180000
180000
300000
700000
200000
000000
ENDCHAR
STARTCHAR 51AC
ENCODING 20908
SWIDTH 520 0
DWIDTH 18 0
BBX 18 16 0 -3
BITMAP
060000
060000
0ffc00
0ffc00
1b1800
39b000
10e000
03f000
7f3f80
3c0f00
01c000
01f000
003000
078000
07f800
007800
ENDCHAR
STARTCHAR 51AF
ENCODING 20911
SWIDTH 520 0
DWIDTH 18 0
BBX 18 16 0 -3
BITMAP
000000
03fe00
33fe00
300600
198600
198600
018c00
118c00
19ff80
19ff80
300180
37f980
67f980
600180
200f80
000f00
ENDCHAR
STARTCHAR 51B0
ENCODING 20912
SWIDTH 520 0
DWIDTH 18 0
BBX 18 16 0 -3
BITMAP
003000
203000
703000
383000
17b300
07b700
01b600
01bc00
19b800
19bc00
333600
333700
663380
2e3180
04f000
00e000
ENDCHAR
STARTCHAR 51B1
ENCODING 20913
SWIDTH 520 0
DWIDTH 18 0
BBX 18 16 0 -3
BITMAP
000000
27ff80
77ff80
38c000
10c000
00fe00
01fe00
018600
118600
198600
39fe00
31fc00
700c00
600c00
2fff80
0fff80
ENDCHAR
STARTCHAR 51B2
ENCODING 20914
SWIDTH 520 0
DWIDTH 18 0
BBX 18 16 0 -3
BITMAP
001800
001800
301800
31ff80
19ff80
199980
019980
119980
199980
19ff80
19ff80
319980
301800
301800
001800
001800
ENDCHAR
STARTCHAR 51B3
ENCODING 20915
SWIDTH 520 0
DWIDTH 18 0
BBX 18 16 0 -3
BITMAP
006000
206000
706000
39fe00
1dfe00
086600
006600
106600
1bff80
3bff80
307000
70d800
61dc00
238e00
0f0780
060300
ENDCHAR
STARTCHAR 51B5
ENCODING 20917
SWIDTH 520 0
DWIDTH 18 0
BBX 18 16 0 -3
BITMAP
000000
23fe00
73fe00
3b0600
130600
030600
030600
13fe00
1bfe00
38d800
30d800
71d800
619980
239980
0f1f80
060f00
ENDCHAR
STARTCHAR 51B6
ENCODING 20918
SWIDTH 520 0
DWIDTH 18 0
BBX 18 16 0 -3
BITMAP
006000
206000
70c000
38c600
118600
03ff00
03ff00
100300
180000
1bfe00
33fe00
330600
630600
63fe00
23fe00
030600
ENDCHAR
STARTCHAR 51B7
ENCODING 20919
SWIDTH 520 0
DWIDTH 18 0
BBX 18 16 0 -3
BITMAP
006000
206000
70f000
38d800
118c00
03b700
073380
020100
13fe00
1bfe00
380600
300c00
70d800
607000
203800
001800
ENDCHAR
STARTCHAR 51BB
ENCODING 20923
SWIDTH 520 0
DWIDTH 18 0
BBX 18 16 0 -3
BITMAP
006000
006000
33ff80
33ff80
18c000
19b000
033000
03ff00
1bff00
183000
313200
33b700
673380
623100
007000
006000
ENDCHAR
STARTCHAR 51BC
ENCODING 20924
SWIDTH 520 0
DWIDTH 18 0
BBX 18 16 0 -3
BITMAP
003000
21b000
71b000
39ff00
13ff00
033000
003000
07ff80
17ff80
18d800
38d800
30d800
71d800
639980
2f1f80
060f00
ENDCHAR
STARTCHAR 51BD
ENCODING 20925
SWIDTH 520 0
DWIDTH 18 0
BBX 18 16 0 -3
BITMAP
000300
27e300
77e300
3b0b00
130b00
03eb00
07eb00
266b00
3e6b00
356b00
31cb00
60cb00
618300
238300
070700
020600
ENDCHAR
STARTCHAR 51C0
ENCODING 20928
SWIDTH 520 0
DWIDTH 18 0
BBX 18 16 0 -3
BITMAP
018000
61f800
63f800
331800
37fe00
07fe00
006600
07ff80
27ff80
306600
37fe00
67fe00
606600
206000
00e000
00c000
ENDCHAR
STARTCHAR 51C4
ENCODING 20932
SWIDTH 520 0
DWIDTH 18 0
BBX 18 16 0 -3
BITMAP
003000
33ff80
33ff80
183000
19ff00
003300
03ff80
003300
11ff00
186000
3bff80
33ff80
70cc00
607800
23ff00
03c700
ENDCHAR
STARTCHAR 51C6
ENCODING 20934
SWIDTH 520 0
DWIDTH 18 0
BBX 18 16 0 -3
BITMAP
00cc00
30cc00
318000
19ff80
1bff80
079800
07ff00
11ff00
199800
199800
39ff00
31ff00
719800
61ff80
21ff80
018000
ENDCHAR
STARTCHAR 51C7
ENCODING 20935
SWIDTH 520 0
DWIDTH 18 0
BBX 18 16 0 -3
BITMAP
030600
633600
633600
6fb600
0fb300
036300
036180
279980
37d800
375800
3b3600
6b3600
633600
637f00
237f00
030300
ENDCHAR
STARTCHAR 51C9
ENCODING 20937
SWIDTH 520 0
DWIDTH 18 0
BBX 18 16 0 -3
BITMAP
003000
003000
67ff80
67ff80
300000
33fe00
03fe00
130600
1bfe00
1bfe00
183000
333600
333600
363300
067300
006000
ENDCHAR
STARTCHAR 51CB
ENCODING 20939
SWIDTH 520 0
DWIDTH 18 0
BBX 18 16 0 -3
BITMAP
000000
33ff80
33ff80
1b3180
1b7d80
037d80
033180
037d80
1b0180
1b7d80
1b7d80
1b6d80
337d80
337d80
360380
040300
ENDCHAR
STARTCHAR 51CC
ENCODING 20940
SWIDTH 520 0
DWIDTH 18 0
BBX 18 16 0 -3
BITMAP
003000
01ff00
61ff00
603000
33ff80
33ff80
018600
07e780
266180
30fc00
31fc00
63cc00
617800
20fc00
07cf80
030300
ENDCHAR
STARTCHAR 51CF
ENCODING 20943
SWIDTH 520 0
DWIDTH 18 0
BBX 18 16 0 -3
BITMAP
001b00
001b00
601800
6fff00
3fff00
3c1800
0ddb00
2c1b00
3ddb00
3dde00
6d4e00
6dcc00
6ddc80
6c3e80
187380
082180
ENDCHAR
STARTCHAR 51D1
ENCODING 20945
SWIDTH 520 0
DWIDTH 18 0
BBX 18 16 0 -3
BITMAP
006000
27ff00
77ff00
386000
13fe00
006000
07ff80
07ff80
218600
37fb80
366180
63ff00
63ff00
20d800
078e00
070600
ENDCHAR
STARTCHAR 51DB
ENCODING 20955
SWIDTH 520 0
DWIDTH 18 0
BBX 18 16 0 -3
BITMAP
006000
0fff80
600000
77ff00
360300
06fb00
06db00
27ff00
37ff00
300000
33fe00
600000
6fff80
633600
0f7780
0c6180
ENDCHAR
STARTCHAR 51DD
ENCODING 20957
SWIDTH 520 0
DWIDTH 18 0
BBX 18 16 0 -3
BITMAP
060000
06df00
679f00
66c300
37ce00
338600
061f80
079f80
278680
333600
37b780
67b780
633600
67be00
2e6f80
046380
ENDCHAR
STARTCHAR 51E0
ENCODING 20960
SWIDTH 520 0
DWIDTH 18 0
BBX 18 16 0 -3
BITMAP
000000
07f800
07f800
061800
061800
061800
061800
061800
061800
061800
0c1800
0c1980
181980
381f80
700f00
200000
ENDCHAR
STARTCHAR 51E1
ENCODING 20961
SWIDTH 520 0
DWIDTH 18 0
BBX 18 16 0 -3
BITMAP
000000
0ff800
0ff800
0c1800
0c1800
0d9800
0d9800
0d9800
0cd800
0cd800
0c1800
0c1800
181980
381980
701f80
200f00
ENDCHAR
STARTCHAR 51E4
ENCODING 20964
SWIDTH 520 0
DWIDTH 18 0
BBX 18 16 0 -3
BITMAP
000000
1ffe00
1ffe00
180600
1bf600
1bf600
183600
1b2600
1b6600
18c600
18e600
19b600
1b3600
361680
300380
600180
ENDCHAR
STARTCHAR 51EB
ENCODING 20971
SWIDTH 520 0
DWIDTH 18 0
BBX 18 16 0 -3
BITMAP
018000
1ffc00
1ffc00
180c00
199c00
199800
180000
1fff00
1fff00
000300
07f700
07f600
063000
0e3180
7c3f80
381f00
ENDCHAR
STARTCHAR 51ED
ENCODING 20973
SWIDTH 520 0
DWIDTH 18 0
BBX 18 16 0 -3
BITMAP
0c1e00
0dff00
19f000
383000
7bff80
7bff80
183000
19ff00
19ff00
000000
07f800
07f800
061800
0c1980
3c1f80
180f00
ENDCHAR
STARTCHAR 51EF
ENCODING 20975
SWIDTH 520 0
DWIDTH 18 0
BBX 18 16 0 -3
BITMAP
0c0000
6dbe00
6dbe00
7fb600
7fb600
003600
7fb600
7fb600
01b600
3fb600
3fb600
303600
336600
3f6680
3cc780
00c300
ENDCHAR
STARTCHAR 51F0
ENCODING 20976
SWIDTH 520 0
DWIDTH 18 0
BBX 18 16 0 -3
BITMAP
3ffe00
3ffe00
318600
37f600
363600
37f600
363600
37f600
300600
37f600
37f600
318600
37f600
318680
6ffb80
6ff980
ENDCHAR
STARTCHAR 51F3
ENCODING 20979
SWIDTH 520 0
DWIDTH 18 0
BBX 18 16 0 -3
BITMAP
3f3400
3f3d00
131b00
1eee00
0c0600
3ffb80
761980
07f800
033000
7fff80
7fff80
000000
07f000
07f300
3e3f00
3c1e00
ENDCHAR
STARTCHAR 51F5
ENCODING 20981
SWIDTH 520 0
DWIDTH 18 0
BBX 18 16 0 -3
BITMAP
000000
000000
300300
300300
300300
300300
300300
300300
300300
300300
300300
300300
3fff00
3fff00
000300
000000
ENDCHAR
STARTCHAR 51F6
ENCODING 20982
SWIDTH 520 0
DWIDTH 18 0
BBX 18 16 0 -3
BITMAP
000000
001800
021800
073000
33b300
31e300
30e300
30f300
31bb00
339f00
370b00
320300
300300
3fff00
3fff00
000300
ENDCHAR
STARTCHAR 51F8
ENCODING 20984
SWIDTH 520 0
DWIDTH 18 0
BBX 18 16 0 -3
BITMAP
000000
07f800
07f800
061800
061800
061800
3e1f00
3e1f00
300300
300300
300300
300300
300300
3fff00
3fff00
300300
ENDCHAR
STARTCHAR 51F9
ENCODING 20985
SWIDTH 520 0
DWIDTH 18 0
BBX 18 16 0 -3
BITMAP
000000
3f3f00
3f3f00
333300
333300
333300
333300
33f300
33f300
300300
300300
300300
300300
3fff00
3fff00
300300
ENDCHAR
STARTCHAR 51FA
ENCODING 20986
SWIDTH 520 0
DWIDTH 18 0
BBX 18 16 0 -3
BITMAP
00c000
00c000
18c600
18c600
18c600
18c600
1ffe00
1ffe00
00c000
30c300
30c300
30c300
30c300
3fff00
3fff00
000300
ENDCHAR
STARTCHAR 51FB
ENCODING 20987
SWIDTH 520 0
DWIDTH 18 0
BBX 18 16 0 -3
BITMAP
00c000
00c000
00c000
1ffe00
1ffe00
00c000
00c000
7fff80
7fff80
00c000
18c600
18c600
18c600
1ffe00
1ffe00
000600
ENDCHAR
STARTCHAR 51FC
ENCODING 20988
SWIDTH 520 0
DWIDTH 18 0
BBX 18 16 0 -3
BITMAP
006000
006000
006800
376f00
376f00
337b00
337300
337b00
367b00
366f00
3c6f00
3de300
31c300
3fff00
3fff00
000300
ENDCHAR
STARTCHAR 51FD
ENCODING 20989
SWIDTH 520 0
DWIDTH 18 0
BBX 18 16 0 -3
BITMAP
000000
1ffe00
1ffe00
003800
00e000
0ccc00
3edf00
36db00
30c300
36db00
3edf00
3dcf00
318300
300300
3fff00
3fff00
ENDCHAR
STARTCHAR 51FF
ENCODING 20991
SWIDTH 520 0
DWIDTH 18 0
BBX 18 16 0 -3
BITMAP
033000
333300
3b3700
1b3600
7fff80
7fff80
033000
333300
37fb00
37fb00
30c300
37fb00
37fb00
30c300
3fff00
3fff00
ENDCHAR
STARTCHAR 5200
ENCODING 20992
SWIDTH 520 0
DWIDTH 18 0
BBX 18 16 0 -3
BITMAP
000000
000000
1fff00
1fff00
018300
018300
018300
018300
018300
030300
030300
060300
0e0300
1c0600
381e00
101c00
ENDCHAR
STARTCHAR 5201
ENCODING 20993
SWIDTH 520 0
DWIDTH 18 0
BBX 18 16 0 -3
BITMAP
000000
0fff00
0fff00
000300
000300
002300
007300
00e300
01c300
038300
070300
0e0300
1c0300
081f00
001e00
000000
ENDCHAR
STARTCHAR 5202
ENCODING 20994
SWIDTH 520 0
DWIDTH 18 0
BBX 18 16 0 -3
BITMAP
000600
000600
006600
006600
006600
006600
006600
006600
006600
006600
006600
006600
000600
000600
000e00
000c00
ENDCHAR
STARTCHAR 5203
ENCODING 20995
SWIDTH 520 0
DWIDTH 18 0
BBX 18 16 0 -3
BITMAP
000000
1fff00
1fff00
00c300
00c300
0cc300
0cc300
0cc300
18c300
198300
018300
030300
070300
0e0700
3c1e00
181c00
ENDCHAR
STARTCHAR 5206
ENCODING 20998
SWIDTH 520 0
DWIDTH 18 0
BBX 18 16 0 -3
BITMAP
003000
033000
031800
061c00
0e0e00
1c0700
380380
7ffd00
2ffc00
030c00
030c00
030c00
060c00
0e1c00
3c7800
187000
ENDCHAR
STARTCHAR 5207
ENCODING 20999
SWIDTH 520 0
DWIDTH 18 0
BBX 18 16 0 -3
BITMAP
180000
19ff00
19ff00
183300
7e3300
7e3300
183300
183300
183300
183300
1a6300
1e6300
1cc300
198300
038f00
030e00
ENDCHAR
STARTCHAR 5208
ENCODING 21000
SWIDTH 520 0
DWIDTH 18 0
BBX 18 16 0 -3
BITMAP
000300
018300
318300
31b300
1b3300
1b3300
0e3300
0e3300
063300
0e3300
1b3300
1b3300
318300
718300
200f00
000e00
ENDCHAR
STARTCHAR 520A
ENCODING 21002
SWIDTH 520 0
DWIDTH 18 0
BBX 18 16 0 -3
BITMAP
000300
7f8300
7f8300
0c3300
0c3300
0c3300
0c3300
7fb300
7fb300
0c3300
0c3300
0c3300
0c0300
0c0300
0c0f00
0c0e00
ENDCHAR
STARTCHAR 520D
ENCODING 21005
SWIDTH 520 0
DWIDTH 18 0
BBX 18 16 0 -3
BITMAP
060000
060000
0ff800
1ff800
381800
703000
2ffe00
0ffe00
000600
0ffe00
0ffe00
000600
000600
1ffe00
1ffe00
000600
ENDCHAR
STARTCHAR 520E
ENCODING 21006
SWIDTH 520 0
DWIDTH 18 0
BBX 18 16 0 -3
BITMAP
180180
180180
180d80
3fed80
3fed80
6d6d80
6d6d80
0d6d80
196d80
3b6d80
736d80
266d80
0e6180
3de180
19c780
000700
ENDCHAR
STARTCHAR 5211
ENCODING 21009
SWIDTH 520 0
DWIDTH 18 0
BBX 18 16 0 -3
BITMAP
000180
3fc180
3fc180
199980
199980
199980
199980
7ff980
7ff980
199980
199980
199980
318180
318180
618780
218700
ENDCHAR
STARTCHAR 5212
ENCODING 21010
SWIDTH 520 0
DWIDTH 18 0
BBX 18 16 0 -3
BITMAP
180000
198300
198300
181b00
19db00
7fdb00
7e1b00
0d9b00
0d9b00
0f1b00
061b00
0e1b00
1f4300
7b6300
31ef00
00ce00
ENDCHAR
STARTCHAR 5216
ENCODING 21014
SWIDTH 520 0
DWIDTH 18 0
BBX 18 16 0 -3
BITMAP
000300
3f8300
3f9b00
319b00
319b00
3f9b00
3f9b00
319b00
3f9b00
3f9b00
319b00
319b00
318300
618300
638700
230600
ENDCHAR
STARTCHAR 5217
ENCODING 21015
SWIDTH 520 0
DWIDTH 18 0
BBX 18 16 0 -3
BITMAP
000180
7fc180
7fc180
0c1980
0c1980
0fd980
1fd980
38d980
74d980
2d9980
079980
031980
070180
0e0180
3c0780
180700
ENDCHAR
STARTCHAR 5218
ENCODING 21016
SWIDTH 520 0
DWIDTH 18 0
BBX 18 16 0 -3
BITMAP
060300
060300
001b00
7fdb00
7fdb00
019b00
199b00
191b00
0f1b00
061b00
071b00
0d9b00
18c300
38c300
300700
000600
ENDCHAR
STARTCHAR 5219
ENCODING 21017
SWIDTH 520 0
DWIDTH 18 0
BBX 18 16 0 -3
BITMAP
000300
3fc300
3fdb00
30db00
36db00
36db00
36db00
36db00
36db00
36db00
36db00
0d1b00
1b8300
39c300
708700
200600
ENDCHAR
STARTCHAR 521A
ENCODING 21018
SWIDTH 520 0
DWIDTH 18 0
BBX 18 16 0 -3
BITMAP
000300
7fc300
7fdb00
60db00
63db00
7bdb00
7bdb00
6edb00
66db00
6edb00
7bdb00
7bdb00
60c300
60c300
61c700
618600
ENDCHAR
STARTCHAR 521B
ENCODING 21019
SWIDTH 520 0
DWIDTH 18 0
BBX 18 16 0 -3
BITMAP
060000
060300
0f0300
1ddb00
38db00
701b00
3f9b00
1f9b00
199b00
199b00
1b9b00
1b1b00
180300
18c300
1fc700
0f8600
ENDCHAR
STARTCHAR 521D
ENCODING 21021
SWIDTH 520 0
DWIDTH 18 0
BBX 18 16 0 -3
BITMAP
0c0000
0c0000
0c7f80
3e7f80
3e1980
061980
0c9980
1d9980
3f1980
6f3180
4db180
0c3180
0c6180
0c6380
0ccf00
0d8e00
ENDCHAR
STARTCHAR 5220
ENCODING 21024
SWIDTH 520 0
DWIDTH 18 0
BBX 18 16 0 -3
BITMAP
000180
3de180
3de580
356580
356580
356580
7ff580
7ff580
356580
356580
356580
356580
356180
656180
6de380
2cc300
ENDCHAR
STARTCHAR 5224
ENCODING 21028
SWIDTH 520 0
DWIDTH 18 0
BBX 18 16 0 -3
BITMAP
060300
060300
36db00
36db00
061b00
3f9b00
3f9b00
061b00
061b00
7fdb00
7fdb00
061b00
0e0300
1c0300
780700
300600
ENDCHAR
STARTCHAR 5228
ENCODING 21032
SWIDTH 520 0
DWIDTH 18 0
BBX 18 16 0 -3
BITMAP
180180
180180
3fed80
3fed80
606d80
7f6d80
1f6d80
1b6d80
1b6d80
1f6d80
1fed80
18cd80
180180
186180
1fe380
0fc300
ENDCHAR
STARTCHAR 5229
ENCODING 21033
SWIDTH 520 0
DWIDTH 18 0
BBX 18 16 0 -3
BITMAP
030300
3f8300
3e0300
061b00
061b00
7fdb00
7fdb00
061b00
0f9b00
1fdb00
3edb00
761b00
260300
060300
060700
060600
ENDCHAR
STARTCHAR 522B
ENCODING 21035
SWIDTH 520 0
DWIDTH 18 0
BBX 18 16 0 -3
BITMAP
000300
3f8300
3f9b00
319b00
319b00
3f9b00
3f9b00
0c1b00
3fdb00
3fdb00
0cdb00
1cdb00
18c300
38c300
73c700
238600
ENDCHAR
STARTCHAR 522D
ENCODING 21037
SWIDTH 520 0
DWIDTH 18 0
BBX 18 16 0 -3
BITMAP
000300
3f0300
3f0300
031b00
079b00
1ddb00
789b00
301b00
3fdb00
3fdb00
061b00
061b00
060300
07c300
3fc700
3c0600
ENDCHAR
STARTCHAR 522E
ENCODING 21038
SWIDTH 520 0
DWIDTH 18 0
BBX 18 16 0 -3
BITMAP
038300
7f8300
3e1b00
061b00
061b00
7fdb00
7fdb00
061b00
061b00
3f9b00
3f9b00
319b00
318300
3f8300
3f8f00
318e00
ENDCHAR
STARTCHAR 5230
ENCODING 21040
SWIDTH 520 0
DWIDTH 18 0
BBX 18 16 0 -3
BITMAP
000300
3fc300
3fdb00
0c1b00
0d9b00
199b00
3fdb00
3fdb00
061b00
3fdb00
3fdb00
061b00
07db00
7fc300
7c0700
000600
ENDCHAR
STARTCHAR 5233
ENCODING 21043
SWIDTH 520 0
DWIDTH 18 0
BBX 18 16 0 -3
BITMAP
060180
060180
7fed80
7fed80
0d8d80
78ed80
6f6d80
000d80
7fed80
7fed80
180d80
1fcd80
1fc180
00c180
03c380
038300
ENDCHAR
STARTCHAR 5236
ENCODING 21046
SWIDTH 520 0
DWIDTH 18 0
BBX 18 16 0 -3
BITMAP
060300
360300
3fdb00
7fdb00
661b00
061b00
7fdb00
7fdb00
061b00
3fdb00
3fdb00
36db00
36c300
37c300
378700
060600
ENDCHAR
STARTCHAR 5237
ENCODING 21047
SWIDTH 520 0
DWIDTH 18 0
BBX 18 16 0 -3
BITMAP
000180
3fe180
3fed80
306d80
3fed80
3fed80
330d80
330d80
3fed80
3fed80
6b6d80
6b6d80
6b6180
6be180
2bc780
030700
ENDCHAR
STARTCHAR 5238
ENCODING 21048
SWIDTH 520 0
DWIDTH 18 0
BBX 18 16 0 -3
BITMAP
18cc00
1cdc00
0cd800
1fff00
1fff00
018000
3fff80
3fff80
061800
0c0e00
7fff80
37fd80
018c00
030c00
1e3c00
0c3800
ENDCHAR
STARTCHAR 5239
ENCODING 21049
SWIDTH 520 0
DWIDTH 18 0
BBX 18 16 0 -3
BITMAP
008300
19c300
3d9b00
0f1b00
079b00
3ddb00
389b00
061b00
7fdb00
7fdb00
061b00
36db00
36e300
666300
6e0700
0c0600
ENDCHAR
STARTCHAR 523A
ENCODING 21050
SWIDTH 520 0
DWIDTH 18 0
BBX 18 16 0 -3
BITMAP
030180
030180
3fed80
3fed80
030d80
3fed80
3fed80
336d80
336d80
376d80
0f8d80
1bcd80
3b6180
734180
230780
030700
ENDCHAR
STARTCHAR 523B
ENCODING 21051
SWIDTH 520 0
DWIDTH 18 0
BBX 18 16 0 -3
BITMAP
060180
060180
7fe180
7fed80
0c0d80
198d80
318d80
3f0d80
3fcd80
06cd80
0d8d80
3b0d80
17c180
0ee180
7c4780
380700
ENDCHAR
STARTCHAR 523D
ENCODING 21053
SWIDTH 520 0
DWIDTH 18 0
BBX 18 16 0 -3
BITMAP
060000
060300
0f0300
1ddb00
38db00
7f1b00
2f1b00
001b00
7fdb00
7fdb00
0c1b00
0d9b00
198300
3fc300
3fc700
000600
ENDCHAR
STARTCHAR 523F
ENCODING 21055
SWIDTH 520 0
DWIDTH 18 0
BBX 18 16 0 -3
BITMAP
060300
36c300
36c300
36db00
3fdb00
3fdb00
001b00
0c1b00
1fdb00
3fdb00
70db00
2d9b00
0f8300
070300
3e0700
180600
ENDCHAR
STARTCHAR 5240
ENCODING 21056
SWIDTH 520 0
DWIDTH 18 0
BBX 18 16 0 -3
BITMAP
060180
36c180
36cd80
36cd80
3fcd80
3fcd80
000d80
3fcd80
3fcd80
00cd80
3fcd80
3fcd80
300180
31c180
3fc780
3e0700
ENDCHAR
STARTCHAR 5241
ENCODING 21057
SWIDTH 520 0
DWIDTH 18 0
BBX 18 16 0 -3
BITMAP
000180
1f8180
1f9980
199980
199980
31d980
30d980
061980
7fd980
7fd980
0e1980
1f1980
37c180
76c180
260780
060700
ENDCHAR
STARTCHAR 5242
ENCODING 21058
SWIDTH 520 0
DWIDTH 18 0
BBX 18 16 0 -3
BITMAP
060180
060180
7fed80
7fed80
198d80
1f0d80
078d80
1ded80
786d80
618d80
198d80
198d80
198180
198180
318780
318700
ENDCHAR
STARTCHAR 5243
ENCODING 21059
SWIDTH 520 0
DWIDTH 18 0
BBX 18 16 0 -3
BITMAP
198300
198300
3fdb00
3fdb00
06db00
3fdb00
3fdb00
361b00
3fdb00
3fdb00
0edb00
1edb00
37c300
778300
260700
060600
ENDCHAR
STARTCHAR 524A
ENCODING 21066
SWIDTH 520 0
DWIDTH 18 0
BBX 18 16 0 -3
BITMAP
060300
36c300
36c300
36db00
061b00
3fdb00
3fdb00
30db00
3fdb00
3fdb00
30db00
3fdb00
3fc300
30c300
31c700
318600
ENDCHAR
STARTCHAR 524C
ENCODING 21068
SWIDTH 520 0
DWIDTH 18 0
BBX 18 16 0 -3
BITMAP
060180
060180
7fed80
7fed80
060d80
3fcd80
3fcd80
36cd80
3fcd80
3fcd80
060d80
0ecd80
3ee180
766180
260380
060300
ENDCHAR
STARTCHAR 524D
ENCODING 21069
SWIDTH 520 0
DWIDTH 18 0
BBX 18 16 0 -3
BITMAP
061800
061800
7fff80
7fff80
000000
1f8300
1f9b00
199b00
1f9b00
1f9b00
199b00
1f9b00
1f9b00
198300
1b8f00
1b0e00
ENDCHAR
STARTCHAR 5250
ENCODING 21072
SWIDTH 520 0
DWIDTH 18 0
BBX 18 16 0 -3
BITMAP
000300
3f8300
3f9b00
319b00
3f9b00
3f9b00
0c1b00
7fdb00
7fdb00
6cdb00
6edb00
7bdb00
7bc300
60c300
61c700
618600
ENDCHAR
STARTCHAR 5251
ENCODING 21073
SWIDTH 520 0
DWIDTH 18 0
BBX 18 16 0 -3
BITMAP
060000
060180
0f8180
19ed80
306d80
7f8d80
2f8d80
000d80
36cd80
36cd80
36cd80
36cd80
018180
3fe180
3fe780
000700
ENDCHAR
STARTCHAR 5254
ENCODING 21076
SWIDTH 520 0
DWIDTH 18 0
BBX 18 16 0 -3
BITMAP
3fc180
3fc180
30cd80
3fcd80
30cd80
3fcd80
3fcd80
180d80
3fed80
7fed80
6b6d80
1b6d80
766180
2e6180
1de780
09c700
ENDCHAR
STARTCHAR 5256
ENCODING 21078
SWIDTH 520 0
DWIDTH 18 0
BBX 18 16 0 -3
BITMAP
060180
060180
3fcd80
3fcd80
198d80
198d80
7fed80
7fed80
000d80
3fcd80
3fcd80
30cd80
30c180
3fc180
3fc380
30c300
ENDCHAR
STARTCHAR 525C
ENCODING 21084
SWIDTH 520 0
DWIDTH 18 0
BBX 18 16 0 -3
BITMAP
060180
060180
7fed80
7fed80
606d80
300d80
3ded80
3ded80
6dad80
7ded80
1ded80
0d8d80
19a180
39e180
71c380
200300
ENDCHAR
STARTCHAR 525E
ENCODING 21086
SWIDTH 520 0
DWIDTH 18 0
BBX 18 16 0 -3
BITMAP
060180
060180
3fcd80
3fcd80
0d8d80
38cd80
7fed80
7fed80
00cd80
3ecd80
3ecd80
36cd80
3ec180
3ec180
01c380
018300
ENDCHAR
STARTCHAR 5261
ENCODING 21089
SWIDTH 520 0
DWIDTH 18 0
BBX 18 16 0 -3
BITMAP
060300
060300
36db00
36db00
061b00
0f1b00
1ddb00
78db00
361b00
06db00
36db00
36db00
0f0300
1dc300
78e700
304600
ENDCHAR
STARTCHAR 5265
ENCODING 21093
SWIDTH 520 0
DWIDTH 18 0
BBX 18 16 0 -3
BITMAP
000180
3f8180
3f8d80
018d80
3f8d80
018d80
7fed80
7fed80
36cd80
37cd80
078d80
1ecd80
7ee180
664180
0e0780
0c0700
ENDCHAR
STARTCHAR 5267
ENCODING 21095
SWIDTH 520 0
DWIDTH 18 0
BBX 18 16 0 -3
BITMAP
000180
3fe180
3fe180
306d80
3fed80
3fed80
330d80
3fed80
3fed80
330d80
3fed80
6fed80
6c6180
6fe180
2fe780
0c6700
ENDCHAR
STARTCHAR 5269
ENCODING 21097
SWIDTH 520 0
DWIDTH 18 0
BBX 18 16 0 -3
BITMAP
3fc180
3fe180
060d80
7fed80
7fed80
060d80
16ad80
76cd80
16ad80
76ed80
570d80
0f8180
1ee180
766180
660380
060300
ENDCHAR
STARTCHAR 526A
ENCODING 21098
SWIDTH 520 0
DWIDTH 18 0
BBX 18 16 0 -3
BITMAP
061800
7fff80
7fff80
000000
1fdb00
18db00
1fdb00
18db00
1fc700
18c600
000000
3ffe00
3ffe00
030600
3e1e00
3c1c00
ENDCHAR
STARTCHAR 526F
ENCODING 21103
SWIDTH 520 0
DWIDTH 18 0
BBX 18 16 0 -3
BITMAP
7fc300
7fc300
001b00
3f9b00
3f9b00
319b00
3f9b00
001b00
7fdb00
7fdb00
66db00
7fdb00
66c300
7fc300
7fc700
60c600
ENDCHAR
STARTCHAR 5272
ENCODING 21106
SWIDTH 520 0
DWIDTH 18 0
BBX 18 16 0 -3
BITMAP
060180
060180
7fed80
7fed80
666d80
3fcd80
060d80
3fcd80
060d80
7fed80
060d80
3fcd80
3fcd80
30c180
3fc780
3fc700
ENDCHAR
STARTCHAR 527D
ENCODING 21117
SWIDTH 520 0
DWIDTH 18 0
BBX 18 16 0 -3
BITMAP
7fe180
7fe180
090d80
7fed80
696d80
7fed80
7fed80
000d80
3fcd80
000d80
7fed80
7fed80
36c180
76e180
6e6380
0c0300
ENDCHAR
STARTCHAR 527F
ENCODING 21119
SWIDTH 520 0
DWIDTH 18 0
BBX 18 16 0 -3
BITMAP
1b6180
1b6180
36cd80
1b6d80
3fed80
3fed80
336d80
3fed80
336d80
3fed80
030d80
7fed80
7fe180
1b4180
736780
232700
ENDCHAR
STARTCHAR 5281
ENCODING 21121
SWIDTH 520 0
DWIDTH 18 0
BBX 18 16 0 -3
BITMAP
0d8180
0d8180
1fed80
1fed80
398d80
7fed80
798d80
1fed80
198d80
1fed80
1fed80
180d80
000180
36b180
36b380
36b300
ENDCHAR
STARTCHAR 5282
ENCODING 21122
SWIDTH 520 0
DWIDTH 18 0
BBX 18 16 0 -3
BITMAP
7ff980
7ff980
600180
656580
656580
6f7d80
6ffd80
62cd80
6a8580
6ab580
6fb580
6fb580
667980
6ce980
59c380
488300
ENDCHAR
STARTCHAR 5288
ENCODING 21128
SWIDTH 520 0
DWIDTH 18 0
BBX 18 16 0 -3
BITMAP
000c00
3f7f00
3f7f00
333600
3f7f80
307f80
7f0c00
7b7f00
1f7f00
000c00
3ffe00
3ffe00
018600
038600
3f1e00
1e1c00
ENDCHAR
STARTCHAR 5290
ENCODING 21136
SWIDTH 520 0
DWIDTH 18 0
BBX 18 16 0 -3
BITMAP
0cc180
7ff180
0cc580
198580
1ff580
398580
7fe580
798580
1ff580
1ff580
000580
3fe580
0c6180
07c180
7ffb80
7c3300
ENDCHAR
STARTCHAR 5293
ENCODING 21139
SWIDTH 520 0
DWIDTH 18 0
BBX 18 16 0 -3
BITMAP
0c0180
3fc180
3fcd80
30cd80
3fcd80
30cd80
7fed80
666d80
7fed80
666d80
7fed80
000d80
7fed80
7fe180
198380
318300
ENDCHAR
STARTCHAR 529B
ENCODING 21147
SWIDTH 520 0
DWIDTH 18 0
BBX 18 16 0 -3
BITMAP
018000
018000
018000
018000
1ffe00
1ffe00
018600
018600
018600
038600
030600
070600
0e0600
1c0e00
383c00
103800
ENDCHAR
STARTCHAR 529D
ENCODING 21149
SWIDTH 520 0
DWIDTH 18 0
BBX 18 16 0 -3
BITMAP
001800
001800
3f1800
3f7f80
037f80
031980
331980
361980
1e1980
0c3180
0e3180
1b3180
3b6180
70e380
21cf00
008e00
ENDCHAR
STARTCHAR 529E
ENCODING 21150
SWIDTH 520 0
DWIDTH 18 0
BBX 18 16 0 -3
BITMAP
018000
018000
018000
1ffc00
1ffc00
018c00
018c00
118f00
398f00
730d80
230d80
070d80
0e0c00
1c1c00
787800
307000
ENDCHAR
STARTCHAR 529F
ENCODING 21151
SWIDTH 520 0
DWIDTH 18 0
BBX 18 16 0 -3
BITMAP
003000
003000
7e3000
7e3000
18ff00
18ff00
183300
183300
183300
183300
1e6300
7e6300
70c300
01c300
038f00
010e00
ENDCHAR
STARTCHAR 52A0
ENCODING 21152
SWIDTH 520 0
DWIDTH 18 0
BBX 18 16 0 -3
BITMAP
0c0000
0c0000
0c0000
7fbf00
7fbf00
19b300
19b300
19b300
19b300
19b300
19b300
31b300
31bf00
71bf00
67b300
270000
ENDCHAR
STARTCHAR 52A1
ENCODING 21153
SWIDTH 520 0
DWIDTH 18 0
BBX 18 16 0 -3
BITMAP
030000
03fc00
07fc00
0f0c00
1d9800
08f000
03f800
7f1f80
3d8700
018000
1ffc00
1ffc00
018c00
070c00
3e3c00
183800
ENDCHAR
STARTCHAR 52A2
ENCODING 21154
SWIDTH 520 0
DWIDTH 18 0
BBX 18 16 0 -3
BITMAP
001800
3f9800
3f9800
0c7f80
0c7f80
0f9980
0f9980
199980
199980
199980
199980
31b180
37b180
776380
20e700
004600
ENDCHAR
STARTCHAR 52A3
ENCODING 21155
SWIDTH 520 0
DWIDTH 18 0
BBX 18 16 0 -3
BITMAP
00c000
04c200
0ec700
1ccb80
38dd00
10f800
07e000
3f8000
18c000
1ffe00
1ffe00
018600
038600
070600
3e1e00
181c00
ENDCHAR
STARTCHAR 52A8
ENCODING 21160
SWIDTH 520 0
DWIDTH 18 0
BBX 18 16 0 -3
BITMAP
001800
001800
3f1800
3f1800
007f80
007f80
7f9980
7f9980
0c1980
1a1980
1b3180
3f3180
3f7180
00e380
01cf00
008e00
ENDCHAR
STARTCHAR 52A9
ENCODING 21161
SWIDTH 520 0
DWIDTH 18 0
BBX 18 16 0 -3
BITMAP
001800
3f1800
3f1800
331800
337f80
3f7f80
3f1980
331980
331980
3f1980
3f1980
333180
33b180
7ff380
7c6f00
002e00
ENDCHAR
STARTCHAR 52AA
ENCODING 21162
SWIDTH 520 0
DWIDTH 18 0
BBX 18 16 0 -3
BITMAP
0c0000
0c3f00
3fbf00
3fb300
19b600
1f1e00
078c00
3dbf80
183300
018000
1ffe00
1ffe00
018600
070600
7e1e00
381c00
ENDCHAR
STARTCHAR 52AB
ENCODING 21163
SWIDTH 520 0
DWIDTH 18 0
BBX 18 16 0 -3
BITMAP
0c1800
0c1800
3f1800
3f1800
0c7f80
0c7f80
7f9980
7f9980
181980
181980
1b3180
333180
3f7180
3f6380
00ef00
004e00
ENDCHAR
STARTCHAR 52AC
ENCODING 21164
SWIDTH 520 0
DWIDTH 18 0
BBX 18 16 0 -3
BITMAP
180c00
180c00
300c00
3f8c00
7fbf80
61bf80
3d8d80
3d8d80
358d80
358d80
3d9980
3d9980
359980
03b180
037780
002700
ENDCHAR
STARTCHAR 52AD
ENCODING 21165
SWIDTH 520 0
DWIDTH 18 0
BBX 18 16 0 -3
BITMAP
001800
7f9800
7f9800
199800
19ff00
37ff00
771b00
201b00
3f9b00
3f9b00
319b00
31b300
3fb300
3fe300
30e700
004600
ENDCHAR
STARTCHAR 52B1
ENCODING 21169
SWIDTH 520 0
DWIDTH 18 0
BBX 18 16 0 -3
BITMAP
001800
3fd800
3fd800
301800
3fbf00
3fbf00
341b00
379b00
379b00
359b00
359b00
359b00
35b300
3bb300
6b6f00
606e00
ENDCHAR
STARTCHAR 52B2
ENCODING 21170
SWIDTH 520 0
DWIDTH 18 0
BBX 18 16 0 -3
BITMAP
001800
3f1800
3f1800
037f80
067f80
1f1980
79d980
30d980
3f9980
3f9980
061980
061980
07b180
7fb180
7c6780
006700
ENDCHAR
STARTCHAR 52B3
ENCODING 21171
SWIDTH 520 0
DWIDTH 18 0
BBX 18 16 0 -3
BITMAP
031800
3fff80
3fff80
031800
031800
3fff80
3fff80
300180
30c180
0ffe00
0ffe00
018600
038600
0f0600
3e3e00
183c00
ENDCHAR
STARTCHAR 52BE
ENCODING 21182
SWIDTH 520 0
DWIDTH 18 0
BBX 18 16 0 -3
BITMAP
0c0c00
0c0c00
000c00
7f8c00
7fbf80
183f80
330d80
7f0d80
7e8d80
0dcd80
399980
731980
279980
1db180
787780
302700
ENDCHAR
STARTCHAR 52BF
ENCODING 21183
SWIDTH 520 0
DWIDTH 18 0
BBX 18 16 0 -3
BITMAP
183000
7e3000
7efe00
18fe00
7e3600
7ee600
187600
38d680
30c380
018180
3ffe00
3ffe00
018600
070600
7e3e00
383c00
ENDCHAR
STARTCHAR 52C3
ENCODING 21187
SWIDTH 520 0
DWIDTH 18 0
BBX 18 16 0 -3
BITMAP
060c00
060c00
7fcc00
7fcc00
063f80
7fff80
7fcd80
60cd80
1f0d80
1f0d80
061980
7f9980
7fb180
063180
0e6780
0cc700
ENDCHAR
STARTCHAR 52C7
ENCODING 21191
SWIDTH 520 0
DWIDTH 18 0
BBX 18 16 0 -3
BITMAP
1ffe00
1ffe00
019800
1fff00
1fff00
18c300
1fff00
18c300
1fff00
18c300
00c000
1fff00
1fff00
018300
3f0f00
1e0e00
ENDCHAR
STARTCHAR 52C9
ENCODING 21193
SWIDTH 520 0
DWIDTH 18 0
BBX 18 16 0 -3
BITMAP
0c0c00
1f8c00
7f8c00
733f00
3fff00
3fdb00
36db00
36db00
3fdb00
3fdb00
0db300
0df700
1da600
198180
39ff80
10ff00
ENDCHAR
STARTCHAR 52CB
ENCODING 21195
SWIDTH 520 0
DWIDTH 18 0
BBX 18 16 0 -3
BITMAP
3f9800
3f9800
319800
3fbf00
3fbf00
001b00
7fdb00
7fdb00
60db00
6cdb00
6cdb00
6cdb00
0c3300
1b7300
736700
602600
ENDCHAR
STARTCHAR 52D0
ENCODING 21200
SWIDTH 520 0
DWIDTH 18 0
BBX 18 16 0 -3
BITMAP
3f8c00
3f8c00
030c00
060c00
7fbf80
7fbf80
060d80
0e0d80
3fcd80
3fcd80
2acd80
2ad980
2bd980
7ff180
7e3780
001700
ENDCHAR
STARTCHAR 52D2
ENCODING 21202
SWIDTH 520 0
DWIDTH 18 0
BBX 18 16 0 -3
BITMAP
1b1800
7f9800
7f9800
1b7f80
1f7f80
1f1980
061980
3f9980
369980
3f9980
3f9980
063980
7fb180
7ff180
066780
062700
ENDCHAR
STARTCHAR 52D6
ENCODING 21206
SWIDTH 520 0
DWIDTH 18 0
BBX 18 16 0 -3
BITMAP
7fcc00
7fcc00
60cc00
6eff80
60ff80
6ecd80
000d80
3f8d80
318d80
3f9980
319980
3f9980
31b180
3fb180
3fe780
302700
ENDCHAR
STARTCHAR 52D8
ENCODING 21208
SWIDTH 520 0
DWIDTH 18 0
BBX 18 16 0 -3
BITMAP
1b0c00
1b0c00
7f8c00
7f8c00
1b3f80
1f3f80
1b0d80
1f0d80
1b0d80
7f8d80
7f9980
351980
38b980
303180
3f7780
3f2700
ENDCHAR
STARTCHAR 52DF
ENCODING 21215
SWIDTH 520 0
DWIDTH 18 0
BBX 18 16 0 -3
BITMAP
033000
3fff00
033000
0ffc00
0c0c00
0ffc00
0c0c00
0ffc00
030000
3fff00
0ccc00
7fff80
67fb80
019800
1f3800
0e3000
ENDCHAR
STARTCHAR 52E4
ENCODING 21220
SWIDTH 520 0
DWIDTH 18 0
BBX 18 16 0 -3
BITMAP
198c00
7fcc00
7fcc00
198c00
1fbf80
063f80
3fcd80
36cd80
3fcd80
060d80
3f9980
061980
3f9980
063180
3fb780
3f9700
ENDCHAR
STARTCHAR 52F0
ENCODING 21232
SWIDTH 520 0
DWIDTH 18 0
BBX 18 16 0 -3
BITMAP
180000
187f80
7f7f80
7f6d80
1b7f80
777f80
666d80
227f80
227f80
7f8000
7fb580
2ab580
2ab000
6ab300
5dbf00
459e00
ENDCHAR
STARTCHAR 52F9
ENCODING 21241
SWIDTH 520 0
DWIDTH 18 0
BBX 18 16 0 -3
BITMAP
060000
060000
0fff00
1fff00
380300
700300
200300
000300
000300
000300
000300
000300
000300
000300
000f00
000e00
ENDCHAR
STARTCHAR 52FA
ENCODING 21242
SWIDTH 520 0
DWIDTH 18 0
BBX 18 16 0 -3
BITMAP
060000
060000
060000
0fff00
1fff00
380300
700300
220300
070300
038300
01c300
008300
000300
000700
001e00
001c00
ENDCHAR
STARTCHAR 52FE
ENCODING 21246
SWIDTH 520 0
DWIDTH 18 0
BBX 18 16 0 -3
BITMAP
060000
060000
07ff00
0fff00
0c0300
1d8300
398300
130300
036300
066300
0c3300
1ff300
1ff300
000700
001e00
001c00
ENDCHAR
STARTCHAR 52FF
ENCODING 21247
SWIDTH 520 0
DWIDTH 18 0
BBX 18 16 0 -3
BITMAP
060000
060000
0c0000
0fff00
1fff00
39b300
71b300
233300
076300
0e6300
3cc300
19c300
038300
070700
1e1e00
0c1c00
ENDCHAR
STARTCHAR 5300
ENCODING 21248
SWIDTH 520 0
DWIDTH 18 0
BBX 18 16 0 -3
BITMAP
060000
060000
0fff00
0fff00
1c0300
380300
730300
23c300
00c300
000300
007300
03f300
1f8300
1c0600
001e00
001c00
ENDCHAR
STARTCHAR 5305
ENCODING 21253
SWIDTH 520 0
DWIDTH 18 0
BBX 18 16 0 -3
BITMAP
060000
060000
07fe00
0ffe00
1c0600
3fe600
3fe600
0c6600
0c6600
0fe600
0fee00
0c0c00
0c0300
0c0300
0fff00
07fe00
ENDCHAR
STARTCHAR 5306
ENCODING 21254
SWIDTH 520 0
DWIDTH 18 0
BBX 18 16 0 -3
BITMAP
060000
060000
060000
0fff00
1fff00
39b300
75b300
273300
03b300
06e300
1c7300
38fb00
019300
070300
1e1f00
181e00
ENDCHAR
STARTCHAR 5308
ENCODING 21256
SWIDTH 520 0
DWIDTH 18 0
BBX 18 16 0 -3
BITMAP
0c0000
0c0000
1fff00
3fff00
70c300
26c300
1edb00
1b9b00
199b00
1fdb00
1edb00
181b00
1ffb00
1ffb00
000700
000600
ENDCHAR
STARTCHAR 530D
ENCODING 21261
SWIDTH 520 0
DWIDTH 18 0
BBX 18 16 0 -3
BITMAP
0c0000
0fff00
1fff00
180300
31b300
7ffb00
218300
1ffb00
1ffb00
199b00
1ffb00
199b00
1ffb00
199b00
19bf00
19b600
ENDCHAR
STARTCHAR 530F
ENCODING 21263
SWIDTH 520 0
DWIDTH 18 0
BBX 18 16 0 -3
BITMAP
0c3000
0c3000
7fbf80
7fff80
1b6180
71fd80
6efd80
006d80
7f6d80
7f7d80
187f80
1f6300
1f6000
036180
0f7f80
0e3f00
ENDCHAR
STARTCHAR 5310
ENCODING 21264
SWIDTH 520 0
DWIDTH 18 0
BBX 18 16 0 -3
BITMAP
0c0000
0fff00
1fff00
180300
3ffb00
700300
2ff300
0c3300
0ff300
000300
1ffb00
199b00
1ffb00
199b00
1fff00
1ffe00
ENDCHAR
STARTCHAR 5315
ENCODING 21269
SWIDTH 520 0
DWIDTH 18 0
BBX 18 16 0 -3
BITMAP
0c0000
0c0000
0c0400
0c0e00
0c3c00
0cf000
0fc000
0f0000
0c0000
0c0000
0c0000
0c0000
0c0300
0fff00
07fe00
000000
ENDCHAR
STARTCHAR 5316
ENCODING 21270
SWIDTH 520 0
DWIDTH 18 0
BBX 18 16 0 -3
BITMAP
066000
066000
0c6000
0c6200
1c6700
1c6e00
3c7c00
6c7800
0c7000
0ce000
0fe000
0f6000
0c6180
0c6180
0c7f80
0c3f00
ENDCHAR
STARTCHAR 5317
ENCODING 21271
SWIDTH 520 0
DWIDTH 18 0
BBX 18 16 0 -3
BITMAP
033000
033000
033000
033000
033300
3f3780
3f3e00
033800
033000
033000
033000
033000
0f3180
7f3180
333f80
031f00
ENDCHAR
STARTCHAR 5319
ENCODING 21273
SWIDTH 520 0
DWIDTH 18 0
BBX 18 16 0 -3
BITMAP
001800
1f9800
1f9800
199980
1f9b80
199e00
1f9c00
001800
7fd800
7fd800
061980
37df80
37cf00
3e0000
6fff80
63ff80
ENDCHAR
STARTCHAR 531A
ENCODING 21274
SWIDTH 520 0
DWIDTH 18 0
BBX 18 16 0 -3
BITMAP
000000
3fff00
3fff00
300000
300000
300000
300000
300000
300000
300000
300000
300000
300000
300000
3fff00
3fff00
ENDCHAR
STARTCHAR 531D
ENCODING 21277
SWIDTH 520 0
DWIDTH 18 0
BBX 18 16 0 -3
BITMAP
000000
3fff00
3fff00
306000
306000
37fe00
37fe00
366600
366600
366600
366e00
366c00
306000
300000
3fff00
3fff00
ENDCHAR
STARTCHAR 5320
ENCODING 21280
SWIDTH 520 0
DWIDTH 18 0
BBX 18 16 0 -3
BITMAP
3fff00
3fff00
300000
33fc00
33fe00
330000
330000
33ff00
33ff00
331800
331800
361800
361800
300000
3fff80
3fff80
ENDCHAR
STARTCHAR 5321
ENCODING 21281
SWIDTH 520 0
DWIDTH 18 0
BBX 18 16 0 -3
BITMAP
3fff00
3fff00
300000
37fe00
37fe00
306000
306000
37fe00
37fe00
306000
306000
37ff00
37ff00
300000
3fff00
3fff00
ENDCHAR
STARTCHAR 5323
ENCODING 21283
SWIDTH 520 0
DWIDTH 18 0
BBX 18 16 0 -3
BITMAP
3fff00
3fff00
300000
37fe00
37fe00
366600
37fe00
37fe00
366600
37fe00
37fe00
306000
306000
306000
3fff80
3fff80
ENDCHAR
STARTCHAR 5326
ENCODING 21286
SWIDTH 520 0
DWIDTH 18 0
BBX 18 16 0 -3
BITMAP
7fff00
7fff00
600000
661000
6fd000
663e00
6dbe00
6fd600
6fd600
619600
6fd680
6ff780
61a780
618000
7fff80
7fff80
ENDCHAR
STARTCHAR 532A
ENCODING 21290
SWIDTH 520 0
DWIDTH 18 0
BBX 18 16 0 -3
BITMAP
3fff00
3fff00
300000
30d800
37df00
37df00
30d800
37df00
37df00
30d800
37df00
37df00
30d800
30d800
3fff80
3fff80
ENDCHAR
STARTCHAR 532E
ENCODING 21294
SWIDTH 520 0
DWIDTH 18 0
BBX 18 16 0 -3
BITMAP
3fff00
3fff00
306000
33fc00
336c00
33fc00
306000
3fff00
300000
37fe00
360600
36c600
319c00
370700
3fff80
3fff80
ENDCHAR
STARTCHAR 5339
ENCODING 21305
SWIDTH 520 0
DWIDTH 18 0
BBX 18 16 0 -3
BITMAP
000000
3fff00
3fff00
319800
319800
319800
319800
319800
339b00
331b00
371f00
320e00
300000
3fff00
3fff00
000000
ENDCHAR
STARTCHAR 533A
ENCODING 21306
SWIDTH 520 0
DWIDTH 18 0
BBX 18 16 0 -3
BITMAP
000000
3fff00
3fff00
300000
310c00
338c00
30d800
307000
303800
307c00
30ce00
338700
370200
320000
3fff80
3fff80
ENDCHAR
STARTCHAR 533B
ENCODING 21307
SWIDTH 520 0
DWIDTH 18 0
BBX 18 16 0 -3
BITMAP
3fff00
3fff00
300000
318000
33fe00
37fe00
366000
306000
37ff00
37ff00
30f000
31d800
378e00
330600
3fff80
3fff80
ENDCHAR
STARTCHAR 533E
ENCODING 21310
SWIDTH 520 0
DWIDTH 18 0
BBX 18 16 0 -3
BITMAP
3fff00
3fff00
306000
37fe00
37fe00
360600
37fe00
360000
37ff00
376b00
3fff00
3b6b00
3b6f00
300000
3fff00
3fff00
ENDCHAR
STARTCHAR 533F
ENCODING 21311
SWIDTH 520 0
DWIDTH 18 0
BBX 18 16 0 -3
BITMAP
3fff00
3fff00
319800
37fe00
37fe00
319800
306000
37ff00
37ff00
318000
37fe00
378600
31fe00
300000
3fff00
3fff00
ENDCHAR
STARTCHAR 5341
ENCODING 21313
SWIDTH 520 0
DWIDTH 18 0
BBX 18 16 0 -3
BITMAP
00c000
00c000
00c000
00c000
00c000
00c000
7fff80
7fff80
00c000
00c000
00c000
00c000
00c000
00c000
00c000
00c000
ENDCHAR
STARTCHAR 5343
ENCODING 21315
SWIDTH 520 0
DWIDTH 18 0
BBX 18 16 0 -3
BITMAP
003c00
1ffe00
1fc000
00c000
00c000
00c000
00c000
7fff80
7fff80
00c000
00c000
00c000
00c000
00c000
00c000
00c000
ENDCHAR
STARTCHAR 5345
ENCODING 21317
SWIDTH 520 0
DWIDTH 18 0
BBX 18 16 0 -3
BITMAP
0c0600
0cc600
0cc600
0cc600
0cc600
0cc600
7fff80
7fff80
0cc600
0cc600
0cc600
18c600
18c600
30c600
70c600
200600
ENDCHAR
STARTCHAR 5347
ENCODING 21319
SWIDTH 520 0
DWIDTH 18 0
BBX 18 16 0 -3
BITMAP
019800
07d800
3f1800
1b1800
031800
031800
7fff80
7fff80
031800
031800
061800
061800
0c1800
1c1800
381800
101800
ENDCHAR
STARTCHAR 5348
ENCODING 21320
SWIDTH 520 0
DWIDTH 18 0
BBX 18 16 0 -3
BITMAP
060000
060000
0fff00
0fff00
1c6000
386000
106000
006000
7fff80
7fff80
006000
006000
006000
006000
006000
006000
ENDCHAR
STARTCHAR 5349
ENCODING 21321
SWIDTH 520 0
DWIDTH 18 0
BBX 18 16 0 -3
BITMAP
00c000
00c000
3fff00
3fff00
00c000
00c000
06d800
061800
061800
7fff80
7fff80
061800
0c1800
1c1800
781800
301800
ENDCHAR
STARTCHAR 534A
ENCODING 21322
SWIDTH 520 0
DWIDTH 18 0
BBX 18 16 0 -3
BITMAP
00c000
18c600
18c600
0ccc00
0ccc00
00c000
3fff00
3fff00
00c000
00c000
7fff80
7fff80
00c000
00c000
00c000
00c000
ENDCHAR
STARTCHAR 534E
ENCODING 21326
SWIDTH 520 0
DWIDTH 18 0
BBX 18 16 0 -3
BITMAP
066000
066600
0c6f00
1c7c00
3df000
2de000
0c6180
0c7f80
0c3f00
0cc000
00c000
7fff80
7fff80
00c000
00c000
00c000
ENDCHAR
STARTCHAR 534F
ENCODING 21327
SWIDTH 520 0
DWIDTH 18 0
BBX 18 16 0 -3
BITMAP
186000
186000
186000
19fe00
7ffe00
7e6600
186600
1b6700
1b6780
1b6680
1b6680
18c600
18c600
198600
1b9e00
191c00
ENDCHAR
STARTCHAR 5351
ENCODING 21329
SWIDTH 520 0
DWIDTH 18 0
BBX 18 16 0 -3
BITMAP
018000
018000
1ffe00
1ffe00
18c600
1ffe00
1ffe00
198600
1ffe00
1ffe00
066000
7fff80
7fff80
006000
006000
006000
ENDCHAR
STARTCHAR 5352
ENCODING 21330
SWIDTH 520 0
DWIDTH 18 0
BBX 18 16 0 -3
BITMAP
00c000
00c000
3fff00
3fff00
061800
061800
0f3e00
1bf700
392200
100000
00c000
7fff80
7fff80
00c000
00c000
00c000
ENDCHAR
STARTCHAR 5353
ENCODING 21331
SWIDTH 520 0
DWIDTH 18 0
BBX 18 16 0 -3
BITMAP
00c000
00ff00
00ff00
00c000
1ffe00
1ffe00
180600
1ffe00
180600
1ffe00
1ffe00
00c000
7fff80
7fff80
00c000
00c000
ENDCHAR
STARTCHAR 5355
ENCODING 21333
SWIDTH 520 0
DWIDTH 18 0
BBX 18 16 0 -3
BITMAP
061800
061800
033000
1ffe00
1ffe00
18c600
1ffe00
1ffe00
18c600
1ffe00
1ffe00
00c000
7fff80
7fff80
00c000
00c000
ENDCHAR
STARTCHAR 5356
ENCODING 21334
SWIDTH 520 0
DWIDTH 18 0
BBX 18 16 0 -3
BITMAP
00c000
3fff00
3fff00
00c000
3fff00
3fff00
060300
076300
1b6000
0c6000
7fff80
7fff80
00c000
039800
3f1e00
1c0600
ENDCHAR
STARTCHAR 5357
ENCODING 21335
SWIDTH 520 0
DWIDTH 18 0
BBX 18 16 0 -3
BITMAP
00c000
00c000
3fff00
3fff00
00c000
3fff00
3fff00
333300
37fb00
37fb00
30c300
37fb00
37fb00
30c300
30c700
30c600
ENDCHAR
STARTCHAR 535A
ENCODING 21338
SWIDTH 520 0
DWIDTH 18 0
BBX 18 16 0 -3
BITMAP
303600
33ff80
33ff80
303000
7bff00
7b3300
33ff00
333300
33ff00
333300
300600
37ff80
37ff80
30c600
30ce00
300c00
ENDCHAR
STARTCHAR 535C
ENCODING 21340
SWIDTH 520 0
DWIDTH 18 0
BBX 18 16 0 -3
BITMAP
018000
018000
018000
018000
018000
019000
01b800
019c00
018e00
018700
018200
018000
018000
018000
018000
018000
ENDCHAR
STARTCHAR 535E
ENCODING 21342
SWIDTH 520 0
DWIDTH 18 0
BBX 18 16 0 -3
BITMAP
018000
01c000
00c000
7fff80
7fff80
018000
018000
019000
01b800
019c00
018e00
018400
018000
018000
018000
018000
ENDCHAR
STARTCHAR 535F
ENCODING 21343
SWIDTH 520 0
DWIDTH 18 0
BBX 18 16 0 -3
BITMAP
006000
006000
7e6000
7e6000
666400
666e00
666700
666300
666380
666100
7e6000
7e6000
666000
606000
006000
006000
ENDCHAR
STARTCHAR 5360
ENCODING 21344
SWIDTH 520 0
DWIDTH 18 0
BBX 18 16 0 -3
BITMAP
018000
018000
018000
01ff00
01ff00
018000
018000
018000
1ffc00
1ffc00
180c00
180c00
180c00
1ffc00
1ffc00
180c00
ENDCHAR
STARTCHAR 5361
ENCODING 21345
SWIDTH 520 0
DWIDTH 18 0
BBX 18 16 0 -3
BITMAP
00c000
00c000
00fe00
00fe00
00c000
00c000
7fff80
7fff80
00c000
00c000
00f000
00fc00
00ce00
00c400
00c000
00c000
ENDCHAR
STARTCHAR 5362
ENCODING 21346
SWIDTH 520 0
DWIDTH 18 0
BBX 18 16 0 -3
BITMAP
00c000
00ff00
00ff00
00c000
00c000
1ffe00
1ffe00
180600
180600
1ffe00
1ffe00
180600
180000
300000
300000
600000
ENDCHAR
STARTCHAR 5363
ENCODING 21347
SWIDTH 520 0
DWIDTH 18 0
BBX 18 16 0 -3
BITMAP
018000
01ff00
01ff00
018000
3ffe00
3ffe00
300600
3fe600
3fe600
302600
3fe600
3fe600
300600
3ffe00
3ffe00
300600
ENDCHAR
STARTCHAR 5364
ENCODING 21348
SWIDTH 520 0
DWIDTH 18 0
BBX 18 16 0 -3
BITMAP
018000
01ff00
01ff00
018000
018000
3ffe00
3ffe00
313600
33b600
31e600
30e600
33b600
333600
3ffe00
3ffe00
300600
ENDCHAR
STARTCHAR 5366
ENCODING 21350
SWIDTH 520 0
DWIDTH 18 0
BBX 18 16 0 -3
BITMAP
061800
061800
3f9800
3f9800
061800
7fdb00
7fdb00
001b00
061980
3f9980
3f9800
061800
061800
7fd800
7fd800
001800
ENDCHAR
STARTCHAR 5367
ENCODING 21351
SWIDTH 520 0
DWIDTH 18 0
BBX 18 16 0 -3
BITMAP
001800
3fd800
3fd800
361800
361800
3fde00
3fde00
30db00
30d980
3fd980
3fd800
361800
361800
3fd800
3fd800
001800
ENDCHAR
STARTCHAR 5369
ENCODING 21353
SWIDTH 520 0
DWIDTH 18 0
BBX 18 16 0 -3
BITMAP
000000
007f00
007f00
006300
006300
006300
006300
006300
006300
006300
006300
006700
006600
006000
006000
006000
ENDCHAR
STARTCHAR 536B
ENCODING 21355
SWIDTH 520 0
DWIDTH 18 0
BBX 18 16 0 -3
BITMAP
000000
3ffe00
3ffe00
018600
018600
018600
018600
018600
018600
019e00
019c00
018000
018000
7fff80
7fff80
000000
ENDCHAR
STARTCHAR 536E
ENCODING 21358
SWIDTH 520 0
DWIDTH 18 0
BBX 18 16 0 -3
BITMAP
000c00
1ffe00
1ff000
180000
1fff80
1fff80
180000
1bfc00
1bfc00
1b0c00
1b1c00
331800
330300
63ff00
61fe00
200000
ENDCHAR
STARTCHAR 536F
ENCODING 21359
SWIDTH 520 0
DWIDTH 18 0
BBX 18 16 0 -3
BITMAP
030000
3fbf00
3c3f00
333300
333300
333300
333300
333300
333300
373300
3f3300
3b3700
063600
0e3000
3c3000
183000
ENDCHAR
STARTCHAR 5370
ENCODING 21360
SWIDTH 520 0
DWIDTH 18 0
BBX 18 16 0 -3
BITMAP
030000
3fbf00
3c3f00
303300
303300
303300
3f3300
3f3300
303300
303300
333300
3f3700
3c3600
303000
003000
003000
ENDCHAR
STARTCHAR 5371
ENCODING 21361
SWIDTH 520 0
DWIDTH 18 0
BBX 18 16 0 -3
BITMAP
060000
060000
0ff800
1ff800
783000
7fff00
1fff00
180000
1bfc00
1bfc00
1b0c00
1b3c00
333800
330300
73ff00
21fe00
ENDCHAR
STARTCHAR 5373
ENCODING 21363
SWIDTH 520 0
DWIDTH 18 0
BBX 18 16 0 -3
BITMAP
000000
3fbf00
3fbf00
31b300
3fb300
3fb300
31b300
3fb300
3fb300
303300
333300
333300
37b700
3fb600
39b000
003000
ENDCHAR
STARTCHAR 5374
ENCODING 21364
SWIDTH 520 0
DWIDTH 18 0
BBX 18 16 0 -3
BITMAP
060000
061f80
3f9f80
3f9980
061980
061980
7fd980
7fd980
0c1980
0c1980
199980
199980
3fdb80
3fdb00
001800
001800
ENDCHAR
STARTCHAR 5375
ENCODING 21365
SWIDTH 520 0
DWIDTH 18 0
BBX 18 16 0 -3
BITMAP
030000
3fbf00
3c3f00
31b300
31b300
39bb00
3dbf00
35b700
31b700
37b300
3fb300
3b3700
073600
0e3000
3c3000
383000
ENDCHAR
STARTCHAR 5377
ENCODING 21367
SWIDTH 520 0
DWIDTH 18 0
BBX 18 16 0 -3
BITMAP
00c000
0ccc00
0ccc00
1fff00
1fff00
018000
3fff80
3fff80
060c00
0ffe00
7ffb80
361980
067000
060600
07fe00
03fc00
ENDCHAR
STARTCHAR 5378
ENCODING 21368
SWIDTH 520 0
DWIDTH 18 0
BBX 18 16 0 -3
BITMAP
180000
180000
3f9f80
7f9f80
661980
061980
7fd980
7fd980
061980
37d980
37d980
361980
37db80
7fdb00
7c1800
001800
ENDCHAR
STARTCHAR 537A
ENCODING 21370
SWIDTH 520 0
DWIDTH 18 0
BBX 18 16 0 -3
BITMAP
1ffe00
1ffe00
007000
7ec700
7efc00
0cd800
19cf80
718700
2ffc00
000000
0ffc00
0c0c00
0c3c00
0c0300
0fff00
07fe00
ENDCHAR
STARTCHAR 537F
ENCODING 21375
SWIDTH 520 0
DWIDTH 18 0
BBX 18 16 0 -3
BITMAP
180000
7def80
71ef80
6dad80
6ded80
6ded80
6dad80
6ded80
6ded80
7d8d80
7dad80
0def80
19ef00
39ac00
700c00
200c00
ENDCHAR
STARTCHAR 5382
ENCODING 21378
SWIDTH 520 0
DWIDTH 18 0
BBX 18 16 0 -3
BITMAP
000000
1fff80
1fff80
180000
180000
180000
180000
180000
180000
180000
180000
180000
180000
300000
300000
600000
ENDCHAR
STARTCHAR 5384
ENCODING 21380
SWIDTH 520 0
DWIDTH 18 0
BBX 18 16 0 -3
BITMAP
000000
1fff80
1fff80
180000
19fe00
19fe00
198600
198600
198600
198600
199e00
319c00
318000
618180
61ff80
20ff00
ENDCHAR
STARTCHAR 5385
ENCODING 21381
SWIDTH 520 0
DWIDTH 18 0
BBX 18 16 0 -3
BITMAP
000000
3fff00
3fff00
300000
300000
37ff80
37ff80
303000
303000
303000
303000
303000
303000
603000
60f000
20e000
ENDCHAR
STARTCHAR 5386
ENCODING 21382
SWIDTH 520 0
DWIDTH 18 0
BBX 18 16 0 -3
BITMAP
000000
1fff00
1fff00
18c000
18c000
18c000
1bfe00
1bfe00
18c600
18c600
18c600
198600
198600
330600
371e00
661c00
ENDCHAR
STARTCHAR 5389
ENCODING 21385
SWIDTH 520 0
DWIDTH 18 0
BBX 18 16 0 -3
BITMAP
000000
3fff80
3fff80
300000
37ff00
37ff00
30c000
30c000
30fe00
30fe00
30c600
318600
318600
338600
671e00
621c00
ENDCHAR
STARTCHAR 538B
ENCODING 21387
SWIDTH 520 0
DWIDTH 18 0
BBX 18 16 0 -3
BITMAP
000000
1fff00
1fff00
180000
186000
186000
186000
1bfe00
1bfe00
186000
306600
306600
306000
6fff00
6fff00
200000
ENDCHAR
STARTCHAR 538C
ENCODING 21388
SWIDTH 520 0
DWIDTH 18 0
BBX 18 16 0 -3
BITMAP
000000
3fff80
3fff80
306000
306600
306600
37ff80
37ff80
306000
306000
30f000
30d800
319c00
638e00
6f0780
260300
ENDCHAR
STARTCHAR 538D
ENCODING 21389
SWIDTH 520 0
DWIDTH 18 0
BBX 18 16 0 -3
BITMAP
000000
3fff80
3fff80
30c000
37ff00
37ff00
318000
333000
37ff00
37ff00
303000
37ff80
37ff80
603000
603000
203000
ENDCHAR
STARTCHAR 5395
ENCODING 21397
SWIDTH 520 0
DWIDTH 18 0
BBX 18 16 0 -3
BITMAP
3fff80
3fff80
300000
37e300
37eb00
342b00
35ab00
35ab00
35ab00
35ab00
35ab00
318b00
336300
377300
6e3700
640600
ENDCHAR
STARTCHAR 5398
ENCODING 21400
SWIDTH 520 0
DWIDTH 18 0
BBX 18 16 0 -3
BITMAP
000000
1fff80
1fff80
180000
1bff00
1b3300
1bff00
1b3300
1bff00
1bff00
183000
33ff00
33ff00
603000
6fff80
2fff80
ENDCHAR
STARTCHAR 539A
ENCODING 21402
SWIDTH 520 0
DWIDTH 18 0
BBX 18 16 0 -3
BITMAP
3fff00
3fff00
300000
33fe00
330600
33fe00
330600
33fe00
300000
33fe00
300c00
37ff80
37ff80
603000
607000
006000
ENDCHAR
STARTCHAR 539D
ENCODING 21405
SWIDTH 520 0
DWIDTH 18 0
BBX 18 16 0 -3
BITMAP
3fff80
3fff80
30cc00
33ff00
33ff00
30cc00
37ff80
37ff80
300000
33ff00
330300
33ff00
330300
63ff00
63ff00
230300
ENDCHAR
STARTCHAR 539F
ENCODING 21407
SWIDTH 520 0
DWIDTH 18 0
BBX 18 16 0 -3
BITMAP
000000
1fff00
1fff00
186000
1bfe00
1bfe00
1b0600
1bfe00
1b0600
1bfe00
1bfe00
183000
333600
373700
667300
606000
ENDCHAR
STARTCHAR 53A2
ENCODING 21410
SWIDTH 520 0
DWIDTH 18 0
BBX 18 16 0 -3
BITMAP
000000
3fff80
3fff80
330000
333f00
37bf00
37b300
333f00
333f00
37b300
37bf00
3f3f00
6b3300
633f00
633f00
233300
ENDCHAR
STARTCHAR 53A3
ENCODING 21411
SWIDTH 520 0
DWIDTH 18 0
BBX 18 16 0 -3
BITMAP
3fff80
3fff80
306600
37ff00
37ff00
30d800
318c00
3f0780
37ff00
366300
37ff00
366300
37ff00
67ff00
666300
206000
ENDCHAR
STARTCHAR 53A5
ENCODING 21413
SWIDTH 520 0
DWIDTH 18 0
BBX 18 16 0 -3
BITMAP
3fff00
3fff00
300000
36cc00
36cc00
3fef80
3fff80
319980
35ac00
35ac00
37ec00
37ec00
319e00
633b00
6e7380
2c2100
ENDCHAR
STARTCHAR 53A6
ENCODING 21414
SWIDTH 520 0
DWIDTH 18 0
BBX 18 16 0 -3
BITMAP
3fff80
3fff80
300000
37ff00
306000
37fe00
360600
37fe00
360600
37fe00
318000
37fc00
66cc00
607800
6fff80
278f00
ENDCHAR
STARTCHAR 53A8
ENCODING 21416
SWIDTH 520 0
DWIDTH 18 0
BBX 18 16 0 -3
BITMAP
3fff80
3fff80
300000
37e300
37e300
301f80
37df80
36c300
36db00
37db00
37db00
30c300
66c300
66e300
6fef00
2f0e00
ENDCHAR
STARTCHAR 53A9
ENCODING 21417
SWIDTH 520 0
DWIDTH 18 0
BBX 18 16 0 -3
BITMAP
3fff80
3fff80
300000
37bf00
37bf00
368600
37b600
36bf00
37bf00
378600
360e00
369e00
37be00
677680
66e780
204300
ENDCHAR
STARTCHAR 53AE
ENCODING 21422
SWIDTH 520 0
DWIDTH 18 0
BBX 18 16 0 -3
BITMAP
3fff80
3fff80
300000
36df00
3fff00
3ff800
36d800
37df80
36df80
37db00
36db00
3ffb00
301b00
66b300
6eb300
2c1300
ENDCHAR
STARTCHAR 53B6
ENCODING 21430
SWIDTH 520 0
DWIDTH 18 0
BBX 18 16 0 -3
BITMAP
000000
000000
018000
018000
038000
030000
070000
061800
0c1800
0c0c00
180c00
303e00
7ffe00
7fc300
000300
000000
ENDCHAR
STARTCHAR 53BB
ENCODING 21435
SWIDTH 520 0
DWIDTH 18 0
BBX 18 16 0 -3
BITMAP
00c000
00c000
00c000
1ffe00
1ffe00
00c000
00c000
00c000
7fff80
7fff80
030000
031800
061800
0c7c00
1ffe00
1f8600
ENDCHAR
STARTCHAR 53BF
ENCODING 21439
SWIDTH 520 0
DWIDTH 18 0
BBX 18 16 0 -3
BITMAP
000000
0ffc00
0ffc00
0c0c00
0ffc00
0ffc00
0c0c00
0ffc00
0ffc00
0c0c00
7fff80
7fff80
030000
060c00
1ffe00
1ffe00
ENDCHAR
STARTCHAR 53C1
ENCODING 21441
SWIDTH 520 0
DWIDTH 18 0
BBX 18 16 0 -3
BITMAP
018000
038000
071800
1ffc00
1ffc00
018000
3fff00
3fff00
060c00
0ff600
7bf380
300180
07f800
000000
1ffe00
1ffe00
ENDCHAR
STARTCHAR 53C2
ENCODING 21442
SWIDTH 520 0
DWIDTH 18 0
BBX 18 16 0 -3
BITMAP
018000
031800
0ffc00
0ffc00
018000
3fff00
3fff00
061800
1ccc00
7b8780
367300
01cc00
0f3c00
00f000
1fc000
0f0000
ENDCHAR
STARTCHAR 53C8
ENCODING 21448
SWIDTH 520 0
DWIDTH 18 0
BBX 18 16 0 -3
BITMAP
000000
3ffe00
3ffe00
0c0600
0c0c00
060c00
061800
031800
033000
01f000
00e000
01f000
03b800
0e1e00
7c0f80
300300
ENDCHAR
STARTCHAR 53C9
ENCODING 21449
SWIDTH 520 0
DWIDTH 18 0
BBX 18 16 0 -3
BITMAP
000000
3ffc00
3ffc00
0c0c00
0ccc00
0ccc00
06d800
061800
033000
037000
01e000
01c000
03e000
0f3800
7c1f80
300700
ENDCHAR
STARTCHAR 53CA
ENCODING 21450
SWIDTH 520 0
DWIDTH 18 0
BBX 18 16 0 -3
BITMAP
000000
1ff800
1ff800
061800
061800
063000
073e00
073e00
0d8600
0d8c00
18d800
187000
30f800
71de00
2f8f80
060300
ENDCHAR
STARTCHAR 53CB
ENCODING 21451
SWIDTH 520 0
DWIDTH 18 0
BBX 18 16 0 -3
BITMAP
018000
018000
018000
3fff00
3fff00
030000
03fc00
03fc00
070c00
071800
0db800
1cf000
386000
71fc00
2f9f80
060300
ENDCHAR
STARTCHAR 53CC
ENCODING 21452
SWIDTH 520 0
DWIDTH 18 0
BBX 18 16 0 -3
BITMAP
000000
7f7f00
7f7f00
036300
136300
3b6300
1b6600
0e3600
063c00
0e3c00
0f1800
1bbc00
396e00
70e700
21c380
008100
ENDCHAR
STARTCHAR 53CD
ENCODING 21453
SWIDTH 520 0
DWIDTH 18 0
BBX 18 16 0 -3
BITMAP
003c00
1ffe00
1fc000
180000
180000
1ffc00
1ffc00
1b0c00
1b0c00
199800
199800
30f000
306000
61f800
6f9f80
260700
ENDCHAR
STARTCHAR 53D1
ENCODING 21457
SWIDTH 520 0
DWIDTH 18 0
BBX 18 16 0 -3
BITMAP
00c000
18cc00
18cc00
318000
3fff00
3fff00
030000
07fc00
07fc00
0d8c00
1d9800
38d800
707000
21fc00
0f8f80
060300
ENDCHAR
STARTCHAR 53D4
ENCODING 21460
SWIDTH 520 0
DWIDTH 18 0
BBX 18 16 0 -3
BITMAP
0c0000
0c0000
0c7f00
0fff00
0fb300
0c3300
7fb300
7fb300
0c3600
3db600
3d9c00
6d9c00
6c3e00
6c7700
1de380
18c100
ENDCHAR
STARTCHAR 53D6
ENCODING 21462
SWIDTH 520 0
DWIDTH 18 0
BBX 18 16 0 -3
BITMAP
000000
7f8000
7fbf00
333f00
333300
3f3300
3f3300
333600
3f1600
3f1e00
331c00
33cc00
7fde00
7f3b00
037380
032100
ENDCHAR
STARTCHAR 53D7
ENCODING 21463
SWIDTH 520 0
DWIDTH 18 0
BBX 18 16 0 -3
BITMAP
00fe00
3fff00
1f0000
0ccc00
0ccc00
001800
3fff00
3fff00
300300
0ff800
0ff800
031800
03b000
01e000
3fff00
3e1f00
ENDCHAR
STARTCHAR 53D8
ENCODING 21464
SWIDTH 520 0
DWIDTH 18 0
BBX 18 16 0 -3
BITMAP
00c000
00c000
3fff00
3fff00
1b3600
1b3600
333300
333300
000000
1ffc00
1ffc00
061800
033000
01e000
7fff80
3e1f00
ENDCHAR
STARTCHAR 53D9
ENCODING 21465
SWIDTH 520 0
DWIDTH 18 0
BBX 18 16 0 -3
BITMAP
060000
0f0000
1dbf00
39ff00
70b300
3fb300
1fb300
063300
3ff600
3fde00
061c00
36cc00
36de00
363700
0ef380
0c6100
ENDCHAR
STARTCHAR 53DB
ENCODING 21467
SWIDTH 520 0
DWIDTH 18 0
BBX 18 16 0 -3
BITMAP
0c0300
0c7f80
6d7c00
6d6000
0c6000
3f7f00
3f7f00
0c6b00
0c6b00
7feb00
7feb00
0c6e00
0cc600
19cf00
1bbb80
311100
ENDCHAR
STARTCHAR 53DF
ENCODING 21471
SWIDTH 520 0
DWIDTH 18 0
BBX 18 16 0 -3
BITMAP
00c000
1ede00
1ede00
18c600
1ede00
18c600
1ffe00
1ffe00
00c000
1ffe00
1ffe00
060c00
031800
01f000
7fff80
3e1f00
ENDCHAR
STARTCHAR 53E0
ENCODING 21472
SWIDTH 520 0
DWIDTH 18 0
BBX 18 16 0 -3
BITMAP
0ffc00
031800
01f000
079c00
3f7e00
1b2200
061c00
1b6300
7fff80
600180
0ffc00
0c0c00
0ffc00
0c0c00
3fff00
3fff00
ENDCHAR
STARTCHAR 53E3
ENCODING 21475
SWIDTH 520 0
DWIDTH 18 0
BBX 18 16 0 -3
BITMAP
000000
000000
1ffe00
1ffe00
180600
180600
180600
180600
180600
180600
180600
180600
1ffe00
1ffe00
180600
180600
ENDCHAR
STARTCHAR 53E4
ENCODING 21476
SWIDTH 520 0
DWIDTH 18 0
BBX 18 16 0 -3
BITMAP
00c000
00c000
00c000
7fff80
7fff80
00c000
00c000
00c000
1ffe00
1ffe00
180600
180600
180600
1ffe00
1ffe00
180600
ENDCHAR
STARTCHAR 53E5
ENCODING 21477
SWIDTH 520 0
DWIDTH 18 0
BBX 18 16 0 -3
BITMAP
060000
0e0000
0c0000
1fff00
3fff00
700300
200300
0ff300
0ff300
0c3300
0c3300
0ff300
0ff300
0c3300
000f00
000e00
ENDCHAR
STARTCHAR 53E6
ENCODING 21478
SWIDTH 520 0
DWIDTH 18 0
BBX 18 16 0 -3
BITMAP
000000
0ffe00
0ffe00
0c0600
0c0600
0ffe00
0ffe00
00c000
00c000
3fff00
3fff00
018300
038300
070700
3e1e00
1c1c00
ENDCHAR
STARTCHAR 53E8
ENCODING 21480
SWIDTH 520 0
DWIDTH 18 0
BBX 18 16 0 -3
BITMAP
000000
7eff00
7eff00
663300
663300
663300
663300
663300
663300
7e3300
7e6300
666300
60e300
01c300
078f00
030e00
ENDCHAR
STARTCHAR 53E9
ENCODING 21481
SWIDTH 520 0
DWIDTH 18 0
BBX 18 16 0 -3
BITMAP
000000
3f3f00
3f3f00
333300
333300
333300
333300
333300
333300
3f3300
3f3300
333700
303600
003000
003000
003000
ENDCHAR
STARTCHAR 53EA
ENCODING 21482
SWIDTH 520 0
DWIDTH 18 0
BBX 18 16 0 -3
BITMAP
000000
0ffc00
0ffc00
0c0c00
0c0c00
0c0c00
0c0c00
0c0c00
0ffc00
0ffc00
020800
071c00
0e0e00
1c0700
780380
300100
ENDCHAR
STARTCHAR 53EB
ENCODING 21483
SWIDTH 520 0
DWIDTH 18 0
BBX 18 16 0 -3
BITMAP
000300
3f0300
3f6300
336300
336300
336300
336300
336300
336300
3f6f00
3f7f00
337300
300300
000300
000300
000300
ENDCHAR
STARTCHAR 53EC
ENCODING 21484
SWIDTH 520 0
DWIDTH 18 0
BBX 18 16 0 -3
BITMAP
000000
1ffe00
1ffe00
018600
018600
030600
071e00
3e1c00
180000
0ffe00
0ffe00
0c0600
0c0600
0ffe00
0ffe00
0c0600
ENDCHAR
STARTCHAR 53ED
ENCODING 21485
SWIDTH 520 0
DWIDTH 18 0
BBX 18 16 0 -3
BITMAP
000000
006c00
7e6c00
7e6c00
666c00
666c00
666c00
666c00
666c00
7ecc00
7ec600
66c600
618600
038300
070380
060100
ENDCHAR
STARTCHAR 53EE
ENCODING 21486
SWIDTH 520 0
DWIDTH 18 0
BBX 18 16 0 -3
BITMAP
000000
7eff80
7eff80
660c00
660c00
660c00
660c00
660c00
660c00
660c00
7e0c00
7e0c00
660c00
600c00
003c00
003800
ENDCHAR
STARTCHAR 53EF
ENCODING 21487
SWIDTH 520 0
DWIDTH 18 0
BBX 18 16 0 -3
BITMAP
000000
7fff80
7fff80
000c00
000c00
1fcc00
1fcc00
18cc00
18cc00
18cc00
1fcc00
1fcc00
18cc00
000c00
001c00
001800
ENDCHAR
STARTCHAR 53F0
ENCODING 21488
SWIDTH 520 0
DWIDTH 18 0
BBX 18 16 0 -3
BITMAP
018000
018000
030000
060c00
0c0c00
183e00
3fff00
3fc300
000000
1ffe00
1ffe00
180600
180600
1ffe00
1ffe00
180600
ENDCHAR
STARTCHAR 53F1
ENCODING 21489
SWIDTH 520 0
DWIDTH 18 0
BBX 18 16 0 -3
BITMAP
003000
003000
3f3000
3f3300
333300
333600
333600
333c00
333800
33f000
3ff000
3f3000
333180
303180
003f80
001f00
ENDCHAR
STARTCHAR 53F2
ENCODING 21490
SWIDTH 520 0
DWIDTH 18 0
BBX 18 16 0 -3
BITMAP
00c000
00c000
1ffe00
1ffe00
18c600
18c600
18c600
1ffe00
1ffe00
00c000
06c000
06c000
038000
07e000
7e7f80
381f00
ENDCHAR
STARTCHAR 53F3
ENCODING 21491
SWIDTH 520 0
DWIDTH 18 0
BBX 18 16 0 -3
BITMAP
018000
018000
018000
7fff80
7fff80
030000
030000
060000
0ffe00
1ffe00
3e0600
760600
260600
07fe00
07fe00
060600
ENDCHAR
STARTCHAR 53F5
ENCODING 21493
SWIDTH 520 0
DWIDTH 18 0
BBX 18 16 0 -3
BITMAP
000000
3fff00
3fff00
300000
300000
33fe00
33fe00
330600
330600
33fe00
33fe00
300000
300000
300000
3fff00
3fff00
ENDCHAR
STARTCHAR 53F6
ENCODING 21494
SWIDTH 520 0
DWIDTH 18 0
BBX 18 16 0 -3
BITMAP
001800
7e1800
7e1800
661800
661800
66ff80
66ff80
661800
661800
661800
7e1800
7e1800
661800
601800
001800
001800
ENDCHAR
STARTCHAR 53F7
ENCODING 21495
SWIDTH 520 0
DWIDTH 18 0
BBX 18 16 0 -3
BITMAP
0ffc00
0ffc00
0c0c00
0c0c00
0ffc00
0ffc00
000000
7fff80
7fff80
060000
07fc00
07fc00
000c00
000c00
007c00
007800
ENDCHAR
STARTCHAR 53F8
ENCODING 21496
SWIDTH 520 0
DWIDTH 18 0
BBX 18 16 0 -3
BITMAP
000000
1fff00
1fff00
000300
3ffb00
3ffb00
000300
1ff300
1ff300
183300
183300
1ff300
1ff300
183300
180f00
000e00
ENDCHAR
STARTCHAR 53F9
ENCODING 21497
SWIDTH 520 0
DWIDTH 18 0
BBX 18 16 0 -3
BITMAP
000000
7eff00
7eff00
666300
666300
666300
666600
666600
666600
7e6c00
7e3c00
663800
667c00
60ee00
07c780
038300
ENDCHAR
STARTCHAR 53FB
ENCODING 21499
SWIDTH 520 0
DWIDTH 18 0
BBX 18 16 0 -3
BITMAP
003000
003000
7e3000
7e3000
66ff00
66ff00
663300
663300
663300
663300
7e3300
7e6300
666300
60e300
03cf00
018e00
ENDCHAR
STARTCHAR 53FC
ENCODING 21500
SWIDTH 520 0
DWIDTH 18 0
BBX 18 16 0 -3
BITMAP
000000
00ff00
7eff00
7e0300
661300
661b00
661b00
663300
663300
663300
7e6300
7e6300
66c300
60c700
001e00
001c00
ENDCHAR
STARTCHAR 53FD
ENCODING 21501
SWIDTH 520 0
DWIDTH 18 0
BBX 18 16 0 -3
BITMAP
000000
7efc00
7efc00
66cc00
66cc00
66cc00
66cc00
66cc00
66cc00
7ecc00
7ecc00
66cc00
618c00
038d80
070f80
020700
ENDCHAR
STARTCHAR 5401
ENCODING 21505
SWIDTH 520 0
DWIDTH 18 0
BBX 18 16 0 -3
BITMAP
000000
7eff00
7eff00
661800
661800
661800
661800
67ff80
67ff80
7e1800
7e1800
661800
601800
001800
007800
007000
ENDCHAR
STARTCHAR 5403
ENCODING 21507
SWIDTH 520 0
DWIDTH 18 0
BBX 18 16 0 -3
BITMAP
006000
006000
7e7f00
7eff00
66c000
678000
67fe00
667e00
660c00
661800
7e3000
7e6000
666180
606180
007f80
003f00
ENDCHAR
STARTCHAR 5404
ENCODING 21508
SWIDTH 520 0
DWIDTH 18 0
BBX 18 16 0 -3
BITMAP
060000
060000
0ffc00
1ffc00
3b1800
11b000
00e000
07f800
7f1f80
380700
0ffc00
0ffc00
0c0c00
0ffc00
0ffc00
0c0c00
ENDCHAR
STARTCHAR 5406
ENCODING 21510
SWIDTH 520 0
DWIDTH 18 0
BBX 18 16 0 -3
BITMAP
001800
001800
7e3000
7e3000
666300
666300
66c600
66fe00
66fc00
660c00
661800
7e3300
7e6300
66cf00
61ff80
01f180
ENDCHAR
STARTCHAR 5408
ENCODING 21512
SWIDTH 520 0
DWIDTH 18 0
BBX 18 16 0 -3
BITMAP
00c000
01e000
037000
073800
0e1c00
1c0f00
7ffb80
37f900
000000
1ffe00
1ffe00
180600
180600
1ffe00
1ffe00
180600
ENDCHAR
STARTCHAR 5409
ENCODING 21513
SWIDTH 520 0
DWIDTH 18 0
BBX 18 16 0 -3
BITMAP
00c000
00c000
7fff80
7fff80
00c000
00c000
1ffe00
1ffe00
000000
1ffe00
1ffe00
180600
180600
1ffe00
1ffe00
180600
ENDCHAR
STARTCHAR 540A
ENCODING 21514
SWIDTH 520 0
DWIDTH 18 0
BBX 18 16 0 -3
BITMAP
000000
0ffe00
0ffe00
0c0600
0c0600
0ffe00
0ffe00
00c000
1fff00
1fff00
18c300
18c300
18c300
18cf00
18ce00
00c000
ENDCHAR
STARTCHAR 540C
ENCODING 21516
SWIDTH 520 0
DWIDTH 18 0
BBX 18 16 0 -3
BITMAP
000000
3fff00
3fff00
300300
37fb00
37fb00
300300
33f300
33f300
333300
333300
33f300
33f300
300300
300700
300600
ENDCHAR
STARTCHAR 540D
ENCODING 21517
SWIDTH 520 0
DWIDTH 18 0
BBX 18 16 0 -3
BITMAP
030000
030000
07fe00
0ffe00
1c0c00
399800
11f000
00e000
038000
0fff00
7fff00
360300
060300
07ff00
07ff00
060300
ENDCHAR
STARTCHAR 540E
ENCODING 21518
SWIDTH 520 0
DWIDTH 18 0
BBX 18 16 0 -3
BITMAP
000e00
1fff00
1ff000
180000
180000
1fff80
1fff80
180000
180000
1bfe00
1bfe00
3b0600
330600
73fe00
63fe00
230600
ENDCHAR
STARTCHAR 540F
ENCODING 21519
SWIDTH 520 0
DWIDTH 18 0
BBX 18 16 0 -3
BITMAP
00c000
00c000
7fff80
7fff80
00c000
1ffe00
1ffe00
18c600
1ffe00
1ffe00
06c000
06c000
038000
07e000
7eff80
381f00
ENDCHAR
STARTCHAR 5410
ENCODING 21520
SWIDTH 520 0
DWIDTH 18 0
BBX 18 16 0 -3
BITMAP
001800
001800
7e1800
7e1800
661800
66ff00
66ff00
661800
661800
661800
7e1800
7e1800
661800
601800
61ff80
01ff80
ENDCHAR
STARTCHAR 5411
ENCODING 21521
SWIDTH 520 0
DWIDTH 18 0
BBX 18 16 0 -3
BITMAP
018000
018000
030000
3fff00
3fff00
300300
300300
33f300
33f300
333300
333300
33f300
33f300
300300
300f00
300e00
ENDCHAR
STARTCHAR 5412
ENCODING 21522
SWIDTH 520 0
DWIDTH 18 0
BBX 18 16 0 -3
BITMAP
000e00
01ff00
7df000
7c3000
6c3000
6c3000
6c3f00
6dff00
6df000
6c3000
7c3000
7c3000
6c3000
603180
003f80
001f00
ENDCHAR
STARTCHAR 5413
ENCODING 21523
SWIDTH 520 0
DWIDTH 18 0
BBX 18 16 0 -3
BITMAP
000000
00ff00
7eff00
7e3000
663000
663000
663400
663e00
663700
663380
7e3100
7e3000
663000
603000
003000
003000
ENDCHAR
STARTCHAR 5415
ENCODING 21525
SWIDTH 520 0
DWIDTH 18 0
BBX 18 16 0 -3
BITMAP
000000
0ffc00
0ffc00
0c0c00
0c0c00
0ffc00
0ffc00
000000
1ffe00
1ffe00
180600
180600
180600
1ffe00
1ffe00
180600
ENDCHAR
STARTCHAR 5416
ENCODING 21526
SWIDTH 520 0
DWIDTH 18 0
BBX 18 16 0 -3
BITMAP
000300
00c300
7ec600
7e6600
666c00
660c00
661800
661800
661800
661800
7e1800
7e1800
661800
601800
001800
001800
ENDCHAR
STARTCHAR 5417
ENCODING 21527
SWIDTH 520 0
DWIDTH 18 0
BBX 18 16 0 -3
BITMAP
000000
3efe00
3efe00
360600
366600
366600
366600
366600
367f80
3e7f80
3e0180
36fd80
36fd80
300180
000780
000700
ENDCHAR
STARTCHAR 541B
ENCODING 21531
SWIDTH 520 0
DWIDTH 18 0
BBX 18 16 0 -3
BITMAP
1ffe00
1ffe00
030600
7fff80
7fff80
030600
3ffe00
3ffe00
060000
0ffe00
1ffe00
3e0600
760600
27fe00
07fe00
060600
ENDCHAR
STARTCHAR 541D
ENCODING 21533
SWIDTH 520 0
DWIDTH 18 0
BBX 18 16 0 -3
BITMAP
00c000
00c000
3fff00
3fff00
061800
033000
01e000
07f800
7e1f80
380700
0ffc00
0ffc00
0c0c00
0ffc00
0ffc00
0c0c00
ENDCHAR
STARTCHAR 541E
ENCODING 21534
SWIDTH 520 0
DWIDTH 18 0
BBX 18 16 0 -3
BITMAP
1ffe00
1ffe00
018000
018000
3fff00
3fff00
033000
061800
0c0e00
7fff80
3ffd80
0c0c00
0c0c00
0ffc00
0ffc00
0c0c00
ENDCHAR
STARTCHAR 541F
ENCODING 21535
SWIDTH 520 0
DWIDTH 18 0
BBX 18 16 0 -3
BITMAP
001800
001800
7e3800
7e3c00
666e00
66e700
67db80
669900
660000
66fe00
7efe00
7e0600
660c00
600c00
001800
001800
ENDCHAR
STARTCHAR 5420
ENCODING 21536
SWIDTH 520 0
DWIDTH 18 0
BBX 18 16 0 -3
BITMAP
003000
003600
7e3700
7e3300
663000
67ff80
67ff80
663000
663000
667800
7e6c00
7ecc00
66c600
618700
038380
010100
ENDCHAR
STARTCHAR 5421
ENCODING 21537
SWIDTH 520 0
DWIDTH 18 0
BBX 18 16 0 -3
BITMAP
018c00
7d8c00
7d8d00
6d8d80
6d8d80
6def00
6dee00
6d8c00
6d8c00
7d8c00
7d8c00
6d8c00
6dac00
01ed80
01cf80
018700
ENDCHAR
STARTCHAR 5423
ENCODING 21539
SWIDTH 520 0
DWIDTH 18 0
BBX 18 16 0 -3
BITMAP
003000
003000
7c1800
7c1800
6c6000
6c6000
6d6300
6d6300
6d6180
6d6180
6d6000
7d6000
7c6600
6c6600
007e00
003c00
ENDCHAR
STARTCHAR 5426
ENCODING 21542
SWIDTH 520 0
DWIDTH 18 0
BBX 18 16 0 -3
BITMAP
000000
3fff00
3fff00
00c000
01d800
07de00
1ec780
78c180
30c000
0ffc00
0ffc00
0c0c00
0c0c00
0ffc00
0ffc00
0c0c00
ENDCHAR
STARTCHAR 5427
ENCODING 21543
SWIDTH 520 0
DWIDTH 18 0
BBX 18 16 0 -3
BITMAP
000000
00ff00
7eff00
7edb00
66db00
66db00
66db00
66ff00
66ff00
66c300
7ec000
7ec000
66c180
60c180
00ff80
007f00
ENDCHAR
STARTCHAR 5428
ENCODING 21544
SWIDTH 520 0
DWIDTH 18 0
BBX 18 16 0 -3
BITMAP
001800
001800
7eff80
7eff80
661800
661800
66db00
66db00
66db00
66ff00
7eff00
7e1b00
661800
601980
001f80
000f00
ENDCHAR
STARTCHAR 5429
ENCODING 21545
SWIDTH 520 0
DWIDTH 18 0
BBX 18 16 0 -3
BITMAP
006c00
7c6c00
7c6c00
6cc600
6cc600
6d8300
6fff80
6d7f80
6c3600
7c3600
7c7600
6c6600
60e600
01c600
039e00
011c00
ENDCHAR
STARTCHAR 542B
ENCODING 21547
SWIDTH 520 0
DWIDTH 18 0
BBX 18 16 0 -3
BITMAP
00c000
01e000
033000
061800
1cce00
78c780
2ffb00
0ff800
003000
006000
0ffc00
0ffc00
0c0c00
0ffc00
0ffc00
0c0c00
ENDCHAR
STARTCHAR 542C
ENCODING 21548
SWIDTH 520 0
DWIDTH 18 0
BBX 18 16 0 -3
BITMAP
000300
7eff80
7efc00
66c000
66c000
66ff80
66ff80
66cc00
66cc00
66cc00
7ecc00
7ecc00
66cc00
618c00
038c00
010c00
ENDCHAR
STARTCHAR 542D
ENCODING 21549
SWIDTH 520 0
DWIDTH 18 0
BBX 18 16 0 -3
BITMAP
003000
003800
7c1800
7dff80
6dff80
6c0000
6cfc00
6cfc00
6ccc00
6ccc00
7ccc00
7ccc00
6d8c00
638d80
070f80
020700
ENDCHAR
STARTCHAR 542E
ENCODING 21550
SWIDTH 520 0
DWIDTH 18 0
BBX 18 16 0 -3
BITMAP
003000
003000
7c6000
7c6600
6cc600
6dff00
6dff00
6c6c00
6c6c00
6c6c00
7ccc00
7ccc00
6d8d80
638d80
070f80
020700
ENDCHAR
STARTCHAR 542F
ENCODING 21551
SWIDTH 520 0
DWIDTH 18 0
BBX 18 16 0 -3
BITMAP
00c000
00c000
1fff00
1fff00
180300
180300
1fff00
1fff00
180000
1bff00
1bff00
3b0300
330300
73ff00
63ff00
230300
ENDCHAR
STARTCHAR 5431
ENCODING 21553
SWIDTH 520 0
DWIDTH 18 0
BBX 18 16 0 -3
BITMAP
001800
001800
7e1800
7fff80
67ff80
661800
661800
66fe00
66fe00
666600
7e6c00
7e6c00
663800
607c00
03ef80
018300
ENDCHAR
STARTCHAR 5432
ENCODING 21554
SWIDTH 520 0
DWIDTH 18 0
BBX 18 16 0 -3
BITMAP
01f300
01f300
7c3300
7c3300
6df300
6df300
6d8300
6d8300
6df300
6df300
7c3300
7c3300
6c3300
603300
00f300
00e300
ENDCHAR
STARTCHAR 5434
ENCODING 21556
SWIDTH 520 0
DWIDTH 18 0
BBX 18 16 0 -3
BITMAP
1ffe00
1ffe00
180600
1ffe00
1ffe00
000000
1ffe00
1ffe00
00c000
3fff00
3fff00
00e000
01b000
071c00
3e0f80
180300
ENDCHAR
STARTCHAR 5435
ENCODING 21557
SWIDTH 520 0
DWIDTH 18 0
BBX 18 16 0 -3
BITMAP
001800
001800
7e1800
7e1b00
66db00
66d980
66d980
679800
679b00
661b00
7e1b00
7e0600
660c00
603800
03f000
01c000
ENDCHAR
STARTCHAR 5438
ENCODING 21560
SWIDTH 520 0
DWIDTH 18 0
BBX 18 16 0 -3
BITMAP
000000
01fe00
7ffe00
7ec600
66cc00
66cf00
66cf00
66e300
66e300
66f600
7ed600
7f9e00
618c00
631e00
077780
022300
ENDCHAR
STARTCHAR 5439
ENCODING 21561
SWIDTH 520 0
DWIDTH 18 0
BBX 18 16 0 -3
BITMAP
006000
006000
7e6000
7eff00
66ff00
678300
67b300
663000
663000
7e3000
7e7800
666c00
60ee00
61c700
038380
010100
ENDCHAR
STARTCHAR 543B
ENCODING 21563
SWIDTH 520 0
DWIDTH 18 0
BBX 18 16 0 -3
BITMAP
006000
006000
7cc000
7cff80
6dff80
6fad80
6d6d80
6c6d80
6ccd80
6dd980
7c9980
7c3180
6c7180
60e380
01cf00
008e00
ENDCHAR
STARTCHAR 543C
ENCODING 21564
SWIDTH 520 0
DWIDTH 18 0
BBX 18 16 0 -3
BITMAP
000c00
7dec00
7dec00
6c6c00
6c6c00
6ccc00
6ccc00
6cec00
6dec00
6dcc00
7ccc00
7ccc00
6ccd80
60cd80
01cf80
018700
ENDCHAR
STARTCHAR 543E
ENCODING 21566
SWIDTH 520 0
DWIDTH 18 0
BBX 18 16 0 -3
BITMAP
000000
3fff00
3fff00
018000
1ffc00
1ffc00
030c00
7fff80
7fff80
000000
1ffe00
1ffe00
180600
1ffe00
1ffe00
180600
ENDCHAR
STARTCHAR 5440
ENCODING 21568
SWIDTH 520 0
DWIDTH 18 0
BBX 18 16 0 -3
BITMAP
000000
01ff00
7dff00
7c0c00
6ccc00
6ccc00
6cff80
6cff80
6c1c00
6c3c00
7c6c00
7cec00
6dcc00
638c00
011c00
001800
ENDCHAR
STARTCHAR 5443
ENCODING 21571
SWIDTH 520 0
DWIDTH 18 0
BBX 18 16 0 -3
BITMAP
01ff00
7dff00
7d8000
6d8000
6dbf00
6dbf00
6db300
6db300
6db300
7db700
7db600
6db000
633180
033f80
071f00
020000
ENDCHAR
STARTCHAR 5446
ENCODING 21574
SWIDTH 520 0
DWIDTH 18 0
BBX 18 16 0 -3
BITMAP
1ffe00
1ffe00
180600
180600
1ffe00
1ffe00
00c000
00c000
7fff80
7fff80
03f000
06d800
1cce00
78c780
30c300
00c000
ENDCHAR
STARTCHAR 5448
ENCODING 21576
SWIDTH 520 0
DWIDTH 18 0
BBX 18 16 0 -3
BITMAP
000000
1ffe00
1ffe00
180600
1ffe00
1ffe00
000000
3fff00
3fff00
00c000
1ffe00
1ffe00
00c000
00c000
7fff80
7fff80
ENDCHAR
STARTCHAR 544A
ENCODING 21578
SWIDTH 520 0
DWIDTH 18 0
BBX 18 16 0 -3
BITMAP
00c000
0cc000
0ffe00
1ffe00
18c000
00c000
7fff80
7fff80
000000
1ffe00
1ffe00
180600
180600
1ffe00
1ffe00
180600
ENDCHAR
STARTCHAR 544B
ENCODING 21579
SWIDTH 520 0
DWIDTH 18 0
BBX 18 16 0 -3
BITMAP
003000
003000
7c3000
7cff00
6cff00
6c3000
6c3000
6dff00
6dff00
6c3000
7c7800
7c6c00
6cee00
61c700
078380
030100
ENDCHAR
STARTCHAR 5450
ENCODING 21584
SWIDTH 520 0
DWIDTH 18 0
BBX 18 16 0 -3
BITMAP
001800
001800
7c1800
7dff80
6dff80
6d9980
6d9980
6d9980
6dbd80
6db780
7df780
7da180
6d8180
618180
018780
018700
ENDCHAR
STARTCHAR 5452
ENCODING 21586
SWIDTH 520 0
DWIDTH 18 0
BBX 18 16 0 -3
BITMAP
000000
7dfe00
7dfe00
6c3000
6c3000
6c3000
6dff00
6dff00
6c7800
7c7800
7cd800
6cd800
619800
039980
071f80
020f00
ENDCHAR
STARTCHAR 5453
ENCODING 21587
SWIDTH 520 0
DWIDTH 18 0
BBX 18 16 0 -3
BITMAP
006600
006600
7dff80
7dff80
6c6600
6c0000
6cfe00
6cfe00
6c0c00
6c1800
7c3000
7c6000
6cc300
60c300
00ff00
007e00
ENDCHAR
STARTCHAR 5454
ENCODING 21588
SWIDTH 520 0
DWIDTH 18 0
BBX 18 16 0 -3
BITMAP
003000
003000
7c3000
7c3000
6dff00
6dff00
6c3000
6c3000
6c7000
6c7800
7cd800
7ccc00
6db600
63b700
073380
020100
ENDCHAR
STARTCHAR 5455
ENCODING 21589
SWIDTH 520 0
DWIDTH 18 0
BBX 18 16 0 -3
BITMAP
000000
01ff80
7dff80
7d8000
6db600
6db600
6d9e00
6d9c00
6d8c00
6d8c00
7d9e00
7dbb00
6d9300
6d8000
61ff80
01ff80
ENDCHAR
STARTCHAR 5456
ENCODING 21590
SWIDTH 520 0
DWIDTH 18 0
BBX 18 16 0 -3
BITMAP
000000
7dff80
7dff80
6d9800
6d9800
6d9800
6dff00
6dff00
6d9b00
7d9b00
7d9b00
6db300
633300
077300
0ee700
044600
ENDCHAR
ENDFONT
